<svg width="73" height="66" viewBox="0 0 73 66" fill="none" xmlns="http://www.w3.org/2000/svg">
<rect width="73" height="66" rx="10" fill="#F6F6F6"/>
<path d="M14.0469 40.6536H17.7808C19.0505 42.868 21.8752 43.6336 24.0895 42.3635C24.8012 41.9555 25.3914 41.3651 25.7997 40.6536H47.205C48.4741 42.8676 51.2981 43.6336 53.5121 42.3645C54.2311 41.9524 54.826 41.3544 55.2346 40.6335C55.3225 40.618 55.4073 40.5875 55.4848 40.5427L59.3564 38.2197C59.5892 38.0798 59.732 37.8281 59.732 37.5562V30.5874C59.7301 30.496 59.7115 30.4059 59.6778 30.3209C59.6693 30.2979 59.6598 30.2761 59.6491 30.2538C59.6384 30.2314 59.6337 30.2096 59.6211 30.1885L57.5173 26.6818L58.1021 25.5135C58.293 25.1307 58.1377 24.6656 57.7552 24.4747C57.6862 24.4404 57.6128 24.4164 57.5369 24.4038L53.5544 23.7393L51.6642 23.4249C42.3933 21.9053 32.8794 23.464 24.5779 27.8627L22.2952 29.0807L18.8108 29.8549C16.4421 30.3766 14.4366 31.9422 13.3563 34.1137C13.3021 34.2208 13.2734 34.339 13.2728 34.459V39.8792C13.2728 40.3067 13.6193 40.6536 14.0469 40.6536ZM24.6257 39.5695C23.9383 41.1316 22.1146 41.8408 20.5525 41.1533C18.9904 40.4659 18.2811 38.6422 18.9686 37.0801C19.6561 35.518 21.4798 34.8087 23.0419 35.4962C24.1654 35.9906 24.8898 37.1031 24.8876 38.3306C24.8863 38.7572 24.7968 39.1791 24.6251 39.5695H24.6257ZM54.05 39.5695C53.3625 41.1316 51.5388 41.8408 49.9767 41.1533C48.4146 40.4659 47.7054 38.6422 48.3929 37.0801C49.0803 35.518 50.904 34.8087 52.4661 35.4962C53.5896 35.9906 54.314 37.1031 54.3118 38.3306C54.3105 38.7572 54.2211 39.1791 54.0493 39.5695H54.05ZM58.1834 32.9104H56.2476L55.0859 31.3615H58.1834V32.9104ZM42.5839 24.4703C45.5352 24.3121 48.4949 24.4747 51.4109 24.9558L51.8177 25.0239L47.7964 29.0388H41.9301L42.5839 24.4703ZM48.1172 30.5874C48.3226 30.5874 48.5195 30.5058 48.6644 30.3606L53.692 25.332L56.2476 25.7586L55.9376 26.3696C55.8194 26.6065 55.8304 26.8875 55.9672 27.1144L57.5901 29.813H53.5373C53.1095 29.813 52.7629 30.1599 52.7629 30.5874C52.7629 30.755 52.8174 30.9179 52.9179 31.0518L55.2409 34.1493C55.3871 34.3443 55.6165 34.459 55.8604 34.459H58.1834V37.1179L55.8604 38.514C55.8604 38.4529 55.8642 38.3917 55.8642 38.3306C55.8642 35.7647 53.784 33.6846 51.2184 33.6846C48.6525 33.6846 46.5724 35.7647 46.5724 38.3306C46.5739 38.5625 46.5938 38.7941 46.6313 39.0228C46.6351 39.0499 46.6313 39.078 46.6376 39.1051H40.4924L41.7089 30.5874H48.1172ZM41.0035 24.5787L40.3661 29.0388H25.6658C30.4398 26.569 35.6495 25.0541 41.0035 24.5787ZM14.8213 36.0076H16.3699V34.459H14.9351C15.8409 32.8818 17.3687 31.7592 19.1444 31.3663L22.6496 30.5874H40.1414L38.9281 39.1047H26.3709C26.3709 39.0777 26.3709 39.0499 26.3772 39.0228C26.4144 38.7938 26.4339 38.5625 26.4361 38.3303C26.4361 35.7647 24.356 33.6846 21.7901 33.6846C19.2245 33.6846 17.1444 35.7647 17.1444 38.3303C17.1459 38.5625 17.1658 38.7938 17.2033 39.0228C17.2071 39.0499 17.2033 39.0777 17.2093 39.1047H14.8213V36.0076Z" fill="#FF3600"/>
<path d="M33.4048 32.136H36.5023V33.6846H33.4048V32.136Z" fill="#FF3600"/>
</svg>
