<svg width="35" height="23" viewBox="0 0 35 23" fill="none" xmlns="http://www.w3.org/2000/svg">
<path d="M27.657 7.15849C27.6476 7.15155 27.6377 7.14526 27.6273 7.13966C24.9399 4.52371 21.2975 3.05444 17.5 3.05444C13.7025 3.05444 10.0601 4.52371 7.37268 7.13966C7.36377 7.1469 7.35188 7.1498 7.34371 7.15849C7.33554 7.16718 7.33183 7.17804 7.32366 7.18673C4.63963 9.80653 3.13289 13.3586 3.13489 17.0615C3.13469 17.1298 3.14832 17.1974 3.175 17.2606C3.20167 17.3237 3.24086 17.3812 3.29033 17.4295C3.3398 17.4779 3.39857 17.5163 3.46327 17.5424C3.52798 17.5686 3.59734 17.5821 3.6674 17.5821H6.959C7.02899 17.5821 7.0983 17.5686 7.16295 17.5425C7.22761 17.5164 7.28635 17.4781 7.3358 17.4298C7.38526 17.3815 7.42447 17.3242 7.45119 17.2611C7.4779 17.198 7.49161 17.1304 7.49151 17.0622C7.49151 14.4742 8.54597 11.9921 10.4229 10.1621C12.2999 8.33212 14.8456 7.30404 17.5 7.30404C20.1544 7.30404 22.7001 8.33212 24.5771 10.1621C26.454 11.9921 27.5085 14.4742 27.5085 17.0622C27.5084 17.1305 27.5221 17.1981 27.5489 17.2613C27.5756 17.3244 27.6149 17.3817 27.6645 17.43C27.714 17.4783 27.7728 17.5166 27.8376 17.5427C27.9023 17.5688 27.9717 17.5822 28.0417 17.5821H31.3326C31.4026 17.5822 31.472 17.5688 31.5368 17.5427C31.6015 17.5166 31.6603 17.4783 31.7099 17.43C31.7594 17.3817 31.7987 17.3244 31.8255 17.2613C31.8522 17.1981 31.8659 17.1305 31.8658 17.0622C31.8668 15.2284 31.4972 13.4124 30.7781 11.7179C30.059 10.0235 29.0045 8.48374 27.6748 7.18673C27.6694 7.17702 27.6635 7.16759 27.657 7.15849ZM24.9358 9.07739C23.0405 7.38909 20.5978 6.40253 18.0332 6.28955V4.11722C21.1864 4.2371 24.192 5.45126 26.5081 7.54082L24.9358 9.07739ZM10.0649 9.07739L8.49191 7.54372C10.8084 5.45421 13.8141 4.24008 16.9675 4.12011V6.29245C14.4032 6.4045 11.9606 7.39004 10.0649 9.07739ZM6.45174 16.5423H4.21105C4.33919 13.4661 5.59122 10.5359 7.74105 8.28086L9.3111 9.81236C7.57938 11.6602 6.56749 14.0418 6.45174 16.5423ZM28.549 16.5423C28.4329 14.0419 27.4211 11.6603 25.6896 9.81236L27.2597 8.28086C29.4092 10.5361 30.6612 13.4661 30.7897 16.5423H28.549Z" fill="#FF3600"/>
<path d="M24.9544 16.5423H19.2356C19.1079 16.1343 18.8342 15.7847 18.4643 15.5569C18.0944 15.3292 17.6529 15.2385 17.2202 15.3015C16.7875 15.3644 16.3924 15.5768 16.1068 15.8999C15.8212 16.223 15.6641 16.6353 15.6641 17.0619C15.6641 17.4884 15.8212 17.9008 16.1068 18.2238C16.3924 18.5469 16.7875 18.7593 17.2202 18.8222C17.6529 18.8852 18.0944 18.7945 18.4643 18.5668C18.8342 18.3391 19.1079 17.9894 19.2356 17.5814H24.9544C25.026 17.584 25.0975 17.5725 25.1645 17.5476C25.2314 17.5226 25.2926 17.4848 25.3442 17.4363C25.3959 17.3878 25.4369 17.3296 25.465 17.2653C25.4931 17.201 25.5075 17.1318 25.5075 17.0619C25.5075 16.9919 25.4931 16.9228 25.465 16.8584C25.4369 16.7941 25.3959 16.7359 25.3442 16.6874C25.2926 16.6389 25.2314 16.6011 25.1645 16.5761C25.0975 16.5512 25.026 16.5397 24.9544 16.5423ZM17.5 17.7994C17.3497 17.7994 17.2028 17.7559 17.0779 17.6745C16.9529 17.5931 16.8556 17.4774 16.798 17.3421C16.7405 17.2067 16.7255 17.0578 16.7548 16.9141C16.7841 16.7704 16.8565 16.6384 16.9627 16.5348C17.069 16.4312 17.2044 16.3606 17.3518 16.3321C17.4991 16.3035 17.6519 16.3182 17.7907 16.3742C17.9296 16.4303 18.0482 16.5252 18.1317 16.6471C18.2152 16.7689 18.2598 16.9121 18.2598 17.0586C18.2596 17.255 18.1794 17.4433 18.037 17.5822C17.8946 17.7211 17.7014 17.7992 17.5 17.7994Z" fill="#FF3600"/>
<path d="M17.5 0C7.85023 0 0 7.65387 0 17.0616C0.00339531 18.9651 0.334792 20.8545 0.98035 22.651C1.01651 22.7529 1.08437 22.8413 1.1745 22.9039C1.26462 22.9665 1.37252 23 1.48315 23H33.5168C33.6276 23.0002 33.7357 22.9667 33.8259 22.9041C33.9162 22.8415 33.9842 22.753 34.0204 22.651C34.6654 20.8547 34.9965 18.9655 35 17.0623C35 7.65388 27.1498 0 17.5 0ZM33.1336 21.9602H1.86638C1.33831 20.3782 1.0679 18.7252 1.06502 17.0616C1.06502 8.22737 8.4377 1.0391 17.4993 1.0391C26.5608 1.0391 33.9342 8.22665 33.9342 17.0616C33.9313 18.7252 33.6612 20.3781 33.1336 21.9602Z" fill="#FF3600"/>
</svg>
