<svg width="73" height="66" viewBox="0 0 73 66" fill="none" xmlns="http://www.w3.org/2000/svg">
<rect width="73" height="66" rx="10" fill="#F6F6F6"/>
<path fill-rule="evenodd" clip-rule="evenodd" d="M58.0565 40.9261H53.8684C53.5626 40.9261 53.3148 40.6784 53.3148 40.3725C53.3148 38.1322 51.4923 36.3097 49.2521 36.3097C47.0117 36.3097 45.1891 38.1323 45.1891 40.3725C45.1891 40.6784 44.9413 40.9261 44.6355 40.9261H28.9749C28.6691 40.9261 28.4213 40.6784 28.4213 40.3725C28.4213 38.1322 26.5987 36.3097 24.3584 36.3097C22.1181 36.3097 20.2956 38.1323 20.2956 40.3725C20.2956 40.6784 20.0477 40.9261 19.7419 40.9261H18.2598C16.4624 40.9261 15 39.4638 15 37.6662V29.0702C15 28.7644 15.2479 28.5166 15.5537 28.5166H52.4056C55.8268 28.5166 58.6102 31.3 58.6102 34.7212V40.3726C58.6101 40.6783 58.3623 40.9261 58.0565 40.9261ZM54.3927 39.8189H57.5029V34.7212C57.5029 31.9104 55.2162 29.6238 52.4056 29.6238H16.1075V37.6662C16.1075 38.8532 17.0731 39.8188 18.2599 39.8188H19.2179C19.495 37.2274 21.6948 35.2023 24.3586 35.2023C27.0224 35.2023 29.2221 37.2274 29.4994 39.8188H44.1115C44.3887 37.2274 46.5884 35.2023 49.2522 35.2023C51.9159 35.2024 54.1154 37.2274 54.3927 39.8189Z" fill="#FF3600"/>
<path fill-rule="evenodd" clip-rule="evenodd" d="M48.9035 29.624H15.554C15.2481 29.624 15.0002 29.3761 15.0002 29.0703V22.9416C15.0002 21.3196 16.3198 20 17.9419 20H40.3873C45.3886 20 49.4573 24.069 49.4573 29.0703C49.4572 29.3761 49.2092 29.624 48.9035 29.624ZM16.1074 28.5167H48.3309C48.0458 24.383 44.5919 21.1073 40.3871 21.1073H17.9416C16.9302 21.1073 16.1075 21.9302 16.1075 22.9417L16.1074 28.5167Z" fill="#FF3600"/>
<path fill-rule="evenodd" clip-rule="evenodd" d="M24.3583 45.5426C21.5076 45.5426 19.1883 43.2233 19.1883 40.3726C19.1883 37.5217 21.5076 35.2024 24.3583 35.2024C27.2092 35.2024 29.5285 37.5217 29.5285 40.3726C29.5285 43.2234 27.2092 45.5426 24.3583 45.5426ZM24.3583 36.3097C22.1181 36.3097 20.2956 38.1324 20.2956 40.3726C20.2956 42.6128 22.1181 44.4353 24.3583 44.4353C26.5987 44.4353 28.4213 42.6128 28.4213 40.3726C28.4213 38.1323 26.5987 36.3097 24.3583 36.3097Z" fill="#FF3600"/>
<path fill-rule="evenodd" clip-rule="evenodd" d="M49.252 45.5426C46.4012 45.5426 44.0819 43.2233 44.0819 40.3726C44.0819 37.5217 46.4012 35.2024 49.252 35.2024C52.1028 35.2024 54.422 37.5217 54.422 40.3726C54.422 43.2234 52.1028 45.5426 49.252 45.5426ZM49.252 36.3097C47.0116 36.3097 45.1891 38.1324 45.1891 40.3726C45.1891 42.6128 47.0116 44.4353 49.252 44.4353C51.4923 44.4353 53.3148 42.6128 53.3148 40.3726C53.3148 38.1323 51.4923 36.3097 49.252 36.3097Z" fill="#FF3600"/>
<path fill-rule="evenodd" clip-rule="evenodd" d="M24.3583 43.0052C22.9066 43.0052 21.7255 41.8242 21.7255 40.3724C21.7255 38.9206 22.9066 37.7395 24.3583 37.7395C25.8102 37.7395 26.9913 38.9206 26.9913 40.3724C26.9913 41.8243 25.8102 43.0052 24.3583 43.0052ZM24.3583 38.8467C23.5172 38.8467 22.8328 39.5311 22.8328 40.3724C22.8328 41.2136 23.5172 41.898 24.3583 41.898C25.1996 41.898 25.8841 41.2136 25.8841 40.3724C25.8841 39.5311 25.1997 38.8467 24.3583 38.8467Z" fill="#FF3600"/>
<path fill-rule="evenodd" clip-rule="evenodd" d="M49.2519 43.0052C47.8001 43.0052 46.619 41.8242 46.619 40.3724C46.619 38.9206 47.8001 37.7395 49.2519 37.7395C50.7037 37.7395 51.8848 38.9206 51.8848 40.3724C51.8848 41.8243 50.7037 43.0052 49.2519 43.0052ZM49.2519 38.8467C48.4107 38.8467 47.7263 39.5311 47.7263 40.3724C47.7263 41.2136 48.4107 41.898 49.2519 41.898C50.0932 41.898 50.7776 41.2136 50.7776 40.3724C50.7776 39.5311 50.0932 38.8467 49.2519 38.8467Z" fill="#FF3600"/>
<path fill-rule="evenodd" clip-rule="evenodd" d="M32.2286 29.6239C31.9227 29.6239 31.6748 29.3761 31.6748 29.0703V20.5537C31.6748 20.2479 31.9227 20 32.2286 20C32.5343 20 32.7822 20.2479 32.7822 20.5537V29.0703C32.7822 29.3761 32.5343 29.6239 32.2286 29.6239Z" fill="#FF3600"/>
<path fill-rule="evenodd" clip-rule="evenodd" d="M58.0333 37.8559H55.7773C55.4715 37.8559 55.2236 37.608 55.2236 37.3022V34.2079C55.2236 33.9021 55.4715 33.6543 55.7773 33.6543H58.0333C58.3391 33.6543 58.5869 33.9022 58.5869 34.2079V37.3022C58.5869 37.608 58.339 37.8559 58.0333 37.8559ZM56.3309 36.7485H57.4795V34.7615H56.3309V36.7485Z" fill="#FF3600"/>
</svg>
