<svg width="29" height="29" viewBox="0 0 29 29" fill="none" xmlns="http://www.w3.org/2000/svg">
<g clip-path="url(#clip0_116_22)">
<path d="M27.8039 23.9685H27.4007C27.4048 23.9116 27.4048 23.8545 27.4007 23.7976V2.26882C27.4007 1.60826 26.8652 1.07278 26.2047 1.07278H14.5176C13.857 1.07278 13.3215 1.60826 13.3215 2.26882V11.1537C12.2088 11.4237 11.235 12.0955 10.5877 13.0401C9.7939 14.1837 9.54854 15.6208 9.91795 16.9631C10.41 18.8494 10.4715 21.3509 9.4532 22.3897C8.86688 22.9094 8.04212 23.0644 7.30715 22.793C6.51656 22.6678 5.84157 22.1544 5.50966 21.4261C4.42297 18.9178 7.13629 14.1746 7.14312 14.1541C7.30715 13.9081 11.0867 8.03718 7.22513 4.58573C7.06794 4.4217 3.34311 0.485005 0.465769 0.867739C0.173251 0.9055 -0.0333233 1.17324 0.00443754 1.46576C0.0421984 1.75828 0.309942 1.96485 0.60246 1.92709C1.29395 1.88557 1.98321 2.03952 2.59131 2.37134L1.82584 3.294C1.41099 3.80805 1.49146 4.56104 2.00551 4.9759C2.01388 4.98265 2.02234 4.98931 2.03088 4.9958L4.60067 7.04617C4.81194 7.21549 5.0749 7.30716 5.34563 7.30588H5.44815C5.76323 7.27034 6.05113 7.11041 6.2478 6.86164L6.99276 5.9253C9.30284 8.87783 6.30931 13.58 6.23413 13.6552C6.1111 13.867 3.24059 18.8904 4.52549 21.8566C5.00049 22.8866 5.95553 23.6138 7.07477 23.7976C7.41949 23.8812 7.77267 23.9248 8.12729 23.9275C8.89362 23.9506 9.63551 23.6562 10.1777 23.1142C11.5446 21.6858 11.4352 18.7742 10.9021 16.7102C10.3351 14.8102 11.4104 12.8092 13.3079 12.2336V23.7976C13.3038 23.8545 13.3038 23.9116 13.3079 23.9685H12.9662C12.3058 23.9534 11.7581 24.4765 11.7431 25.1369C11.7429 25.1461 11.7428 25.1553 11.7428 25.1645V26.962C11.7426 27.6226 12.2779 28.1582 12.9385 28.1584C12.9477 28.1584 12.9569 28.1583 12.9662 28.1581H27.8039C28.4645 28.1581 29 27.6226 29 26.962V25.1645C29 24.5041 28.4645 23.9685 27.8039 23.9685ZM6.20679 5.28969L5.44815 6.22602C5.41919 6.26122 5.37733 6.28335 5.33197 6.28753C5.28805 6.29326 5.24363 6.28087 5.20894 6.25336L2.63915 4.203C2.57406 4.13653 2.57406 4.03025 2.63915 3.96379L3.39779 3.02062C3.42675 2.98542 3.46861 2.9633 3.51398 2.95911C3.55789 2.95339 3.60231 2.96577 3.637 2.99328L6.20679 5.04365C6.24258 5.07209 6.26488 5.11421 6.2683 5.15983C6.26787 5.21007 6.2454 5.25757 6.20679 5.28969ZM14.3331 2.26882C14.3331 2.17442 14.4095 2.09796 14.5039 2.09796H26.2183C26.3127 2.09796 26.3892 2.17442 26.3892 2.26882V23.7976C26.3892 23.892 26.3127 23.9685 26.2183 23.9685H14.5176C14.4235 23.976 14.3412 23.9059 14.3336 23.8118C14.3332 23.8071 14.333 23.8023 14.3331 23.7976V2.26882ZM28.0022 26.962C28.0022 27.0564 27.9257 27.1329 27.8313 27.1329H12.9662C12.8718 27.1329 12.7953 27.0564 12.7953 26.962V25.1645C12.7953 25.0701 12.8718 24.9937 12.9662 24.9937H27.8039C27.8971 24.9786 27.9849 25.0419 27.9999 25.135C28.0016 25.1447 28.0022 25.1546 28.0022 25.1645V26.962Z" fill="#FF3600"/>
<path d="M23.9014 3.72461H16.8208C16.1603 3.72461 15.6248 4.2601 15.6248 4.92065V12.0081C15.6248 12.6686 16.1603 13.2041 16.8208 13.2041H23.9014C24.562 13.2041 25.0975 12.6686 25.0975 12.0081V4.92065C25.0975 4.26018 24.562 3.72461 23.9014 3.72461ZM24.0723 12.0149C24.0686 12.1066 23.9932 12.179 23.9014 12.1789H16.8208C16.7264 12.1789 16.65 12.1025 16.65 12.0081V4.92065C16.65 4.82625 16.7264 4.74979 16.8208 4.74979H23.9014C23.9958 4.74979 24.0723 4.82625 24.0723 4.92065V12.0149Z" fill="#FF3600"/>
<path d="M23.1018 15.1384H17.6341C17.351 15.1384 17.1216 15.3679 17.1216 15.651C17.1216 15.9341 17.351 16.1636 17.6341 16.1636H23.1018C23.3849 16.1636 23.6144 15.9341 23.6144 15.651C23.6144 15.3679 23.3849 15.1384 23.1018 15.1384Z" fill="#FF3600"/>
</g>
<defs>
<clipPath id="clip0_116_22">
<rect width="29" height="29" fill="white"/>
</clipPath>
</defs>
</svg>
