<svg width="124" height="46" viewBox="0 0 124 46" fill="none" xmlns="http://www.w3.org/2000/svg">
<path d="M61.9125 0C27.547 0 0 10.1567 0 22.8907C0 35.5497 27.7746 45.784 61.9129 45.784C96.0533 45.784 123.83 35.5143 123.83 22.8907C123.829 10.2697 96.0533 0 61.9125 0ZM123.451 21.1232C123.473 21.2349 123.489 21.348 123.508 21.4563C123.492 21.3484 123.469 21.2362 123.451 21.1232Z" fill="#C9C9CA"/>
<path d="M61.9144 0.914062C28.2325 0.914062 0.948547 10.7308 0.948547 22.879C0.948547 35.0214 28.2325 44.8445 61.9144 44.8445C95.6006 44.8445 122.878 35.0214 122.878 22.879C122.878 10.7317 95.6002 0.914062 61.9144 0.914062Z" fill="url(#paint0_radial_186_8)"/>
<path d="M62.1916 5.52008C90.8276 5.52008 114.472 12.4183 118.085 21.3468V21.3452C115.672 11.9523 91.4461 4.57324 61.9097 4.57324C30.7762 4.57324 5.53979 12.77 5.53979 22.8858C5.53979 23.7104 5.70875 24.5201 6.03126 25.316C5.89147 24.797 5.82031 24.2625 5.81953 23.7255C5.82039 13.6722 31.0577 5.52008 62.1916 5.52008Z" fill="url(#paint1_linear_186_8)"/>
<path d="M119.956 20.5947C120.202 21.3342 120.328 22.1076 120.329 22.8861C120.329 33.9606 94.1746 42.9368 61.9089 42.9368C33.195 42.9368 9.32262 35.8256 4.41101 26.4622C8.13781 36.1942 32.5496 43.7124 62.142 43.7444H62.4996C94.681 43.7132 120.742 34.8277 120.742 23.8637C120.743 22.7516 120.474 21.6567 119.956 20.5947Z" fill="url(#paint2_linear_186_8)"/>
<path d="M73.1513 25.972C73.0225 25.6498 72.9986 25.288 73.0726 24.9282C73.0987 24.8004 72.9314 24.6857 72.7946 24.8245C71.4861 26.1694 71.3886 27.9092 72.2458 28.6903C72.5516 28.9711 72.9041 29.0973 73.2792 29.1209C72.721 28.4224 72.4571 27.053 73.1513 25.972Z" fill="url(#paint3_linear_186_8)"/>
<path d="M86.4058 28.5614H86.4075C86.4742 28.4341 86.5409 28.2995 86.6124 28.1553C86.6667 28.0444 86.6397 28.0131 86.5931 27.9946C86.4588 27.9469 86.3198 27.8453 86.3005 27.7403C86.2916 27.7213 86.2907 27.7032 86.289 27.6816L86.2907 27.693C86.3078 27.8959 86.3621 28.278 86.4058 28.5614Z" fill="url(#paint4_linear_186_8)"/>
<path d="M87.8917 23.2944C88.3284 23.7073 88.5949 24.208 88.6445 24.6685C88.6638 24.8866 88.8323 24.9106 88.97 24.7204C89.006 24.6685 89.047 24.604 89.0954 24.5314C89.0577 24.4787 89.0162 24.4281 88.9777 24.3783C88.6395 23.9946 88.2768 23.6325 87.8917 23.2944Z" fill="url(#paint5_linear_186_8)"/>
<path d="M69.7692 22.4473C70.12 22.9201 70.2838 23.5953 70.2594 24.4595C70.2534 24.6834 70.419 24.6686 70.5267 24.516C70.5883 24.4312 70.6426 24.3561 70.6995 24.2789V24.2722C70.4438 23.4974 70.0511 22.7366 69.7692 22.4473Z" fill="url(#paint6_linear_186_8)"/>
<path d="M86.0606 24.7328C84.9818 24.222 83.3359 25.1587 81.8466 26.9659C80.6258 28.4438 79.968 29.9465 79.9453 31.4117C79.9359 31.9338 80.1365 32.5791 80.6027 32.8144C80.7476 32.8938 80.9054 32.9476 81.069 32.9734C81.0166 32.7814 80.9893 32.5835 80.9877 32.3846C80.9693 30.8727 81.4458 29.3628 82.6695 27.8828C84.1482 26.0845 85.7038 25.1882 86.7839 25.6834C86.7282 25.2878 86.5195 24.9466 86.0606 24.7328Z" fill="url(#paint7_linear_186_8)"/>
<path d="M53.7948 27.7284C54.9317 26.2084 56.2124 25.6335 57.6726 25.0114C57.8651 24.9283 57.8882 24.8212 57.8514 24.6533C57.789 24.3666 57.5862 23.6546 57.5242 23.4834C57.5704 23.6399 57.5293 23.7596 57.3394 23.8292C55.6824 24.4496 54.0211 25.4129 52.8718 26.9308C51.5681 28.6533 51.2186 30.7249 52.0895 31.9185C52.2969 32.1977 52.5442 32.4048 52.8171 32.5397C52.3478 31.1142 52.6904 29.2028 53.7948 27.7284Z" fill="url(#paint8_linear_186_8)"/>
<path d="M62.1365 36.7439C63.2567 36.7439 64.6335 36.7439 65.5651 36.7384C65.7037 36.7308 65.8025 36.6536 65.8752 36.5515C67.2675 34.4006 68.7538 32.067 70.1765 29.9144C70.4883 31.0004 70.6487 31.5057 71.2291 32.0172C71.8198 32.5373 72.366 32.6739 73.1697 32.6807C73.8998 32.6895 74.6193 32.4019 75.4756 32.0514C75.7644 31.9299 76.0417 31.7832 76.3041 31.6132C76.3041 31.2142 76.3452 30.8131 76.417 30.4302C76.423 30.3889 76.382 30.1236 76.1523 30.2809C75.676 30.6223 75.155 30.8985 74.6035 31.102C73.8147 31.3922 73.4473 31.501 72.7172 31.4943C71.7988 31.4871 70.9712 31.102 70.3895 30.2062C70.064 29.7225 69.9292 28.9848 69.8984 28.4433C69.8942 28.3838 69.8155 28.2784 69.7291 28.415C68.1854 30.7414 66.7439 32.9894 65.2118 35.3516C65.1318 35.463 65.0625 35.5355 64.9039 35.5406C63.9573 35.5406 62.9205 35.5381 61.8781 35.544C61.769 35.544 61.6908 35.4946 61.6681 35.4195C61.7498 35.7801 61.8837 36.4334 61.9187 36.5861C61.9418 36.6894 62.0201 36.7439 62.1365 36.7439Z" fill="url(#paint9_linear_186_8)"/>
<path d="M77.1245 35.457C77.3828 35.9463 77.9624 36.4954 78.314 36.6679C80.3218 37.6434 83.1884 36.5376 85.0298 34.7924C85.0482 34.7683 85.0524 34.7666 85.0785 34.7384C85.1628 35.0517 85.2663 35.4326 85.2813 35.4853C85.4066 35.8906 85.6038 36.2588 85.7762 36.4541C87.0358 37.8577 89.71 37.2187 92.4936 35.0948C94.0497 33.9088 95.2029 32.7177 96.6161 31.0969C96.673 31.0295 96.6678 30.9299 96.6362 30.7781C96.5553 30.4255 96.4283 29.7878 96.3573 29.4673C96.355 29.5208 96.336 29.5724 96.303 29.6149C94.8277 31.3884 93.1968 33.0649 91.6373 34.2508C89.2121 36.1036 86.7912 36.5738 85.5948 35.3862C85.147 34.9446 84.9023 34.3137 84.8728 33.7785C84.8582 33.4883 84.709 33.4748 84.5678 33.611C83.1383 35.0075 80.6537 36.5536 78.3888 35.452C77.2211 34.8835 76.6121 33.8168 76.3931 32.6431C76.3948 32.6553 76.3991 32.6701 76.402 32.6832C76.5419 33.5149 76.7254 34.7156 77.1245 35.457Z" fill="url(#paint10_linear_186_8)"/>
<path d="M76.1253 27.883C76.8704 27.4852 77.5248 26.6417 77.4435 25.2731C77.4003 24.592 77.2006 23.8902 76.8772 23.3242C77.0971 23.7371 77.189 24.2179 77.1112 24.7244C76.9683 25.6076 76.4829 26.3862 75.6578 26.7894C74.9584 27.1272 74.1415 27.0677 73.5692 26.5646C73.3973 26.4086 73.2609 26.2186 73.1688 26.007C73.316 26.6742 73.4447 27.1647 73.6209 27.4275C74.1603 28.2296 75.0945 28.4321 76.1253 27.883Z" fill="url(#paint11_linear_186_8)"/>
<path d="M98.2868 16.3255C97.8171 17.1273 88.748 30.742 88.1748 32.1502C87.9935 32.596 87.9721 32.9368 88.1564 33.1822C88.3438 33.4294 88.6167 33.5234 88.9268 33.5184C88.9584 33.3463 89.0247 33.1527 89.1073 32.9482C89.6804 31.5349 98.1738 18.8084 98.6401 18.0029C98.6786 17.9341 98.6649 17.8569 98.6525 17.8055C98.6251 17.6777 98.3402 16.3247 98.3124 16.1978C98.32 16.242 98.3109 16.2875 98.2868 16.3255Z" fill="url(#paint12_linear_186_8)"/>
<path d="M60.6462 22.6616C60.6728 22.6899 60.6937 22.7181 60.7168 22.7464C61.2626 23.5473 61.5603 24.6747 61.5902 25.8391C61.6227 26.0846 61.7292 26.0905 61.8499 25.9644C61.9602 25.8539 62.068 25.7362 62.1741 25.6228C62.0145 24.9973 61.7673 24.4347 61.5128 23.8919C61.4179 23.6962 61.0038 22.9944 60.6462 22.6616Z" fill="url(#paint13_linear_186_8)"/>
<path d="M46.0102 35.3867C46.1753 35.4689 46.346 35.3943 46.4281 35.3487C46.9811 35.0695 48.0582 34.253 48.5222 33.6832C48.663 33.5537 48.7981 33.6419 48.843 33.7798C49.0368 34.3854 49.3208 34.8523 49.639 35.3492C49.9855 35.9025 50.6818 36.4761 51.5839 36.7199C52.7512 37.0425 54.0109 37.0994 55.6666 36.4761C56.9943 35.975 58.3857 34.9544 59.4554 33.8076C60.7395 32.4331 61.204 31.5525 61.6903 30.9519C62.5231 29.9355 63.8195 28.135 65.6365 26.6066C66.2721 26.0705 66.968 25.723 67.4048 25.8917C67.6674 25.2245 67.5429 24.8563 67.2636 24.6792C66.8384 24.4063 65.9881 24.8158 65.2704 25.3557C63.314 26.8166 61.6702 29.0924 60.8378 30.1105C60.3468 30.7094 59.884 31.593 58.6017 32.9662C56.5858 35.1239 53.9129 36.3643 51.3346 35.5077C49.9273 35.0413 48.9089 33.9253 48.5214 32.5546C48.4435 32.2902 48.2934 32.2159 48.1471 32.3905C47.7309 32.9038 46.8793 33.6575 46.168 34.132C46.0902 34.1872 45.8977 34.2994 45.7326 34.2184C45.5838 34.1518 45.0555 33.4162 44.952 33.2045C44.9389 33.1827 44.9301 33.1587 44.9259 33.1337V33.143C45.1115 34.048 45.1346 34.1535 45.3857 34.5719C45.6701 35.0333 45.9473 35.3605 46.0102 35.3867Z" fill="url(#paint14_linear_186_8)"/>
<path d="M30.4627 27.2562C31.1137 25.9618 32.0299 25.344 32.9307 24.7822C33.3182 24.5401 33.4902 24.3056 33.2596 23.6751C33.1942 23.495 33.1574 23.1711 33.0847 22.8843C33.1078 23.1643 32.9675 23.4051 32.7164 23.5342C31.6163 24.0875 30.2921 25.0361 29.6385 26.33C29.1072 27.3844 28.9995 28.6602 29.8087 29.8723C29.8767 29.9689 29.9503 30.0668 30.0316 30.1566H30.0324C29.7724 29.1503 30.0521 28.0664 30.4627 27.2562Z" fill="url(#paint15_linear_186_8)"/>
<path d="M41.7265 11.5385C45.7262 10.2379 50.1849 11.0603 53.7662 11.8161C54.2671 11.5078 54.7055 11.2948 55.1448 11.0573C55.3634 10.9443 55.1187 10.8098 55.0507 10.8098C50.4274 9.95401 45.6227 8.84396 41.0328 10.52C37.8513 11.6908 36.4573 14.1779 37.1302 15.8383C37.2585 16.1551 37.4634 16.4014 37.7307 16.5764C37.5061 15.045 38.6704 12.5356 41.7265 11.5385Z" fill="url(#paint16_linear_186_8)"/>
<path d="M28.7167 35.3757C30.0277 36.2867 31.3186 36.5887 32.8246 36.6148C35.8837 36.6676 38.6781 35.4221 41.6414 32.4572C44.4862 29.6103 46.9486 25.6319 49.3769 21.6894C49.4573 21.5506 49.5432 21.4886 49.95 21.4363C51.4736 21.2512 52.8385 21.1651 54.1841 21.0407C54.5853 21.0036 54.8903 20.9673 55.0374 21.1107C55.5233 21.5902 56.0888 22.0285 56.4626 22.2427C56.7111 22.2457 56.9198 22.2996 57.0657 22.4283C57.2227 22.408 57.366 22.322 57.4588 22.233C57.6333 22.0647 57.6401 21.8678 57.6115 21.7007C57.5512 21.373 57.4614 20.7273 57.3549 20.5401C57.4284 20.6826 57.3809 20.8842 57.2359 21.0458C57.1294 21.1655 56.963 21.279 56.7513 21.2765C56.5764 21.2722 56.4729 21.2132 56.253 21.0943C55.7992 20.8551 55.2389 20.4591 54.862 19.9914C54.735 19.8345 54.6696 19.8303 54.3488 19.848C52.9099 19.9306 50.6647 20.1432 49.1425 20.3317C48.7755 20.3769 48.7207 20.4448 48.6442 20.5688C46.2185 24.5139 43.629 28.7664 40.7855 31.6137C37.7362 34.6672 35.1998 35.4689 32.5094 35.4896C29.4045 35.5111 26.6418 33.7764 25.9412 30.7284V30.7301C26.3197 32.4331 27.4322 34.482 28.7167 35.3757Z" fill="url(#paint17_linear_186_8)"/>
<path d="M40.1871 22.1228C40.1192 22.0208 40.0818 21.9019 40.0793 21.7799C40.0477 22.2911 40.2568 23.0427 40.4245 23.2936C40.6088 23.5736 41.1277 23.7111 41.5383 23.4092C42.4665 22.7352 43.3044 22.3425 44.242 22.1675C44.4828 21.8423 44.7428 21.4822 45.0405 21.0773C45.0666 21.0456 45.0735 21.0035 45.0624 20.9824C45.0457 20.9457 45.0157 20.9351 44.9554 20.9326C43.5811 20.9702 42.3801 21.3755 41.2166 22.2329C40.8817 22.4741 40.3984 22.44 40.1871 22.1228Z" fill="url(#paint18_linear_186_8)"/>
<path d="M77.5962 12.8843C75.6736 13.9247 73.6646 14.2389 71.5635 14.2571C66.4843 14.298 61.7523 12.3465 56.8574 11.298C56.8642 11.5085 56.9198 11.7611 56.7402 11.8944C54.0292 13.8657 51.5779 15.8694 49.9354 18.6813C49.8811 18.7471 49.9111 18.8078 50.0064 18.8011C50.4393 18.7817 50.8581 18.7623 51.2708 18.7399C52.7666 16.4295 54.3667 15.1052 56.8099 13.3271C56.993 13.1905 57.1756 13.0956 57.1157 12.5814C62.026 13.6565 65.7601 15.4371 72.1012 15.4536C73.9935 15.4599 76.6616 14.8378 78.0971 13.9863C79.7469 13.0078 80.1857 12.2883 80.2447 11.5279C80.264 11.2904 80.2002 10.9379 80.1613 10.7561C80.1053 10.4984 80.0685 10.1694 79.9941 9.9248C80.0193 10.0243 80.0309 10.1369 80.0215 10.2605C79.9714 11.1352 79.2853 11.9758 77.5962 12.8843Z" fill="url(#paint19_linear_186_8)"/>
<path d="M56.38 16.1482C56.3197 16.2047 56.2517 16.2625 56.1846 16.3232C55.7 16.8179 55.5524 17.4729 55.6234 17.9685C55.6632 18.1701 55.7419 18.2093 55.8351 18.192C55.9311 18.171 56.0251 18.1419 56.1161 18.1051C56.1503 17.8322 56.2663 17.5674 56.546 17.3244C56.7483 17.1481 57.002 17.0663 57.2188 17.1018C57.4057 16.7365 57.4592 16.297 57.2312 16.1009C57.0122 15.9145 56.6628 15.9495 56.38 16.1482Z" fill="url(#paint20_linear_186_8)"/>
<path d="M58.3335 17.8621C57.8677 18.7406 57.0995 19.2087 56.3625 19.436C56.3625 19.436 56.2081 19.4706 56.2312 19.6098C56.2492 19.7659 56.7719 20.0923 57.0982 20.3213C57.1457 20.3087 57.2167 20.2829 57.2167 20.2829C57.5948 20.1349 58.2253 19.7557 58.5897 18.9692C58.8233 18.4618 58.9503 18.0637 58.8489 17.1927C58.7754 16.5854 58.6509 16.0363 58.4858 15.7524C58.8045 16.3889 58.6774 17.2058 58.3335 17.8621Z" fill="url(#paint21_linear_186_8)"/>
<path d="M44.6872 14.7251C43.3441 17.8385 40.7778 20.3079 37.6519 20.41C35.9038 20.4677 34.5659 19.655 33.8546 18.4155C34.3742 19.3408 35.2537 20.1523 36.0373 20.6385C36.7143 21.0544 37.5497 21.2859 38.5052 21.2543C41.7624 21.1446 44.2304 18.4977 45.0491 16.2616C45.2676 15.6585 45.097 15.0123 44.996 14.5754C44.955 14.4084 44.8989 14.0275 44.7749 13.7563H44.7736C44.866 13.9803 44.866 14.3101 44.6872 14.7251Z" fill="url(#paint22_linear_186_8)"/>
<path d="M61.9125 0C27.547 0 0 10.1567 0 22.8907C0 35.5497 27.7746 45.784 61.9129 45.784C96.0533 45.784 123.83 35.5143 123.83 22.8907C123.829 10.2697 96.0533 0 61.9125 0ZM0.424307 23.1434C0.411903 20.4644 1.60954 17.8027 4.12758 15.297C12.991 6.4811 36.2149 0.522554 61.8098 0.419646C95.7159 0.280467 123.345 10.2491 123.404 22.6411C123.416 25.3209 122.148 27.9472 119.629 30.4507C110.765 39.2683 87.6121 45.2644 62.0194 45.3648C28.1138 45.5044 0.481622 35.537 0.424307 23.1434ZM123.451 21.1232C123.473 21.2349 123.489 21.348 123.508 21.4563C123.492 21.3484 123.469 21.2362 123.451 21.1232Z" fill="#4B4B4B"/>
<path d="M0.186768 22.8905C0.186768 23.4886 0.258198 24.0824 0.38224 24.6674C0.286545 24.1653 0.236303 23.6557 0.232107 23.1448C0.22013 20.43 1.45113 17.6895 3.99013 15.1636C12.9031 6.2987 36.1506 0.333826 61.8092 0.227544C65.3645 0.211939 68.8484 0.309786 72.2437 0.51012C68.8044 0.29723 65.3592 0.190614 61.9132 0.19043C27.685 0.19043 0.186768 10.3109 0.186768 22.8905Z" fill="url(#paint23_linear_186_8)"/>
<path d="M119.767 30.5915C110.884 39.4226 87.6432 45.4499 62.0197 45.5549C58.4739 45.5728 54.9285 45.4777 51.3889 45.2698C54.8082 45.4849 58.3271 45.5937 61.9128 45.5937C95.9463 45.5937 123.636 35.348 123.636 22.8983C123.636 22.4225 123.591 21.9514 123.514 21.4824C123.57 21.8675 123.594 22.2559 123.598 22.646C123.613 25.3613 122.306 28.0656 119.767 30.5915Z" fill="url(#paint24_linear_186_8)"/>
<path d="M61.9097 2.83545C29.6423 2.83545 3.48456 11.81 3.48456 22.8861C3.48456 33.9605 29.6423 42.9367 61.9097 42.9367C94.1746 42.9367 120.329 33.9605 120.329 22.8861C120.329 11.81 94.1742 2.83545 61.9097 2.83545ZM61.9097 41.1999C30.7762 41.1999 5.53979 33.0027 5.53979 22.8857C5.53979 12.769 30.7758 4.57266 61.9097 4.57266C93.0454 4.57266 118.279 12.7695 118.279 22.8857C118.279 33.0031 93.0454 41.1999 61.9097 41.1999Z" fill="white"/>
<path d="M98.2868 16.3256C98.3676 16.186 98.2842 16.084 98.1054 16.084C97.1696 16.084 95.9467 16.0869 94.9757 16.0869C94.7435 16.0869 94.6259 16.1122 94.5164 16.3256C94.1571 17.0043 89.784 23.4651 88.97 24.719C88.8323 24.91 88.6637 24.8856 88.6445 24.6671C88.5641 23.9214 87.9101 23.0623 86.8818 22.6549C86.0974 22.3407 85.3313 22.2842 84.5366 22.3892C83.0981 22.5794 81.8175 23.3293 80.6905 24.1716C78.9919 25.4452 77.527 27.0939 75.6373 28.3123C74.6056 28.9749 73.1911 29.554 72.2462 28.6902C71.3891 27.9083 71.4879 26.1694 72.795 24.8244C72.9319 24.6857 73.0991 24.8004 73.073 24.9282C72.9486 25.5385 73.0996 26.1424 73.5679 26.565C74.1406 27.0682 74.9572 27.1281 75.6569 26.7898C76.4833 26.387 76.9679 25.6068 77.1099 24.7249C77.3289 23.3508 76.257 22.1412 74.9161 22.0446C73.8284 21.9687 72.7843 22.3424 71.7676 23.1703C71.2595 23.5878 70.9678 23.8936 70.5276 24.5149C70.419 24.6671 70.2539 24.6827 70.2603 24.4583C70.3103 22.7026 69.5742 21.7136 68.1007 21.6824C66.9578 21.6533 65.7375 22.2673 64.7849 23.0138C63.7421 23.8384 62.8302 24.9354 61.8503 25.9636C61.7297 26.0897 61.6232 26.0838 61.5907 25.8383C61.5607 24.6734 61.263 23.5461 60.7172 22.7456C60.5218 22.4677 60.1171 22.3297 59.7754 22.5179C59.6175 22.6022 59.0692 22.8519 58.6671 23.1699C58.4708 23.3314 58.3942 23.5638 58.4798 23.8624C59.0059 25.6034 58.8908 27.5785 58.1757 29.2499C57.5204 30.7762 56.244 32.1583 54.7427 32.6231C53.7559 32.9314 52.7264 32.7804 52.0904 31.9162C51.2195 30.7227 51.569 28.651 52.8727 26.9286C54.022 25.4107 55.6833 24.4474 57.3403 23.827C57.5358 23.7515 57.5764 23.6288 57.5204 23.4655C57.4306 23.1973 57.2873 22.8321 57.2283 22.6659C57.0768 22.2682 56.6495 22.2011 56.1294 22.2576C54.9254 22.396 53.8394 22.8021 52.7662 23.369C49.9569 24.8527 48.5484 27.7236 47.9299 29.2609C47.6334 30.0002 47.3785 30.4591 47.0483 30.8686C46.6048 31.4177 46.0504 31.9171 45.0324 32.7977C44.9409 32.8791 44.8742 33.0465 44.9507 33.2038C45.0542 33.4156 45.5829 34.1511 45.7313 34.2177C45.8964 34.2987 46.0889 34.1865 46.1672 34.1313C46.8785 33.6568 47.7301 32.9031 48.1463 32.3899C48.2921 32.2153 48.4423 32.2895 48.5206 32.5539C48.9081 33.9246 49.9265 35.0406 51.3337 35.5071C53.9116 36.3619 56.5841 35.1233 58.6008 32.9656C59.8827 31.5923 60.3455 30.7087 60.837 30.1099C61.6698 29.0917 63.3135 26.8151 65.2691 25.355C65.9877 24.816 66.8376 24.4052 67.2632 24.6785C67.6058 24.8978 67.717 25.4043 67.1657 26.3917C65.1716 29.985 62.2357 34.2059 61.6955 35.2266C61.5984 35.4046 61.6852 35.5454 61.8734 35.5454C62.9162 35.5404 63.9526 35.5429 64.8991 35.5429C65.0578 35.5357 65.1271 35.4636 65.2067 35.354C66.7388 32.9904 68.1798 30.7421 69.7243 28.4169C69.8103 28.2815 69.8899 28.387 69.8937 28.4448C69.9245 28.9867 70.0605 29.7231 70.3843 30.2081C70.9665 31.1039 71.7941 31.489 72.7125 31.4957C73.4426 31.5042 73.81 31.3945 74.5987 31.1039C75.1499 30.8999 75.6708 30.6238 76.1475 30.2832C76.3772 30.1259 76.4183 30.3912 76.4123 30.4325C76.059 32.308 76.494 34.532 78.3859 35.4514C80.6511 36.5522 83.1358 35.006 84.5648 33.6104C84.7055 33.4759 84.8548 33.4885 84.8698 33.7783C84.8984 34.3143 85.1448 34.9457 85.5918 35.386C86.789 36.5724 89.2091 36.1026 91.6343 34.2511C93.1938 33.0647 94.8248 31.3886 96.3 29.6147C96.3517 29.5455 96.3945 29.4338 96.2893 29.3241C96.0665 29.0926 95.7414 28.8281 95.5181 28.6232C95.4163 28.5397 95.2683 28.5637 95.1806 28.6278C93.6712 30.0424 92.3136 31.6594 90.3477 32.993C89.6852 33.451 88.63 33.8183 88.1548 33.1857C87.97 32.9403 87.9914 32.5982 88.1731 32.1537C88.748 30.7421 97.8176 17.1278 98.2868 16.3256ZM86.3014 27.7417C86.3206 27.8463 86.4575 27.9467 86.594 27.9956C86.6397 28.0142 86.6675 28.0454 86.6124 28.1559C86.2287 28.9715 85.8737 29.4401 85.3903 30.1495C84.9472 30.8032 84.4446 31.3148 83.8398 31.8053C82.9249 32.5514 81.655 33.362 80.6049 32.8158C80.1387 32.5788 79.9368 31.9352 79.9475 31.4131C79.9714 29.9475 80.6289 28.4443 81.8487 26.9665C83.3368 25.1593 84.9831 24.2226 86.0627 24.7333C87.1787 25.2588 86.8228 26.5346 86.3232 27.5367C86.2847 27.6126 86.2804 27.6793 86.3014 27.7417Z" fill="white"/>
<path d="M32.5115 35.4917C29.1303 35.5157 26.1533 33.4529 25.8107 29.8882C25.6212 27.9123 26.1876 26.1494 27.3219 24.6981C28.3279 23.405 30.0328 22.3312 31.4717 22.0681C31.9435 21.9841 32.5731 22.039 32.8349 22.3443C33.2429 22.8137 33.124 23.33 32.7177 23.5345C31.6176 24.0878 30.2933 25.0364 29.6398 26.3303C29.1085 27.3847 29.0007 28.6605 29.81 29.8726C31.1697 31.8928 34.9534 31.9498 38.4724 28.725C39.3445 27.9351 40.1238 27.1772 40.9185 26.281C42.4678 24.532 42.9823 23.8938 45.0431 21.0769C45.0692 21.0453 45.0761 21.0031 45.0649 20.982C45.0483 20.9454 45.0183 20.9348 44.958 20.9323C43.5837 20.9698 42.3835 21.3751 41.2192 22.2325C40.8835 22.4734 40.4001 22.4392 40.1888 22.122C39.954 21.7627 40.1221 21.295 40.5096 21.0318C42.3835 19.7471 44.4323 19.5127 46.5243 19.1639C46.5231 19.1639 46.6706 19.1698 46.7891 19.0137C47.6476 17.9281 48.2956 16.948 49.2122 15.848C50.1348 14.7337 51.3252 13.7123 52.2358 12.9409C53.5066 11.8629 54.3214 11.5006 55.1495 11.0565C55.3681 10.9434 55.123 10.8089 55.055 10.8089C50.4317 9.95316 45.627 8.8431 41.0366 10.5192C37.8556 11.6899 36.4612 14.177 37.134 15.8375C37.6088 17.0159 39.1815 17.2069 40.6529 16.4975C41.9382 15.872 43.0285 14.916 43.8087 13.7304C44.2565 13.0501 45.201 13.5406 44.6907 14.7232C43.3476 17.8366 40.7812 20.306 37.6554 20.408C34.9936 20.4949 33.2763 18.5654 33.2831 16.1837C33.2921 11.4862 38.5973 8.39225 44.1693 7.92916C50.8808 7.38341 57.2377 9.14634 63.9 9.94304C69.0062 10.5516 73.902 10.5643 79.033 9.40277C79.6387 9.27287 80.0664 9.65372 80.0245 10.2581C79.9744 11.1315 79.2879 11.9721 77.5993 12.8814C75.6762 13.9219 73.6672 14.2361 71.5666 14.2542C66.4873 14.2951 61.7553 12.3437 56.8604 11.2952C56.8673 11.5056 56.9229 11.7583 56.7432 11.8915C54.0323 13.8628 51.581 15.8666 49.9385 18.6784C49.8842 18.7442 49.9141 18.8049 50.0095 18.7982C51.4347 18.7244 52.7179 18.689 54.0472 18.5839C54.2791 18.565 54.2876 18.5085 54.2684 18.3406C54.1516 17.371 54.4378 16.2647 55.3026 15.5035C56.1872 14.7219 57.2958 14.6334 58.0298 15.1951C58.8652 15.8375 58.7916 16.9927 58.3357 17.859C57.8699 18.7375 57.1017 19.2056 56.3647 19.4329C56.3647 19.4329 56.2103 19.4675 56.2334 19.6067C56.262 19.8269 57.2668 20.3768 57.3527 20.5232C57.4357 20.6611 57.3942 20.877 57.2394 21.0419C57.1329 21.1617 56.9665 21.2752 56.7548 21.2722C56.5798 21.2684 56.4763 21.2094 56.2565 21.0904C55.8031 20.8509 55.2423 20.4553 54.8655 19.9875C54.7384 19.8307 54.673 19.8264 54.3522 19.8442C52.9133 19.9268 50.6682 20.1394 49.1459 20.3279C48.7789 20.373 48.7242 20.4409 48.6476 20.5649C46.2219 24.51 43.6325 28.7626 40.7889 31.6098C37.7384 34.6684 35.2019 35.4697 32.5115 35.4917ZM55.6238 17.9686C55.6636 18.1702 55.7423 18.2094 55.8356 18.1921C56.2971 18.101 56.8018 17.7257 57.1021 17.293C57.3758 16.8986 57.5029 16.3297 57.2317 16.1011C56.99 15.8974 56.5969 15.9564 56.3048 16.2099C55.7261 16.7156 55.5503 17.4321 55.6238 17.9686Z" fill="white"/>
<defs>
<radialGradient id="paint0_radial_186_8" cx="0" cy="0" r="1" gradientUnits="userSpaceOnUse" gradientTransform="translate(61.5042 75.5327) scale(266.781 133.605)">
<stop stop-color="#00082E"/>
<stop offset="0.155" stop-color="#000A30"/>
<stop offset="0.242" stop-color="#010F39"/>
<stop offset="0.312" stop-color="#011946"/>
<stop offset="0.373" stop-color="#02275A"/>
<stop offset="0.414" stop-color="#03346C"/>
<stop offset="0.439" stop-color="#0B4F87"/>
<stop offset="0.48" stop-color="#1676AF"/>
<stop offset="0.513" stop-color="#1C8EC7"/>
<stop offset="0.533" stop-color="#1F97D0"/>
<stop offset="1" stop-color="#1F97D0"/>
</radialGradient>
<linearGradient id="paint1_linear_186_8" x1="61.8013" y1="46.2879" x2="61.8013" y2="-0.215526" gradientUnits="userSpaceOnUse">
<stop stop-color="#00082E"/>
<stop offset="0.321" stop-color="#010A30"/>
<stop offset="0.501" stop-color="#030F39"/>
<stop offset="0.647" stop-color="#071846"/>
<stop offset="0.773" stop-color="#0D245A"/>
<stop offset="0.809" stop-color="#0F2961"/>
<stop offset="0.839" stop-color="#0B386E"/>
<stop offset="0.896" stop-color="#054E83"/>
<stop offset="0.951" stop-color="#015B90"/>
<stop offset="1" stop-color="#006094"/>
</linearGradient>
<linearGradient id="paint2_linear_186_8" x1="11258.1" y1="46.2987" x2="11258.1" y2="-0.247407" gradientUnits="userSpaceOnUse">
<stop stop-color="#00082E"/>
<stop offset="0.321" stop-color="#010A30"/>
<stop offset="0.501" stop-color="#030F39"/>
<stop offset="0.647" stop-color="#071846"/>
<stop offset="0.773" stop-color="#0D245A"/>
<stop offset="0.809" stop-color="#0F2961"/>
<stop offset="0.839" stop-color="#0B386E"/>
<stop offset="0.896" stop-color="#054E83"/>
<stop offset="0.951" stop-color="#015B90"/>
<stop offset="1" stop-color="#006094"/>
</linearGradient>
<linearGradient id="paint3_linear_186_8" x1="72.4861" y1="38.4032" x2="72.4861" y2="5.72904" gradientUnits="userSpaceOnUse">
<stop stop-color="#00082E"/>
<stop offset="0.321" stop-color="#010A30"/>
<stop offset="0.501" stop-color="#030F39"/>
<stop offset="0.647" stop-color="#071846"/>
<stop offset="0.773" stop-color="#0D245A"/>
<stop offset="0.809" stop-color="#0F2961"/>
<stop offset="0.839" stop-color="#0B386E"/>
<stop offset="0.896" stop-color="#054E83"/>
<stop offset="0.951" stop-color="#015B90"/>
<stop offset="1" stop-color="#006094"/>
</linearGradient>
<linearGradient id="paint4_linear_186_8" x1="86.4737" y1="38.3524" x2="86.4737" y2="5.89257" gradientUnits="userSpaceOnUse">
<stop stop-color="#00082E"/>
<stop offset="0.321" stop-color="#010A30"/>
<stop offset="0.501" stop-color="#030F39"/>
<stop offset="0.647" stop-color="#071846"/>
<stop offset="0.773" stop-color="#0D245A"/>
<stop offset="0.809" stop-color="#0F2961"/>
<stop offset="0.839" stop-color="#0B386E"/>
<stop offset="0.896" stop-color="#054E83"/>
<stop offset="0.951" stop-color="#015B90"/>
<stop offset="1" stop-color="#006094"/>
</linearGradient>
<linearGradient id="paint5_linear_186_8" x1="88.5017" y1="38.2589" x2="88.5017" y2="5.95914" gradientUnits="userSpaceOnUse">
<stop stop-color="#00082E"/>
<stop offset="0.321" stop-color="#010A30"/>
<stop offset="0.501" stop-color="#030F39"/>
<stop offset="0.647" stop-color="#071846"/>
<stop offset="0.773" stop-color="#0D245A"/>
<stop offset="0.809" stop-color="#0F2961"/>
<stop offset="0.839" stop-color="#0B386E"/>
<stop offset="0.896" stop-color="#054E83"/>
<stop offset="0.951" stop-color="#015B90"/>
<stop offset="1" stop-color="#006094"/>
</linearGradient>
<linearGradient id="paint6_linear_186_8" x1="70.2303" y1="38.4741" x2="70.2303" y2="5.72381" gradientUnits="userSpaceOnUse">
<stop stop-color="#00082E"/>
<stop offset="0.321" stop-color="#010A30"/>
<stop offset="0.501" stop-color="#030F39"/>
<stop offset="0.647" stop-color="#071846"/>
<stop offset="0.773" stop-color="#0D245A"/>
<stop offset="0.809" stop-color="#0F2961"/>
<stop offset="0.839" stop-color="#0B386E"/>
<stop offset="0.896" stop-color="#054E83"/>
<stop offset="0.951" stop-color="#015B90"/>
<stop offset="1" stop-color="#006094"/>
</linearGradient>
<linearGradient id="paint7_linear_186_8" x1="83.3694" y1="38.398" x2="83.3694" y2="5.77537" gradientUnits="userSpaceOnUse">
<stop stop-color="#00082E"/>
<stop offset="0.321" stop-color="#010A30"/>
<stop offset="0.501" stop-color="#030F39"/>
<stop offset="0.647" stop-color="#071846"/>
<stop offset="0.773" stop-color="#0D245A"/>
<stop offset="0.809" stop-color="#0F2961"/>
<stop offset="0.839" stop-color="#0B386E"/>
<stop offset="0.896" stop-color="#054E83"/>
<stop offset="0.951" stop-color="#015B90"/>
<stop offset="1" stop-color="#006094"/>
</linearGradient>
<linearGradient id="paint8_linear_186_8" x1="54.7552" y1="38.3748" x2="54.7552" y2="5.78641" gradientUnits="userSpaceOnUse">
<stop stop-color="#00082E"/>
<stop offset="0.321" stop-color="#010A30"/>
<stop offset="0.501" stop-color="#030F39"/>
<stop offset="0.647" stop-color="#071846"/>
<stop offset="0.773" stop-color="#0D245A"/>
<stop offset="0.809" stop-color="#0F2961"/>
<stop offset="0.839" stop-color="#0B386E"/>
<stop offset="0.896" stop-color="#054E83"/>
<stop offset="0.951" stop-color="#015B90"/>
<stop offset="1" stop-color="#006094"/>
</linearGradient>
<linearGradient id="paint9_linear_186_8" x1="69.0359" y1="38.399" x2="69.0359" y2="5.75192" gradientUnits="userSpaceOnUse">
<stop stop-color="#00082E"/>
<stop offset="0.321" stop-color="#010A30"/>
<stop offset="0.501" stop-color="#030F39"/>
<stop offset="0.647" stop-color="#071846"/>
<stop offset="0.773" stop-color="#0D245A"/>
<stop offset="0.809" stop-color="#0F2961"/>
<stop offset="0.839" stop-color="#0B386E"/>
<stop offset="0.896" stop-color="#054E83"/>
<stop offset="0.951" stop-color="#015B90"/>
<stop offset="1" stop-color="#006094"/>
</linearGradient>
<linearGradient id="paint10_linear_186_8" x1="86.5457" y1="38.4764" x2="86.5457" y2="5.58295" gradientUnits="userSpaceOnUse">
<stop stop-color="#00082E"/>
<stop offset="0.321" stop-color="#010A30"/>
<stop offset="0.501" stop-color="#030F39"/>
<stop offset="0.647" stop-color="#071846"/>
<stop offset="0.773" stop-color="#0D245A"/>
<stop offset="0.809" stop-color="#0F2961"/>
<stop offset="0.839" stop-color="#0B386E"/>
<stop offset="0.896" stop-color="#054E83"/>
<stop offset="0.951" stop-color="#015B90"/>
<stop offset="1" stop-color="#006094"/>
</linearGradient>
<linearGradient id="paint11_linear_186_8" x1="75.3011" y1="38.5057" x2="75.3011" y2="5.69485" gradientUnits="userSpaceOnUse">
<stop stop-color="#00082E"/>
<stop offset="0.321" stop-color="#010A30"/>
<stop offset="0.501" stop-color="#030F39"/>
<stop offset="0.647" stop-color="#071846"/>
<stop offset="0.773" stop-color="#0D245A"/>
<stop offset="0.809" stop-color="#0F2961"/>
<stop offset="0.839" stop-color="#0B386E"/>
<stop offset="0.896" stop-color="#054E83"/>
<stop offset="0.951" stop-color="#015B90"/>
<stop offset="1" stop-color="#006094"/>
</linearGradient>
<linearGradient id="paint12_linear_186_8" x1="93.3378" y1="38.4089" x2="93.3378" y2="5.81205" gradientUnits="userSpaceOnUse">
<stop stop-color="#00082E"/>
<stop offset="0.321" stop-color="#010A30"/>
<stop offset="0.501" stop-color="#030F39"/>
<stop offset="0.647" stop-color="#071846"/>
<stop offset="0.773" stop-color="#0D245A"/>
<stop offset="0.809" stop-color="#0F2961"/>
<stop offset="0.839" stop-color="#0B386E"/>
<stop offset="0.896" stop-color="#054E83"/>
<stop offset="0.951" stop-color="#015B90"/>
<stop offset="1" stop-color="#006094"/>
</linearGradient>
<linearGradient id="paint13_linear_186_8" x1="61.4137" y1="38.4279" x2="61.4137" y2="5.74458" gradientUnits="userSpaceOnUse">
<stop stop-color="#00082E"/>
<stop offset="0.321" stop-color="#010A30"/>
<stop offset="0.501" stop-color="#030F39"/>
<stop offset="0.647" stop-color="#071846"/>
<stop offset="0.773" stop-color="#0D245A"/>
<stop offset="0.809" stop-color="#0F2961"/>
<stop offset="0.839" stop-color="#0B386E"/>
<stop offset="0.896" stop-color="#054E83"/>
<stop offset="0.951" stop-color="#015B90"/>
<stop offset="1" stop-color="#006094"/>
</linearGradient>
<linearGradient id="paint14_linear_186_8" x1="56.252" y1="38.4034" x2="56.252" y2="5.80218" gradientUnits="userSpaceOnUse">
<stop stop-color="#00082E"/>
<stop offset="0.321" stop-color="#010A30"/>
<stop offset="0.501" stop-color="#030F39"/>
<stop offset="0.647" stop-color="#071846"/>
<stop offset="0.773" stop-color="#0D245A"/>
<stop offset="0.809" stop-color="#0F2961"/>
<stop offset="0.839" stop-color="#0B386E"/>
<stop offset="0.896" stop-color="#054E83"/>
<stop offset="0.951" stop-color="#015B90"/>
<stop offset="1" stop-color="#006094"/>
</linearGradient>
<linearGradient id="paint15_linear_186_8" x1="31.2874" y1="38.4138" x2="31.2874" y2="5.78967" gradientUnits="userSpaceOnUse">
<stop stop-color="#00082E"/>
<stop offset="0.321" stop-color="#010A30"/>
<stop offset="0.501" stop-color="#030F39"/>
<stop offset="0.647" stop-color="#071846"/>
<stop offset="0.773" stop-color="#0D245A"/>
<stop offset="0.809" stop-color="#0F2961"/>
<stop offset="0.839" stop-color="#0B386E"/>
<stop offset="0.896" stop-color="#054E83"/>
<stop offset="0.951" stop-color="#015B90"/>
<stop offset="1" stop-color="#006094"/>
</linearGradient>
<linearGradient id="paint16_linear_186_8" x1="46.0991" y1="38.5988" x2="46.0991" y2="5.66564" gradientUnits="userSpaceOnUse">
<stop stop-color="#00082E"/>
<stop offset="0.321" stop-color="#010A30"/>
<stop offset="0.501" stop-color="#030F39"/>
<stop offset="0.647" stop-color="#071846"/>
<stop offset="0.773" stop-color="#0D245A"/>
<stop offset="0.809" stop-color="#0F2961"/>
<stop offset="0.839" stop-color="#0B386E"/>
<stop offset="0.896" stop-color="#054E83"/>
<stop offset="0.951" stop-color="#015B90"/>
<stop offset="1" stop-color="#006094"/>
</linearGradient>
<linearGradient id="paint17_linear_186_8" x1="41.7821" y1="38.4079" x2="41.7821" y2="5.77585" gradientUnits="userSpaceOnUse">
<stop stop-color="#00082E"/>
<stop offset="0.321" stop-color="#010A30"/>
<stop offset="0.501" stop-color="#030F39"/>
<stop offset="0.647" stop-color="#071846"/>
<stop offset="0.773" stop-color="#0D245A"/>
<stop offset="0.809" stop-color="#0F2961"/>
<stop offset="0.839" stop-color="#0B386E"/>
<stop offset="0.896" stop-color="#054E83"/>
<stop offset="0.951" stop-color="#015B90"/>
<stop offset="1" stop-color="#006094"/>
</linearGradient>
<linearGradient id="paint18_linear_186_8" x1="42.5737" y1="38.4844" x2="42.5737" y2="5.7386" gradientUnits="userSpaceOnUse">
<stop stop-color="#00082E"/>
<stop offset="0.321" stop-color="#010A30"/>
<stop offset="0.501" stop-color="#030F39"/>
<stop offset="0.647" stop-color="#071846"/>
<stop offset="0.773" stop-color="#0D245A"/>
<stop offset="0.809" stop-color="#0F2961"/>
<stop offset="0.839" stop-color="#0B386E"/>
<stop offset="0.896" stop-color="#054E83"/>
<stop offset="0.951" stop-color="#015B90"/>
<stop offset="1" stop-color="#006094"/>
</linearGradient>
<linearGradient id="paint19_linear_186_8" x1="65.0852" y1="38.4283" x2="65.0852" y2="5.77354" gradientUnits="userSpaceOnUse">
<stop stop-color="#00082E"/>
<stop offset="0.321" stop-color="#010A30"/>
<stop offset="0.501" stop-color="#030F39"/>
<stop offset="0.647" stop-color="#071846"/>
<stop offset="0.773" stop-color="#0D245A"/>
<stop offset="0.809" stop-color="#0F2961"/>
<stop offset="0.839" stop-color="#0B386E"/>
<stop offset="0.896" stop-color="#054E83"/>
<stop offset="0.951" stop-color="#015B90"/>
<stop offset="1" stop-color="#006094"/>
</linearGradient>
<linearGradient id="paint20_linear_186_8" x1="56.4824" y1="38.4364" x2="56.4824" y2="5.76785" gradientUnits="userSpaceOnUse">
<stop stop-color="#00082E"/>
<stop offset="0.321" stop-color="#010A30"/>
<stop offset="0.501" stop-color="#030F39"/>
<stop offset="0.647" stop-color="#071846"/>
<stop offset="0.773" stop-color="#0D245A"/>
<stop offset="0.809" stop-color="#0F2961"/>
<stop offset="0.839" stop-color="#0B386E"/>
<stop offset="0.896" stop-color="#054E83"/>
<stop offset="0.951" stop-color="#015B90"/>
<stop offset="1" stop-color="#006094"/>
</linearGradient>
<linearGradient id="paint21_linear_186_8" x1="57.5715" y1="38.4097" x2="57.5715" y2="5.79095" gradientUnits="userSpaceOnUse">
<stop stop-color="#00082E"/>
<stop offset="0.321" stop-color="#010A30"/>
<stop offset="0.501" stop-color="#030F39"/>
<stop offset="0.647" stop-color="#071846"/>
<stop offset="0.773" stop-color="#0D245A"/>
<stop offset="0.809" stop-color="#0F2961"/>
<stop offset="0.839" stop-color="#0B386E"/>
<stop offset="0.896" stop-color="#054E83"/>
<stop offset="0.951" stop-color="#015B90"/>
<stop offset="1" stop-color="#006094"/>
</linearGradient>
<linearGradient id="paint22_linear_186_8" x1="39.5117" y1="38.4747" x2="39.5117" y2="5.77852" gradientUnits="userSpaceOnUse">
<stop stop-color="#00082E"/>
<stop offset="0.321" stop-color="#010A30"/>
<stop offset="0.501" stop-color="#030F39"/>
<stop offset="0.647" stop-color="#071846"/>
<stop offset="0.773" stop-color="#0D245A"/>
<stop offset="0.809" stop-color="#0F2961"/>
<stop offset="0.839" stop-color="#0B386E"/>
<stop offset="0.896" stop-color="#054E83"/>
<stop offset="0.951" stop-color="#015B90"/>
<stop offset="1" stop-color="#006094"/>
</linearGradient>
<linearGradient id="paint23_linear_186_8" x1="48.3497" y1="56.7405" x2="34.4115" y2="3.98545" gradientUnits="userSpaceOnUse">
<stop stop-color="#A5A5A6"/>
<stop offset="0.35" stop-color="#D7D7D7"/>
<stop offset="0.65" stop-color="#D7D7D7"/>
<stop offset="1" stop-color="#A5A5A6"/>
</linearGradient>
<linearGradient id="paint24_linear_186_8" x1="85.8891" y1="27.6265" x2="71.9813" y2="-25.0126" gradientUnits="userSpaceOnUse">
<stop stop-color="#A5A5A6"/>
<stop offset="0.35" stop-color="#D7D7D7"/>
<stop offset="0.65" stop-color="#D7D7D7"/>
<stop offset="1" stop-color="#A5A5A6"/>
</linearGradient>
</defs>
</svg>
