<svg width="73" height="66" viewBox="0 0 73 66" fill="none" xmlns="http://www.w3.org/2000/svg">
<rect width="73" height="66" rx="10" fill="#F6F6F6"/>
<path d="M44.107 29.5239H29.8929C29.5783 29.5239 29.3233 29.779 29.3233 30.0936C29.3233 30.4082 29.5783 30.6632 29.8929 30.6632H44.107C44.4216 30.6632 44.6767 30.4082 44.6767 30.0936C44.6767 29.779 44.4216 29.5239 44.107 29.5239Z" fill="#FF3600"/>
<path d="M23.9547 32.1062H21.8494C21.5348 32.1062 21.2798 32.3612 21.2798 32.6758C21.2798 32.9904 21.5348 33.2455 21.8494 33.2455H23.9547C24.995 33.2455 25.8722 33.9573 26.125 34.9195H21.9953C21.6807 34.9195 21.4257 35.1745 21.4257 35.4891C21.4257 35.8037 21.6807 36.0587 21.9953 36.0587H26.7678C27.0824 36.0587 27.3374 35.8037 27.3374 35.4891C27.3375 33.6237 25.82 32.1062 23.9547 32.1062Z" fill="#FF3600"/>
<path d="M50.0452 33.2455H52.1504C52.465 33.2455 52.7201 32.9904 52.7201 32.6758C52.7201 32.3612 52.465 32.1062 52.1504 32.1062H50.0452C48.1799 32.1062 46.6624 33.6237 46.6624 35.4891C46.6624 35.8037 46.9174 36.0587 47.232 36.0587H52.0045C52.319 36.0587 52.5741 35.8037 52.5741 35.4891C52.5741 35.1745 52.319 34.9195 52.0045 34.9195H47.8749C48.1276 33.9573 49.0049 33.2455 50.0452 33.2455Z" fill="#FF3600"/>
<path d="M53.8374 29.6028C53.0389 28.7683 51.9546 28.3087 50.7841 28.3087C50.7329 28.3087 50.6818 28.3156 50.6325 28.3293L48.8018 28.8351L46.105 23.6541C45.6221 22.7266 44.4248 22 43.3793 22H30.6205C29.5749 22 28.3777 22.7266 27.8948 23.6541L25.198 28.8351L23.3673 28.3293C23.318 28.3156 23.2669 28.3087 23.2157 28.3087C22.0452 28.3087 20.9608 28.7683 20.1624 29.6028C19.364 30.4373 18.9526 31.5409 19.0043 32.7136L19.4178 40.9559C19.4329 41.259 19.6832 41.497 19.9867 41.497H20.1766V43.9845C20.1766 44.2991 20.4316 44.5541 20.7462 44.5541H26.7397C27.0543 44.5541 27.3093 44.2991 27.3093 43.9845V43.206C27.3093 42.8914 27.0543 42.6363 26.7397 42.6363C26.4251 42.6363 26.17 42.8914 26.17 43.206V43.4148H21.3158V41.497H52.684V43.4148H47.8298V43.206C47.8298 42.8914 47.5748 42.6363 47.2602 42.6363C46.9456 42.6363 46.6905 42.8914 46.6905 43.206V43.9845C46.6905 44.2991 46.9456 44.5541 47.2602 44.5541H53.2536C53.5682 44.5541 53.8233 44.2991 53.8233 43.9845V41.497H54.0132C54.3167 41.497 54.5669 41.2591 54.5821 40.9559L54.9956 32.7103C55.0472 31.5409 54.6359 30.4373 53.8374 29.6028ZM53.8576 32.6566L53.4714 40.3577H20.5285L20.1424 32.66C20.1047 31.8042 20.4041 30.9982 20.9856 30.3905C21.5503 29.8004 22.3134 29.4677 23.1415 29.449L25.3331 30.0545C25.3344 30.0549 25.3358 30.0552 25.3372 30.0556L27.4627 30.6428C27.7658 30.7266 28.0796 30.5487 28.1634 30.2454C28.2472 29.9422 28.0693 29.6285 27.766 29.5447L26.321 29.1455L28.9055 24.1803C29.1941 23.6258 29.9955 23.1394 30.6206 23.1394H43.3793C44.0043 23.1394 44.8059 23.6258 45.0945 24.1803L47.679 29.1455L46.2339 29.5447C45.9306 29.6285 45.7528 29.9422 45.8365 30.2454C45.9203 30.5487 46.2341 30.7265 46.5373 30.6428L50.8584 29.449C51.6865 29.4678 52.4497 29.8004 53.0143 30.3905C53.5958 30.9982 53.8952 31.8042 53.8576 32.6566Z" fill="#FF3600"/>
<path d="M50.7841 27.1693H52.7686C53.0832 27.1693 53.3382 26.9143 53.3382 26.5997C53.3382 26.2851 53.0832 26.03 52.7686 26.03H50.7841C50.4695 26.03 50.2145 26.2851 50.2145 26.5997C50.2145 26.9143 50.4695 27.1693 50.7841 27.1693Z" fill="#FF3600"/>
<path d="M21.2312 27.1693H23.2157C23.5303 27.1693 23.7853 26.9143 23.7853 26.5997C23.7853 26.2851 23.5303 26.03 23.2157 26.03H21.2312C20.9166 26.03 20.6615 26.2851 20.6615 26.5997C20.6615 26.9143 20.9166 27.1693 21.2312 27.1693Z" fill="#FF3600"/>
<path d="M43.318 36.5569H30.6818C30.3672 36.5569 30.1122 36.8119 30.1122 37.1265V38.649C30.1122 38.9636 30.3672 39.2186 30.6818 39.2186C30.9964 39.2186 31.2515 38.9636 31.2515 38.649V37.6962H42.7484V38.649C42.7484 38.9636 43.0035 39.2186 43.318 39.2186C43.6326 39.2186 43.8877 38.9636 43.8877 38.649V37.1265C43.8877 36.8119 43.6326 36.5569 43.318 36.5569Z" fill="#FF3600"/>
<path d="M40.159 33.7013C40.4736 33.7013 40.7286 33.4462 40.7286 33.1317C40.7286 32.8171 40.4736 32.562 40.159 32.562H33.8408C33.5262 32.562 33.2712 32.8171 33.2712 33.1317C33.2712 33.4462 33.5262 33.7013 33.8408 33.7013H40.159Z" fill="#FF3600"/>
</svg>
