<svg width="24" height="24" viewBox="0 0 24 24" fill="none" xmlns="http://www.w3.org/2000/svg">
<g clip-path="url(#clip0_116_47)">
<path d="M20.4844 0C18.5459 0 16.9688 1.57711 16.9688 3.51562C16.9688 5.21339 18.1785 6.63384 19.7812 6.96052V10.5938C19.7812 10.9815 19.4658 11.2969 19.0781 11.2969H12.7031V6.96052C14.3059 6.63389 15.5156 5.21344 15.5156 3.51562C15.5156 1.57711 13.9385 0 12 0C10.0615 0 8.48438 1.57711 8.48438 3.51562C8.48438 5.21339 9.69413 6.63384 11.2969 6.96052V11.2969H4.21875V6.96052C5.8215 6.63389 7.03125 5.21344 7.03125 3.51562C7.03125 1.57711 5.45414 0 3.51562 0C1.57711 0 0 1.57711 0 3.51562C0 5.21339 1.20975 6.63384 2.8125 6.96052V17.0395C1.20975 17.3662 0 18.7866 0 20.4844C0 22.4229 1.57711 24 3.51562 24C5.45414 24 7.03125 22.4229 7.03125 20.4844C7.03125 18.7866 5.8215 17.3662 4.21875 17.0395V12.7031H11.2969V17.0395C9.69413 17.3661 8.48438 18.7866 8.48438 20.4844C8.48438 22.4229 10.0615 24 12 24C13.9385 24 15.5156 22.4229 15.5156 20.4844C15.5156 18.7866 14.3059 17.3662 12.7031 17.0395V12.7031H19.0781C20.2412 12.7031 21.1875 11.7569 21.1875 10.5938V6.96052C22.7903 6.63389 24 5.21344 24 3.51562C24 1.57711 22.4229 0 20.4844 0ZM5.625 20.4844C5.625 21.6475 4.67873 22.5938 3.51562 22.5938C2.35252 22.5938 1.40625 21.6475 1.40625 20.4844C1.40625 19.3213 2.35252 18.375 3.51562 18.375C4.67873 18.375 5.625 19.3213 5.625 20.4844ZM3.51562 5.625C2.35252 5.625 1.40625 4.67873 1.40625 3.51562C1.40625 2.35252 2.35252 1.40625 3.51562 1.40625C4.67873 1.40625 5.625 2.35252 5.625 3.51562C5.625 4.67873 4.67873 5.625 3.51562 5.625ZM14.1094 20.4844C14.1094 21.6475 13.1631 22.5938 12 22.5938C10.8369 22.5938 9.89062 21.6475 9.89062 20.4844C9.89062 19.3213 10.8369 18.375 12 18.375C13.1631 18.375 14.1094 19.3213 14.1094 20.4844ZM12 5.625C10.8369 5.625 9.89062 4.67873 9.89062 3.51562C9.89062 2.35252 10.8369 1.40625 12 1.40625C13.1631 1.40625 14.1094 2.35252 14.1094 3.51562C14.1094 4.67873 13.1631 5.625 12 5.625ZM20.4844 5.625C19.3213 5.625 18.375 4.67873 18.375 3.51562C18.375 2.35252 19.3213 1.40625 20.4844 1.40625C21.6475 1.40625 22.5938 2.35252 22.5938 3.51562C22.5938 4.67873 21.6475 5.625 20.4844 5.625Z" fill="#FF3600"/>
</g>
<defs>
<clipPath id="clip0_116_47">
<rect width="24" height="24" fill="white"/>
</clipPath>
</defs>
</svg>
