<svg width="73" height="66" viewBox="0 0 73 66" fill="none" xmlns="http://www.w3.org/2000/svg">
<rect width="73" height="66" rx="10" fill="#F6F6F6"/>
<path d="M26.9921 37.4729C26.9921 39.4208 25.4131 41 23.465 41C21.5171 41 19.938 39.4208 19.938 37.4729C19.938 35.5249 21.5171 33.9457 23.465 33.9457C25.4131 33.9457 26.9921 35.5249 26.9921 37.4729Z" stroke="#FF3600" stroke-width="1.5" stroke-miterlimit="10" stroke-linecap="round" stroke-linejoin="round"/>
<path d="M26.9921 38.8838H47.4493" stroke="#FF3600" stroke-width="1.5" stroke-miterlimit="10" stroke-linecap="round" stroke-linejoin="round"/>
<path d="M23.9639 36.9741L22.9663 37.9717" stroke="#FF3600" stroke-width="1.5" stroke-miterlimit="10" stroke-linecap="round" stroke-linejoin="round"/>
<path d="M54.5035 37.4729C54.5035 39.4208 52.9244 41 50.9763 41C49.0284 41 47.4493 39.4208 47.4493 37.4729C47.4493 35.5249 49.0284 33.9457 50.9763 33.9457C52.9244 33.9457 54.5035 35.5249 54.5035 37.4729Z" stroke="#FF3600" stroke-width="1.5" stroke-miterlimit="10" stroke-linecap="round" stroke-linejoin="round"/>
<path d="M50.4776 36.9741L51.4752 37.9717" stroke="#FF3600" stroke-width="1.5" stroke-miterlimit="10" stroke-linecap="round" stroke-linejoin="round"/>
<path d="M19.938 38.1784L16.5349 37.2061C15.6264 36.9465 15 36.1161 15 35.1712V30.9588C15 30.2473 15.5299 29.6471 16.2359 29.5589L18.8449 29.2327C20.0352 29.0839 21.1916 28.7339 22.2645 28.1973L25.6123 26.5235C26.9836 25.8378 28.4958 25.4809 30.0289 25.4809H36.3138C38.0579 25.4809 39.7657 25.9782 41.2372 26.9146L46.7439 30.4188C46.7439 30.4188 53.1384 30.4188 57.1277 32.2714C58.1156 32.7302 58.736 33.7326 58.736 34.822V37.1638C58.736 38.2558 58.1043 38.8838 57.3252 38.8838" stroke="#FF3600" stroke-width="1.5" stroke-miterlimit="10" stroke-linecap="round" stroke-linejoin="round"/>
<path d="M28.403 30.4189H27.0423C26.1069 30.4189 25.2097 30.0473 24.5482 29.3858L23.465 28.3027" stroke="#FF3600" stroke-width="1.5" stroke-miterlimit="10" stroke-linecap="round" stroke-linejoin="round"/>
<path d="M46.7439 30.4189H31.2247" stroke="#FF3600" stroke-width="1.5" stroke-miterlimit="10" stroke-linecap="round" stroke-linejoin="round"/>
<path d="M29.8138 36.062H44.6276" stroke="#FF3600" stroke-width="1.5" stroke-miterlimit="10" stroke-linecap="round" stroke-linejoin="round"/>
<path d="M15 32.5349H16.4108" stroke="#FF3600" stroke-width="1.5" stroke-miterlimit="10" stroke-linecap="round" stroke-linejoin="round"/>
<path d="M56.6197 33.9458H58.3245" stroke="#FF3600" stroke-width="1.5" stroke-miterlimit="10" stroke-linecap="round" stroke-linejoin="round"/>
<path d="M34.0463 30.4189V25.481" stroke="#FF3600" stroke-width="1.5" stroke-miterlimit="10" stroke-linecap="round" stroke-linejoin="round"/>
<path d="M25.934 30.1321L26.8524 26.0755" stroke="#FF3600" stroke-width="1.5" stroke-miterlimit="10" stroke-linecap="round" stroke-linejoin="round"/>
</svg>
