<svg width="28" height="28" viewBox="0 0 28 28" fill="none" xmlns="http://www.w3.org/2000/svg">
<path d="M13.8005 13.4877C15.6534 13.4877 17.2578 12.8231 18.569 11.5119C19.8798 10.2009 20.5446 8.59682 20.5446 6.74364C20.5446 4.8911 19.88 3.2868 18.5688 1.97537C17.2575 0.66458 15.6532 0 13.8005 0C11.9473 0 10.3432 0.66458 9.0322 1.97558C7.72119 3.28658 7.0564 4.89089 7.0564 6.74364C7.0564 8.59682 7.72119 10.2011 9.0322 11.5121C10.3436 12.8229 11.9479 13.4877 13.8005 13.4877ZM10.1926 3.13577C11.1985 2.12982 12.3786 1.64084 13.8005 1.64084C15.2221 1.64084 16.4024 2.12982 17.4086 3.13577C18.4145 4.14193 18.9037 5.32219 18.9037 6.74364C18.9037 8.16551 18.4145 9.34556 17.4086 10.3517C16.4024 11.3579 15.2221 11.8469 13.8005 11.8469C12.379 11.8469 11.199 11.3577 10.1926 10.3517C9.18643 9.34578 8.69724 8.16551 8.69724 6.74364C8.69724 5.32219 9.18643 4.14193 10.1926 3.13577Z" fill="#FF3600"/>
<path d="M25.6008 21.5307C25.563 20.9851 25.4865 20.3899 25.3739 19.7614C25.2603 19.1283 25.114 18.5297 24.9388 17.9826C24.7576 17.4171 24.5117 16.8587 24.2073 16.3236C23.8918 15.7682 23.521 15.2845 23.1048 14.8866C22.6697 14.4702 22.1369 14.1355 21.5208 13.8913C20.9069 13.6484 20.2265 13.5254 19.4987 13.5254C19.2128 13.5254 18.9364 13.6426 18.4026 13.9902C18.074 14.2045 17.6897 14.4523 17.2607 14.7263C16.894 14.96 16.3971 15.179 15.7833 15.3773C15.1845 15.571 14.5766 15.6693 13.9763 15.6693C13.3764 15.6693 12.7685 15.571 12.1693 15.3773C11.5562 15.1792 11.0591 14.9603 10.6929 14.7266C10.268 14.455 9.88348 14.2072 9.55002 13.99C9.0166 13.6424 8.74017 13.5251 8.45435 13.5251C7.72632 13.5251 7.04614 13.6484 6.4324 13.8915C5.81674 14.1353 5.28375 14.47 4.84818 14.8868C4.43204 15.285 4.06119 15.7684 3.74588 16.3236C3.44189 16.8587 3.1958 17.4169 3.01465 17.9828C2.83969 18.5299 2.69336 19.1283 2.57971 19.7614C2.46692 20.3891 2.39066 20.9844 2.35284 21.5313C2.31567 22.066 2.29688 22.6225 2.29688 23.1847C2.29688 24.6463 2.76151 25.8296 3.67773 26.7022C4.58264 27.5634 5.77979 28 7.23605 28H20.7182C22.1741 28 23.3712 27.5634 24.2763 26.7022C25.1928 25.8302 25.6574 24.6466 25.6574 23.1845C25.6572 22.6203 25.6382 22.0639 25.6008 21.5307ZM23.145 25.5134C22.5471 26.0825 21.7532 26.3592 20.718 26.3592H7.23605C6.20062 26.3592 5.4068 26.0825 4.80908 25.5136C4.22269 24.9555 3.93771 24.1935 3.93771 23.1847C3.93771 22.6601 3.95502 22.142 3.98962 21.6447C4.02338 21.1568 4.09238 20.6208 4.1947 20.0513C4.29575 19.4888 4.42435 18.961 4.5773 18.4831C4.72406 18.0249 4.92422 17.5712 5.17245 17.1341C5.40936 16.7175 5.68195 16.3601 5.98273 16.0722C6.26407 15.8028 6.61868 15.5823 7.03653 15.417C7.42297 15.264 7.85727 15.1803 8.32874 15.1677C8.3862 15.1982 8.48853 15.2566 8.6543 15.3647C8.99161 15.5845 9.3804 15.8353 9.81021 16.1098C10.2947 16.4187 10.9189 16.6977 11.6647 16.9384C12.4271 17.1849 13.2047 17.3101 13.9765 17.3101C14.7483 17.3101 15.5261 17.1849 16.2881 16.9386C17.0345 16.6974 17.6585 16.4187 18.1436 16.1093C18.5835 15.8282 18.9614 15.5847 19.2987 15.3647C19.4645 15.2568 19.5668 15.1982 19.6243 15.1677C20.0959 15.1803 20.5302 15.264 20.9169 15.417C21.3345 15.5823 21.6891 15.803 21.9705 16.0722C22.2713 16.3599 22.5439 16.7173 22.7808 17.1343C23.0292 17.5712 23.2296 18.0251 23.3761 18.4829C23.5293 18.9614 23.6581 19.4891 23.7589 20.0511C23.8611 20.6217 23.9303 21.1579 23.964 21.6449V21.6454C23.9988 22.1408 24.0164 22.6586 24.0166 23.1847C24.0164 24.1937 23.7314 24.9555 23.145 25.5134Z" fill="#FF3600"/>
</svg>
