<svg width="73" height="66" viewBox="0 0 73 66" fill="none" xmlns="http://www.w3.org/2000/svg">
<rect x="-0.000137329" width="73" height="66" rx="10" fill="#F6F6F6"/>
<path d="M45.2163 31.2495H41.5108V32.1996H45.2163V31.2495Z" fill="#FF3600"/>
<path d="M20.6743 42.1002C23.4867 42.1002 25.7766 39.8104 25.7766 36.998C25.7766 34.1856 23.4867 31.8958 20.6743 31.8958C17.8619 31.8958 15.5721 34.1856 15.5721 36.998C15.5721 39.8104 17.8619 42.1002 20.6743 42.1002ZM20.6743 32.8459C22.9642 32.8459 24.8264 34.7082 24.8264 36.998C24.8264 39.2878 22.9642 41.1501 20.6743 41.1501C18.3845 41.1501 16.5222 39.2878 16.5222 36.998C16.5222 34.7082 18.3845 32.8459 20.6743 32.8459Z" fill="#FF3600"/>
<path d="M51.4777 42.1002C54.2901 42.1002 56.5799 39.8104 56.5799 36.998C56.5799 34.1856 54.2901 31.8958 51.4777 31.8958C48.6653 31.8958 46.3755 34.1856 46.3755 36.998C46.3755 39.8104 48.6653 42.1002 51.4777 42.1002ZM51.4777 32.8459C53.7675 32.8459 55.6298 34.7082 55.6298 36.998C55.6298 39.2878 53.7675 41.1501 51.4777 41.1501C49.1879 41.1501 47.3256 39.2878 47.3256 36.998C47.3256 34.7082 49.1879 32.8459 51.4777 32.8459Z" fill="#FF3600"/>
<path d="M52.6274 39.4967C53.5965 39.0501 54.2236 38.0715 54.2236 36.9978C54.2236 35.4871 52.9884 34.252 51.4777 34.252C49.967 34.252 48.7318 35.4871 48.7318 36.9978C48.7318 38.0715 49.3589 39.0501 50.328 39.4967L50.7271 38.6321C50.0905 38.3375 49.682 37.7009 49.682 36.9978C49.682 36.0097 50.4896 35.2021 51.4777 35.2021C52.4659 35.2021 53.2735 36.0097 53.2735 36.9978C53.2735 37.7009 52.8649 38.3375 52.2283 38.6321L52.6274 39.4967Z" fill="#FF3600"/>
<path d="M20.6933 39.7437C22.204 39.7437 23.4392 38.5086 23.4392 36.9978C23.4392 35.4871 22.204 34.252 20.6933 34.252C19.1826 34.252 17.9474 35.4871 17.9474 36.9978C17.9474 38.5086 19.1826 39.7437 20.6933 39.7437ZM20.6933 35.2021C21.6814 35.2021 22.489 36.0097 22.489 36.9978C22.489 37.986 21.6814 38.7936 20.6933 38.7936C19.7051 38.7936 18.8975 37.986 18.8975 36.9978C18.8975 36.0097 19.7051 35.2021 20.6933 35.2021Z" fill="#FF3600"/>
<path d="M16.0851 38.4896L16.2372 37.5489L13.4628 37.1024L12.6552 34.4515C14.0329 31.7626 16.7502 30.0999 19.7812 30.0999H46.8505C46.9836 30.0999 47.1071 30.0429 47.2021 29.9478L48.3137 28.7222L59.3733 31.8861V33.1213L58.3947 37.1309L55.9338 37.5299L56.0859 38.4706L58.8602 38.024C59.0503 37.9955 59.2023 37.853 59.2498 37.6724L60.3235 33.3018C60.3235 33.2543 60.3235 33.2163 60.3235 33.1783V31.5346C60.3235 31.3255 60.1809 31.1355 59.9814 31.0785L48.2947 27.734C48.1237 27.6865 47.9337 27.734 47.8102 27.867L46.6415 29.1497H19.7907C16.3702 29.1497 13.2918 31.0595 11.7715 34.1189L11.7335 34.195C11.6765 34.2995 11.667 34.4325 11.705 34.5465L12.6552 37.6629C12.7122 37.834 12.8547 37.967 13.0352 37.9955L16.0851 38.4896Z" fill="#FF3600"/>
<path d="M47.4491 38.7935H24.7219V39.7436H47.4491V38.7935Z" fill="#FF3600"/>
<path d="M27.0683 32.7356L26.1752 33.0605L27.6959 37.2404L28.589 36.9154L27.0683 32.7356Z" fill="#FF3600"/>
<path d="M29.064 32.7349L28.1708 33.0598L29.6916 37.2396L30.5847 36.9147L29.064 32.7349Z" fill="#FF3600"/>
<path d="M30.1281 30.0999H33.3396C33.5201 30.0999 33.6816 30.0049 33.7577 29.8433L34.5938 28.2186L33.7482 27.7815L33.0451 29.1497H31.1353L34.6033 24.9501H35.2209L34.7363 25.8813L35.5819 26.3183L36.418 24.6936C36.494 24.5511 36.4845 24.3706 36.399 24.228C36.3135 24.0855 36.1615 24 35.9905 24H34.3752C34.2327 24 34.0997 24.0665 34.0047 24.171L29.7576 29.3208C29.6436 29.4633 29.6151 29.6628 29.6911 29.8243C29.7861 29.9954 29.9476 30.0999 30.1281 30.0999Z" fill="#FF3600"/>
<path d="M60.3235 35.4302H57.188V36.3803H60.3235V35.4302Z" fill="#FF3600"/>
<path d="M14.3369 35.4302H11.6765V36.3803H14.3369V35.4302Z" fill="#FF3600"/>
<path d="M43.3635 30.0999H46.8505C46.9835 30.0999 47.1071 30.0429 47.2021 29.9479L48.5133 28.5037C48.6368 28.3612 48.6748 28.1616 48.5988 27.9906C48.5228 27.8196 48.3517 27.7056 48.1617 27.7056H44.8077C43.7531 27.7056 42.8885 28.5607 42.8885 29.6248C42.8885 29.8909 43.0975 30.0999 43.3635 30.0999ZM46.6415 29.1498H43.9621C44.1236 28.8552 44.4467 28.6557 44.8077 28.6557H47.0881L46.6415 29.1498Z" fill="#FF3600"/>
<path d="M14.1754 32.228H16.7408C18.1375 32.228 19.2776 31.0879 19.2776 29.6912C19.2776 29.5581 19.2206 29.4251 19.1161 29.3396C19.0116 29.2541 18.8786 29.2066 18.7455 29.2256C16.9498 29.4346 15.211 30.2137 13.8618 31.4014C13.7098 31.5344 13.6623 31.7435 13.7288 31.924C13.7953 32.1045 13.9759 32.228 14.1754 32.228ZM18.223 30.2612C17.9949 30.8503 17.4154 31.2779 16.7408 31.2779H15.6196C16.4177 30.7933 17.3013 30.4418 18.223 30.2612Z" fill="#FF3600"/>
</svg>
