<svg width="73" height="66" viewBox="0 0 73 66" fill="none" xmlns="http://www.w3.org/2000/svg">
<rect width="73" height="66" rx="10" fill="#F6F6F6"/>
<path d="M64.09 35.8962C64.0375 35.7825 63.9413 35.6862 63.8275 35.6512C63.4863 35.5375 63.005 35.3275 62.4013 35.0562C62.2262 34.9775 62.0338 34.89 61.8413 34.8025C59.4088 33.7087 55.6375 32.02 52.0238 31.565C36.6588 24.5212 26.2813 26.6475 17.9425 28.3625C15.5538 28.8525 13.2963 29.3162 11.1613 29.5087C11.0038 29.5262 10.8725 29.6137 10.8025 29.7537C10.7325 29.8937 10.75 30.06 10.8375 30.1825L12.08 32.0375V36.3075L10.9775 36.9987C10.7938 37.1125 10.7238 37.3312 10.8025 37.5325L11.6775 39.72C11.7213 39.8425 11.8263 39.93 11.9488 39.9737L14.6438 40.8662L17.26 41.2775C18.0563 42.1 19.1675 42.6162 20.4013 42.6162C21.3813 42.6162 22.2738 42.2837 23 41.7412H49.3025C50.0288 42.2837 50.9212 42.6162 51.9013 42.6162C52.8813 42.6162 53.7738 42.2837 54.5 41.7412H62.7688C62.9175 41.7412 63.0575 41.6625 63.1362 41.54C63.215 41.4175 63.2238 41.26 63.1625 41.12L62.445 39.5625L64.0988 36.2462C64.1513 36.1325 64.16 36.0012 64.1075 35.8787L64.09 35.8962ZM61.2288 35.4937L61.045 35.59C59.785 35.0737 58.945 34.645 58.4025 34.2775C59.4525 34.6975 60.415 35.1262 61.2375 35.4937H61.2288ZM12.9375 33.35L14.075 35.0562L12.9375 35.765V33.35ZM16.875 38.25C16.875 36.3162 18.4413 34.75 20.375 34.75C22.3088 34.75 23.875 36.3162 23.875 38.25C23.875 40.1837 22.3088 41.75 20.375 41.75C18.4413 41.75 16.875 40.1837 16.875 38.25ZM48.375 38.25C48.375 36.3162 49.9413 34.75 51.875 34.75C53.8088 34.75 55.375 36.3162 55.375 38.25C55.375 40.1837 53.8088 41.75 51.875 41.75C49.9413 41.75 48.375 40.1837 48.375 38.25ZM61.7538 38.9412L59.1375 37.375H59.3125C59.5575 37.375 59.75 37.1825 59.75 36.9375C59.75 36.6925 59.5575 36.5 59.3125 36.5H57.5625C57.37 36.5 57.195 36.6312 57.1425 36.8237C57.09 37.0162 57.1688 37.2175 57.335 37.3137L61.5963 39.8687L62.06 40.875H55.3488C55.9 40.14 56.25 39.2387 56.25 38.25C56.25 35.835 54.29 33.875 51.875 33.875C49.46 33.875 47.5 35.835 47.5 38.25C47.5 39.2387 47.8413 40.14 48.4013 40.875H23.8488C24.4 40.14 24.75 39.2387 24.75 38.25C24.75 35.835 22.79 33.875 20.375 33.875C17.96 33.875 16 35.835 16 38.25C16 38.9937 16.2013 39.6762 16.525 40.2887L14.8275 40.0262L12.395 39.2125L11.73 37.55L14.9238 35.555C15.0288 35.4937 15.0988 35.3887 15.1163 35.275C15.1425 35.1612 15.1163 35.0387 15.055 34.9425L12.465 31.0662L16.245 32.9562C16.3063 32.9912 16.3763 33 16.4375 33C16.595 33 16.7525 32.9125 16.8313 32.755C16.9363 32.5362 16.8488 32.2737 16.6388 32.1687L12.6925 30.1912C14.4338 29.955 16.2275 29.5875 18.1088 29.2025C25.9138 27.6012 35.5212 25.6325 49.4163 31.3725C34.375 26.2537 27.935 28.5375 27.655 28.6425L23.385 30.3487C21.8713 30.165 20.0163 29.99 17.6975 29.8412C17.4788 29.8325 17.2513 30.0075 17.2338 30.2525C17.2163 30.4975 17.4 30.6987 17.645 30.7162C19.9988 30.8737 21.88 31.0487 23.3938 31.2325L45.2688 33.8575C45.2688 33.8575 45.2863 33.8575 45.295 33.8575H45.3213C45.33 33.8575 45.3388 33.8575 45.3563 33.8487C45.4175 33.8487 45.4788 33.8225 45.5312 33.7962C45.54 33.7962 45.5575 33.7962 45.5663 33.7875C45.5663 33.7875 45.5663 33.7787 45.5838 33.77C45.5838 33.77 45.6013 33.77 45.6013 33.7612C46.6513 32.9037 47.955 32.4312 49.5825 32.3175H49.6088C51.8575 32.1775 54.3688 32.79 56.6525 33.595C57.0025 34.5312 58.3325 35.4237 60.9138 36.4562C60.9663 36.4737 61.0188 36.4912 61.08 36.4912C61.15 36.4912 61.2113 36.4737 61.2725 36.4475L62.2788 35.9487C62.5763 36.08 62.8563 36.2025 63.0925 36.2987L61.7713 38.9412H61.7538ZM45.68 32.6325C45.2163 30.865 42.7575 30.5062 41.8738 30.375C41.725 30.3575 41.55 30.4187 41.4538 30.55C41.3575 30.6812 41.3488 30.8562 41.4188 31.005L42.2238 32.6237L29.3175 31.075L28.4425 29.3425C30.0875 28.9575 36.1425 28.0387 47.7275 31.7487C46.975 31.95 46.2925 32.2475 45.68 32.6325ZM42.5913 31.3987C44.1138 31.7487 44.6475 32.2912 44.8138 32.8075L42.9938 32.2037L42.5913 31.3987ZM27.5938 29.6137L28.2675 30.9525L25.1788 30.585L27.5938 29.6225V29.6137Z" fill="#FF3600"/>
<path d="M46.1875 39.125H34.0075L28.9587 37.445L26.9025 34.4875L29.0725 33.8838L45.26 35.625C45.4962 35.6513 45.715 35.4763 45.7412 35.24C45.7675 35.0038 45.5925 34.785 45.3562 34.7588L29.0812 33.0088C29.0287 33.0088 28.9675 33.0088 28.915 33.0263L26.0712 33.8138C25.9312 33.8488 25.8262 33.9538 25.7737 34.085C25.7212 34.2163 25.7475 34.365 25.8262 34.4875L28.32 38.075C28.3725 38.1538 28.4512 38.2063 28.5387 38.2413L33.7887 39.9913C33.8325 40.0088 33.8762 40.0175 33.9287 40.0175H46.1787C46.4237 40.0175 46.6162 39.825 46.6162 39.58C46.6162 39.335 46.4237 39.1425 46.1787 39.1425L46.1875 39.125Z" fill="#FF3600"/>
<path d="M51.875 35.625C50.4312 35.625 49.25 36.8062 49.25 38.25C49.25 39.6937 50.4312 40.875 51.875 40.875C53.3187 40.875 54.5 39.6937 54.5 38.25C54.5 36.8062 53.3187 35.625 51.875 35.625ZM51.875 40C50.9125 40 50.125 39.2125 50.125 38.25C50.125 37.2875 50.9125 36.5 51.875 36.5C52.8375 36.5 53.625 37.2875 53.625 38.25C53.625 39.2125 52.8375 40 51.875 40Z" fill="#FF3600"/>
<path d="M20.375 35.625C18.9312 35.625 17.75 36.8062 17.75 38.25C17.75 39.6937 18.9312 40.875 20.375 40.875C21.8187 40.875 23 39.6937 23 38.25C23 36.8062 21.8187 35.625 20.375 35.625ZM20.375 40C19.4125 40 18.625 39.2125 18.625 38.25C18.625 37.2875 19.4125 36.5 20.375 36.5C21.3375 36.5 22.125 37.2875 22.125 38.25C22.125 39.2125 21.3375 40 20.375 40Z" fill="#FF3600"/>
</svg>
