<svg width="125" height="32" viewBox="0 0 125 32" fill="none" xmlns="http://www.w3.org/2000/svg">
<path d="M124.784 30.6824V8.40969H115.381V30.6824H124.784ZM74.9984 21.3633V8.40969H65.8821V18.3522C65.8821 21.1929 65.7657 21.9888 65.5928 22.7279C64.9576 24.7728 62.765 25.6822 60.5158 25.6822C57.3998 25.6822 55.9587 24.4889 55.3812 22.6133C55.2083 21.9888 55.1506 21.3076 55.0919 20.6263C55.0342 19.8883 55.0919 19.0913 55.0919 18.2387V8.40969H45.8613V21.42C45.8613 24.3175 46.8423 26.477 48.4574 27.9541C51.2265 30.6256 55.9 31.4204 60.2265 31.4204C65.4764 31.4204 69.5158 30.6824 72.4001 27.8973C73.9021 26.477 74.9984 24.6024 74.9984 21.3633ZM29.7745 19.6376H17.2234L23.4794 9.47443L29.7745 19.6376ZM47.4797 30.6824L26.7096 0H15.0558L18.2751 3.75014L0 30.6824H10.4998L13.6321 25.6254H33.4354L36.6329 30.6824H47.4797ZM112.843 19.1481C112.843 16.648 111.804 13.7505 108.574 9.71544L100.786 0H89.9389L96.1122 6.81794C97.1509 7.95445 98.4778 8.97634 98.4778 8.97634C96.978 8.12476 95.0746 7.78413 93.5737 7.78413C89.9977 7.78413 86.3629 8.52216 83.1316 10.2842C79.6697 12.1588 77.3618 15.2844 77.3618 19.4319C77.3618 22.6133 78.804 25.0566 80.6497 26.9322C84.8032 31.023 92.3611 31.4204 95.1301 31.4204C99.2261 31.4204 105.63 30.5099 109.264 27.2718C111.401 25.3405 112.843 22.6701 112.843 19.1481ZM103.843 19.4319C103.843 21.7617 102.284 23.5227 100.323 24.4889C98.7095 25.3416 96.805 25.5686 95.1323 25.5686C93.4585 25.5686 91.4975 25.2291 89.8824 24.4321C87.9203 23.467 86.4205 21.5914 86.4205 19.5455C86.4205 17.1022 88.3238 15.1709 90.5741 14.2047C91.9576 13.5791 93.6325 13.352 94.9583 13.352C96.2275 13.352 98.0732 13.5223 99.5154 14.0911C102.111 15.1709 103.843 17.2146 103.843 19.4319Z" fill="#CC1E47"/>
</svg>
