<svg width="70" height="61" viewBox="0 0 70 61" fill="none" xmlns="http://www.w3.org/2000/svg">
<path d="M66.9408 23.1846C66.3002 23.005 65.5868 22.92 64.0842 22.7338C57.865 22.4775 42.4954 21.8773 34.6633 21.8773C26.8316 21.8773 11.4617 22.4772 5.24315 22.7338C3.73982 22.92 3.02576 23.005 2.38553 23.1846C0.430198 23.6477 3.05176e-05 24.3527 3.05176e-05 25.7593V35.3994C3.05176e-05 36.8063 1.50059 37.7544 2.53493 37.9455C3.56997 38.1381 4.22475 38.215 5.31351 38.3191C10.8759 38.6652 23.7809 39.3866 34.663 39.398C45.5454 39.3876 58.4497 38.6655 64.0124 38.3191C65.1009 38.215 65.756 38.1377 66.7914 37.9455C67.8254 37.754 69.3259 36.8063 69.3259 35.3994V25.7593C69.3259 24.3527 68.8961 23.6477 66.9408 23.1846Z" fill="url(#paint0_linear_152_7225)"/>
<path d="M9.72299 23.5637C12.783 12.8718 22.8377 5.02671 34.7732 5.02671C46.6744 5.02671 56.7086 12.8286 59.7985 23.4777C59.8082 23.5153 59.8148 23.5348 59.8255 23.5711C61.5996 23.3709 63.1889 23.0617 64.3119 22.7605C64.2915 22.692 64.2863 22.678 64.2686 22.6105C60.7569 9.92531 48.8821 0.59082 34.7732 0.59082C20.6169 0.59082 8.71084 9.98589 5.24246 22.7337C6.80264 23.163 7.94548 23.343 9.72299 23.5637Z" fill="url(#paint1_radial_152_7225)"/>
<path d="M59.7253 37.5771C59.6945 37.6722 59.6602 37.777 59.6442 37.8289C56.3904 48.2221 46.4872 55.7813 34.7736 55.7813C22.9674 55.7813 13.0018 48.1055 9.827 37.5872C7.88657 37.9323 7.23109 38.0635 5.31354 38.3198C8.86649 50.943 20.7087 60.2172 34.7736 60.2172C48.8443 60.2172 60.6907 50.9332 64.2371 38.2996C62.5476 38.09 61.5524 37.9316 59.7253 37.5771Z" fill="url(#paint2_radial_152_7225)"/>
<path d="M10.3476 23.5408C11.0842 23.2351 11.7968 22.7477 12.9078 22.434C16.2198 13.7909 24.7587 7.63618 34.7728 7.63618C44.7557 7.63618 53.2735 13.753 56.6063 22.3543C56.6181 22.3835 56.6302 22.419 56.6396 22.4409C57.2129 22.6404 58.902 23.3284 59.4275 23.5585C59.5021 23.5603 59.6611 23.5658 59.8255 23.5704C59.8158 23.5395 59.8068 23.5083 59.7984 23.4771C56.7072 12.8314 46.6733 5.03195 34.7728 5.03195C22.8404 5.03195 12.7858 12.8735 9.72467 23.5634C9.90145 23.5638 10.238 23.5484 10.3476 23.5408Z" fill="url(#paint3_radial_152_7225)"/>
<path d="M34.5829 5.75505C45.7488 5.75505 55.6468 12.4425 59.396 23.4656L59.4265 23.5592C59.4847 23.5592 59.6972 23.5669 59.8244 23.571C59.8144 23.531 59.804 23.5077 59.7974 23.4777C56.7061 12.8321 46.6723 5.03262 34.7718 5.03262C22.8394 5.03262 12.7847 12.8742 9.72363 23.5641C9.96211 23.5603 10.0768 23.5603 10.3472 23.5411C13.6991 13.0761 23.499 5.75505 34.5829 5.75505Z" fill="white"/>
<path d="M59.0924 37.6074C58.2903 38.0576 57.2917 38.4907 56.4934 38.7438C56.4826 38.7696 56.4372 38.8838 56.4275 38.9106C52.9744 47.2741 44.5801 53.1778 34.7732 53.1778C24.9047 53.1778 16.4674 47.2023 13.0545 38.756C12.1362 38.5001 10.7636 37.8713 10.244 37.6088C10.0495 37.5994 9.94484 37.5938 9.82526 37.5876C13 48.1044 22.9674 55.7817 34.7736 55.7817C46.5264 55.7817 56.4552 48.1747 59.6765 37.7321C59.6834 37.7119 59.7191 37.597 59.7267 37.5775C59.5406 37.5848 59.256 37.6074 59.0924 37.6074Z" fill="url(#paint4_radial_152_7225)"/>
<path d="M66.3851 23.8827C64.7379 23.6814 63.6149 23.703 59.6023 23.5641C59.4199 23.5575 59.2345 23.5519 59.0463 23.5453C51.7705 23.2946 40.8413 22.9597 34.663 22.9597C28.485 22.9597 17.5561 23.2946 10.2793 23.5453C10.0915 23.5519 9.9067 23.5575 9.72472 23.5641C5.71144 23.703 4.58871 23.6814 2.94118 23.8827C1.294 24.0856 3.05176e-05 24.8101 3.05176e-05 26.0423V34.982C3.05176e-05 36.2148 1.55882 37.213 2.94083 37.213C2.94083 37.213 20.5309 38.3037 34.663 38.3166C48.7954 38.3037 66.3851 37.213 66.3851 37.213C67.7671 37.213 69.3259 36.2148 69.3259 34.982V26.0423C69.3259 24.8101 68.0323 24.0856 66.3851 23.8827Z" fill="url(#paint5_radial_152_7225)"/>
<path d="M59.0924 37.6074C55.6403 47.8931 45.9319 55.0582 34.9656 55.0582C23.8877 55.0582 14.0579 48.4759 10.2429 37.6074C10.1029 37.6001 9.96425 37.5946 9.82733 37.5866C13.0014 48.1037 22.9705 55.781 34.777 55.781C46.5874 55.781 56.5575 48.0989 59.7288 37.5761C59.5201 37.5859 59.3083 37.5973 59.0924 37.6074Z" fill="white"/>
<path d="M59.1124 37.6068L59.0913 37.6074C58.2892 38.0576 57.2912 38.4907 56.4923 38.7438C56.4815 38.7696 56.4361 38.8838 56.4268 38.9106C55.3342 41.5573 53.7466 43.9575 51.7743 46.0029C54.8614 43.7361 57.3793 40.8721 59.1124 37.6068Z" fill="#8C8C8C"/>
<path d="M18.4373 46.6683C16.1155 44.447 14.2673 41.7582 13.0541 38.7553C12.1359 38.4991 10.7636 37.8699 10.2436 37.6074C10.7992 38.7643 11.4543 39.8703 12.2014 40.9128C13.7297 42.912 15.5821 44.6939 17.6906 46.2017C17.936 46.3633 18.1849 46.5185 18.4373 46.6683Z" fill="#4D4D4D"/>
<path d="M9.82629 37.5879V37.5872L9.81832 37.5886C7.88412 37.9329 7.22795 38.0649 5.31317 38.3197C5.46742 38.8698 5.63831 39.4119 5.82445 39.9484L9.82629 37.5879Z" fill="#252525"/>
<path d="M48.7489 27.8419C48.1708 26.544 48.376 26.6801 47.1173 26.6467C47.0151 26.6118 46.7423 26.6118 46.3686 26.6118C45.9957 26.6118 45.927 26.6118 45.6206 26.6467C44.431 26.6467 44.6348 26.5784 44.2271 27.4321C44.2271 27.4321 42.1852 32.0424 41.3019 33.9549L41.268 34.0231C41.0981 34.364 41.2004 34.364 41.4718 34.364H43.3086C43.4452 34.364 43.5124 34.2971 43.5464 34.2275C43.5464 34.2275 43.8185 33.6467 44.1585 32.8275H48.647C48.9874 33.6133 49.2252 34.1934 49.2252 34.2275C49.2592 34.3302 49.3614 34.364 49.463 34.364H51.3674C51.6395 34.364 51.7078 34.3998 51.6059 34.1592C51.2651 33.34 49.055 28.5581 48.7489 27.8419ZM44.8379 31.1884C45.4161 29.8226 45.995 28.4909 45.995 28.4564C46.0293 28.3878 46.0972 28.3537 46.1988 28.3537C46.2331 28.3189 46.3357 28.3189 46.4373 28.3189C46.5055 28.3189 46.6068 28.3189 46.6411 28.3537C46.7087 28.3537 46.778 28.3878 46.8106 28.4905C46.9478 28.8655 47.4567 30.0273 47.9326 31.1884H44.8379ZM20.3548 26.5436C20.5246 26.5436 20.5589 26.6115 20.5589 26.7483V34.0579C20.5589 34.2278 20.5246 34.2975 20.3212 34.2975H18.5527C18.3492 34.2975 18.3152 34.2626 18.3152 34.0579V26.7483C18.3152 26.6115 18.3492 26.5436 18.4847 26.5436H20.3548ZM16.5803 26.6115C16.7838 26.6115 16.8188 26.6794 16.8188 26.851V34.1262C16.8188 34.3316 16.7838 34.3657 16.5803 34.3657H14.5058C13.2821 34.3657 13.1799 34.3657 12.7723 33.6833C11.922 32.3516 9.37113 28.4237 9.37113 28.4237V34.1269C9.37113 34.3326 9.33716 34.366 9.13369 34.366H7.60297C7.39915 34.366 7.36484 34.3326 7.36484 34.1269V26.851C7.36484 26.6801 7.39915 26.6115 7.60297 26.6115H9.37113C10.6973 26.6115 10.8672 26.5777 11.3441 27.2608C11.7178 27.876 14.8122 32.6573 14.8122 32.6573V26.851C14.8122 26.6801 14.8461 26.6115 15.0507 26.6115H16.5803ZM61.9763 26.6115C62.1815 26.6115 62.2148 26.6794 62.2148 26.851V34.1262C62.2148 34.3316 62.1808 34.3657 61.9763 34.3657H59.9038C58.6785 34.3657 58.5762 34.3657 58.1686 33.6833C57.3176 32.3506 54.7675 28.423 54.7675 28.423V34.1265C54.7675 34.3319 54.7335 34.3653 54.529 34.3653H52.9997C52.7958 34.3653 52.7608 34.3319 52.7608 34.1265V26.851C52.7608 26.6801 52.7962 26.6115 52.9997 26.6115H54.7675C56.0937 26.6115 56.2642 26.5777 56.7394 27.2608C57.1478 27.876 60.2085 32.6573 60.2085 32.6573V26.851C60.2085 26.6801 60.2428 26.6115 60.447 26.6115H61.9763ZM28.1422 29.5841C29.5027 29.7202 30.4892 29.959 30.7609 31.2573C30.7609 31.359 30.7953 31.7009 30.7953 32.0769C30.7953 32.3164 30.7953 32.6228 30.727 32.8965C30.4895 34.1258 29.5706 34.3647 28.1432 34.3647H22.4294C22.2252 34.3647 22.1909 34.3312 22.1909 34.1258V32.8965C22.1909 32.6911 22.2252 32.6569 22.4294 32.6569H28.2094C28.4479 32.6569 28.5158 32.589 28.5494 32.4174V32.11V31.9053C28.5151 31.7681 28.4815 31.5634 28.1758 31.5299C27.5293 31.4958 25.6256 31.3245 24.3327 31.1884C22.6664 31.0175 22.2588 30.3009 22.1905 29.6857C22.1566 29.4803 22.1566 29.2074 22.1566 28.9682C22.1566 28.7631 22.1566 28.456 22.1905 28.2165C22.429 27.1229 23.2453 26.6115 24.6727 26.6115H30.2153C30.4202 26.6115 30.4885 26.6463 30.4885 26.8166V28.0807C30.4885 28.2503 30.4202 28.3192 30.2153 28.2851H24.775C24.5369 28.2851 24.4353 28.3875 24.4006 28.6263V28.9337C24.4006 29.1047 24.5029 29.2415 24.7407 29.2746C25.3882 29.3442 27.3938 29.5148 28.1422 29.5841ZM37.9688 29.5841C39.3303 29.7202 40.3158 29.959 40.5882 31.2573C40.5882 31.359 40.6222 31.7009 40.6222 32.0769C40.6222 32.3164 40.6222 32.6228 40.5543 32.8965C40.3168 34.1258 39.3989 34.3647 37.9701 34.3647H32.2566C32.0525 34.3647 32.0182 34.3312 32.0182 34.1258V32.8965C32.0182 32.6911 32.0525 32.6569 32.2566 32.6569H38.0377C38.2755 32.6569 38.3424 32.589 38.3774 32.4174V32.11V31.9053C38.3421 31.7681 38.2748 31.5634 38.0031 31.5299C37.3573 31.4958 35.4529 31.3245 34.161 31.1884C32.4941 31.0175 32.1208 30.3009 32.0182 29.6857C31.9842 29.4803 31.9842 29.2074 31.9842 28.9682C31.9842 28.7631 31.9842 28.456 32.0182 28.2165C32.2566 27.1229 33.0726 26.6115 34.5004 26.6115H40.044C40.2472 26.6115 40.3161 26.6463 40.3161 26.8166V28.0807C40.3161 28.2503 40.2472 28.3192 40.044 28.2851H34.6026C34.3648 28.2851 34.2633 28.3875 34.2286 28.6263V28.9337C34.2286 29.1047 34.2969 29.2415 34.5694 29.2746C35.2155 29.3442 37.2211 29.5148 37.9688 29.5841Z" fill="url(#paint6_radial_152_7225)"/>
<defs>
<linearGradient id="paint0_linear_152_7225" x1="34.663" y1="1.471" x2="34.663" y2="50.0047" gradientUnits="userSpaceOnUse">
<stop offset="0.194" stop-color="white"/>
<stop offset="0.208" stop-color="#F8F8F8"/>
<stop offset="0.366" stop-color="#AEAEAE"/>
<stop offset="0.513" stop-color="#707070"/>
<stop offset="0.647" stop-color="#404040"/>
<stop offset="0.764" stop-color="#1D1D1D"/>
<stop offset="0.86" stop-color="#080808"/>
<stop offset="0.922"/>
</linearGradient>
<radialGradient id="paint1_radial_152_7225" cx="0" cy="0" r="1" gradientUnits="userSpaceOnUse" gradientTransform="translate(15.2022 -11.3959) scale(48.342 48.5553)">
<stop offset="0.202" stop-color="white"/>
<stop offset="0.382" stop-color="#FDFDFD"/>
<stop offset="0.487" stop-color="#F4F4F4"/>
<stop offset="0.573" stop-color="#E6E6E6"/>
<stop offset="0.648" stop-color="#D2D2D2"/>
<stop offset="0.689" stop-color="#C4C4C4"/>
<stop offset="1" stop-color="#333333"/>
</radialGradient>
<radialGradient id="paint2_radial_152_7225" cx="0" cy="0" r="1" gradientUnits="userSpaceOnUse" gradientTransform="translate(132.193 66.3772) scale(100.679 101.123)">
<stop offset="0.202" stop-color="white"/>
<stop offset="0.368" stop-color="#E4E4E4"/>
<stop offset="0.594" stop-color="#C4C4C4"/>
<stop offset="1" stop-color="#333333"/>
</radialGradient>
<radialGradient id="paint3_radial_152_7225" cx="0" cy="0" r="1" gradientUnits="userSpaceOnUse" gradientTransform="translate(26.8135 44.062) scale(30.9086 31.045)">
<stop offset="0.202" stop-color="white"/>
<stop offset="0.368" stop-color="#E4E4E4"/>
<stop offset="0.594" stop-color="#C4C4C4"/>
<stop offset="1" stop-color="#333333"/>
</radialGradient>
<radialGradient id="paint4_radial_152_7225" cx="0" cy="0" r="1" gradientUnits="userSpaceOnUse" gradientTransform="translate(51.756 75.8064) scale(58.6476 58.9064)">
<stop offset="0.202" stop-color="white"/>
<stop offset="0.368" stop-color="#E4E4E4"/>
<stop offset="0.594" stop-color="#C4C4C4"/>
<stop offset="1" stop-color="#333333"/>
</radialGradient>
<radialGradient id="paint5_radial_152_7225" cx="0" cy="0" r="1" gradientUnits="userSpaceOnUse" gradientTransform="translate(34.1985 6.73339) scale(46.605 46.8107)">
<stop offset="0.202" stop-color="white"/>
<stop offset="0.397" stop-color="#FDFDFD"/>
<stop offset="0.51" stop-color="#F4F4F4"/>
<stop offset="0.603" stop-color="#E6E6E6"/>
<stop offset="0.684" stop-color="#D2D2D2"/>
<stop offset="0.728" stop-color="#C4C4C4"/>
<stop offset="1" stop-color="#4D4D4D"/>
</radialGradient>
<radialGradient id="paint6_radial_152_7225" cx="0" cy="0" r="1" gradientUnits="userSpaceOnUse" gradientTransform="translate(35.2779 11.421) scale(31.3911 31.5296)">
<stop offset="0.111" stop-color="#4D4D4D"/>
<stop offset="0.248" stop-color="#494949"/>
<stop offset="0.355" stop-color="#404040"/>
<stop offset="0.451" stop-color="#2F2F2F"/>
<stop offset="0.541" stop-color="#181818"/>
<stop offset="0.611"/>
</radialGradient>
</defs>
</svg>
