<svg width="54" height="54" viewBox="0 0 54 54" fill="none" xmlns="http://www.w3.org/2000/svg">
<rect width="54" height="54" rx="27" fill="white"/>
<path d="M37.25 16.7577L36.13 15.7776C35.11 14.7575 33.38 14.7075 32.28 15.8276L30.41 18.2778C29.36 19.328 29.36 21.0381 30.41 22.0782L31.9 23.6084C30.28 27.4088 27.29 30.4091 23.61 31.9093L22.08 30.4191C21.57 29.9091 20.9 29.629 20.18 29.629C19.46 29.629 18.79 29.9091 18.33 30.3791L15.79 32.3393C14.74 33.3894 14.74 35.0996 15.77 36.1197L16.79 37.2898C17.89 38.3899 19.37 39 20.98 39C28.73 39 39 28.7189 39 20.9781C39 19.378 38.39 17.8878 37.27 16.7677L37.25 16.7577ZM20.96 37.9899C19.62 37.9899 18.39 37.4898 17.5 36.5998L16.48 35.4196C15.82 34.7596 15.82 33.6894 16.43 33.0694L18.97 31.1092C19.29 30.7891 19.71 30.6091 20.17 30.6091C20.63 30.6091 21.05 30.7891 21.37 31.1092L23.14 32.8394C23.28 32.9794 23.48 33.0194 23.67 32.9494C27.84 31.3592 31.23 27.9689 32.96 23.6684C33.03 23.4884 32.99 23.2784 32.85 23.1283L31.12 21.3582C30.46 20.6981 30.46 19.628 31.16 18.9179L33.03 16.4677C33.69 15.8076 34.76 15.8076 35.45 16.4877L36.57 17.4678C37.48 18.3779 37.98 19.608 37.98 20.9481C37.98 28.1089 28.12 37.9699 20.96 37.9699V37.9899Z" fill="#FF3600"/>
</svg>
