<svg xmlns="http://www.w3.org/2000/svg" version="1.1" xmlns:xlink="http://www.w3.org/1999/xlink" width="512" height="512" x="0" y="0" viewBox="0 0 512 512" style="enable-background:new 0 0 512 512" xml:space="preserve" class=""><g><path fill="#ffd26f" d="M492.717 13.796H117.542c-10.592 0-19.283 8.679-19.283 19.258v77.928l-2.926-5.629c-5.267-10.17-16.503-20.281-31.864-11.426-19.283 11.134-44.242 23.963-53.166 40.562-13.05 24.255-13.021 62.742-3.745 93.953 19.253 64.846 53.078 120.341 98.344 164.994 44.71 45.208 100.275 78.99 165.204 98.219 31.25 9.264 69.786 9.293 94.101-3.741 16.62-8.913 29.436-33.84 40.584-53.099 8.866-15.342-1.229-26.564-11.412-31.824l-88.015-45.588c-5.706-2.981-14.133-4.413-17.966 1.724l-20.57 32.935c-6.642 10.637-16.005 9.41-22.56 6.341-27.241-12.887-61.3-42.491-81.987-62.275a603.082 603.082 0 0 1-15.864-17.212h346.3c10.592 0 19.283-8.679 19.283-19.258V33.054c0-10.578-8.69-19.258-19.283-19.258z" opacity="1" data-original="#ffd26f"></path><path fill="#95c7f8" d="M63.469 93.926c-19.283 11.134-44.242 23.963-53.166 40.562-13.05 24.255-13.021 62.742-3.745 93.953 19.253 64.846 53.078 120.341 98.344 164.994 44.71 45.208 100.275 78.99 165.204 98.219 31.25 9.264 69.786 9.293 94.101-3.741 16.62-8.913 29.436-33.84 40.584-53.099 8.866-15.342-1.229-26.564-11.412-31.824l-88.015-45.588c-5.706-2.981-14.133-4.413-17.966 1.724l-20.57 32.935c-6.642 10.637-16.005 9.41-22.56 6.341-27.241-12.887-61.3-42.491-81.987-62.275-19.78-20.632-49.45-54.677-62.324-81.883-3.102-6.517-4.331-15.868 6.32-22.502l32.976-20.573c6.145-3.828 4.711-12.245 1.756-17.943l-45.675-87.874c-5.267-10.169-16.503-20.28-31.865-11.426z" opacity="1" data-original="#95c7f8"></path><path fill="#ffe187" d="M492.717 13.796H117.542c-5.126 0-9.795 2.045-13.26 5.341l200.69 173.154 200.856-173.29c-3.451-3.214-8.057-5.205-13.111-5.205z" opacity="1" data-original="#ffe187"></path><path fill="#f9c969" d="M338.808 163.215h-.135l-33.702 29.077-33.611-28.999-147.998 127.704c7.408 9.747 15.415 19.298 23.055 27.919h346.3c6.785 0 12.776-3.571 16.215-8.911z" opacity="1" data-original="#f9c969"></path><g fill="#75b5f8"><path d="m393.379 402.991-88.015-45.588c-5.706-2.981-14.133-4.413-17.966 1.724l-15.812 25.317 124.961 64.741c2.86-4.916 5.599-9.802 8.243-14.37 8.866-15.342-1.229-26.564-11.411-31.824zM113.913 226.979l25.34-15.809c6.145-3.828 4.711-12.245 1.756-17.943l-45.675-87.874c-5.267-10.17-16.503-20.281-31.864-11.426-4.573 2.64-9.465 5.377-14.386 8.236zM101.622 235.563l-7.024 4.391c-10.895 6.8-9.638 16.385-6.465 23.065 13.17 27.888 43.521 62.784 63.755 83.932 21.162 20.279 56.002 50.623 83.869 63.833 6.705 3.145 16.283 4.403 23.077-6.5l5.661-9.083c-6.377 7.192-14.409 5.927-20.227 3.203-27.241-12.887-61.3-42.491-81.987-62.275-19.78-20.632-49.45-54.677-62.324-81.883-2.543-5.343-3.822-12.59 1.665-18.683z" fill="#75b5f8" opacity="1" data-original="#75b5f8"></path></g></g></svg>