<svg xmlns="http://www.w3.org/2000/svg" version="1.1" xmlns:xlink="http://www.w3.org/1999/xlink" width="512" height="512" x="0" y="0" viewBox="0 0 512 512" style="enable-background:new 0 0 512 512" xml:space="preserve"><g><clipPath id="a"><path d="M331 222h-75L88.5 196.2 137 182h89.8c31.3 0 61.9 9.8 87.4 28z" fill="#000000" opacity="1" data-original="#000000"></path></clipPath><path fill="#db3328" d="M404.2 224H362l-44.3-30c-24.9-17-54.3-26-84.4-26H128L5 205.5V219h11v43H5v34l17.5 23H495v-23.8l12-27.3-23.1-17.3c-23-17.3-50.9-26.6-79.7-26.6z" opacity="1" data-original="#db3328"></path><path fill="#485143" d="M99 182H82.1L5 205.5l20.8.5z" opacity="1" data-original="#485143"></path><path fill="#747e6c" d="M296.6 182h-11.2l61.4 42H362l-44.3-30.1c-6.7-4.5-13.8-8.9-21.1-11.9z" opacity="1" data-original="#747e6c"></path><path fill="#b5100b" d="M495 319H22.5L5 296h490zM37.7 262H16v-43h21.7l10.5 24.5z" opacity="1" data-original="#b5100b"></path><path fill="#485143" d="M331 222h-75L88.5 196.2 137 182h89.8c31.3 0 61.9 9.8 87.4 28z" opacity="1" data-original="#485143"></path><path fill="#b5100b" d="m357 295.1-162.9-9.7-31-39 32.4-14.4L354 256c0 5.3-4.6 9.5-9.9 8.9l-136.7-15.5-12.1 6 16.9 16 137.2 15.2c4.3.4 7.6 4.1 7.6 8.5z" opacity="1" data-original="#b5100b"></path><path fill="#ebeadf" d="M476 263h31v10h-31z" opacity="1" data-original="#ebeadf"></path><circle cx="93.1" cy="295.3" r="48.7" fill="#323d2c" opacity="1" data-original="#323d2c"></circle><path fill="#485143" d="M95.3 246.6c-4-.2-8 .1-11.8.9-4.3.8-3.5 7.1.8 7.1h.7c26.7 0 48.7 22 48.7 48.7v.7c-.1 4.3 6.2 5.1 7.1.8.7-3.8 1.1-7.7.9-11.8-1.1-25-21.4-45.3-46.4-46.4z" opacity="1" data-original="#485143"></path><path fill="#1c2617" d="M114.9 318.9c-24.3-1.5-43.9-21.2-45.5-45.5v-.6c-.5-8.9-11.9-12-16.9-4.6-5.6 8.3-8.6 18.5-8.1 29.3 1.2 24.9 21.4 45.2 46.4 46.4 10.9.5 21-2.6 29.3-8.1 7.4-5 4.3-16.4-4.6-16.9h-.6z" opacity="1" data-original="#1c2617"></path><circle cx="93.1" cy="295.3" r="23.9" fill="#747e6c" opacity="1" data-original="#747e6c"></circle><path fill="#c4c1ab" d="M95 271.4c-1.3-.1-2.6-.1-3.9 0-2.5.2-2.4 3.8.1 4h.3c11.2 1.1 20.3 10.2 21.4 21.4v.3c.2 2.5 3.8 2.5 4 .1.1-1.3.1-2.6 0-3.9-.9-11.6-10.3-21-21.9-21.9z" opacity="1" data-original="#c4c1ab"></path><path fill="#485143" d="M101.3 308c-11-1.2-19.8-10-21-21v-.3c-.5-4.7-6.8-5.9-8.9-1.7-1.7 3.6-2.5 7.7-2.2 12 .8 11.7 10.4 21.3 22.1 22.1 4.3.3 8.4-.5 11.9-2.2 4.3-2 3-8.4-1.7-8.9h-.2z" opacity="1" data-original="#485143"></path><path fill="#e67368" d="M22 219h7.7v43H22z" opacity="1" data-original="#e67368"></path><circle cx="417.3" cy="295.3" r="48.7" fill="#323d2c" opacity="1" data-original="#323d2c"></circle><path fill="#1c2617" d="M439.1 318.9c-24.3-1.5-43.9-21.2-45.5-45.5v-.6c-.5-8.9-11.9-12-16.9-4.6-5.6 8.3-8.6 18.5-8.1 29.3 1.2 24.9 21.4 45.2 46.4 46.4 10.9.5 21-2.6 29.3-8.1 7.4-5 4.3-16.4-4.6-16.9h-.6z" opacity="1" data-original="#1c2617"></path><circle cx="417.1" cy="295.3" r="23.9" fill="#747e6c" opacity="1" data-original="#747e6c"></circle><path fill="#485143" d="M419.3 246.6c-4-.2-8 .1-11.8.9-4.3.8-3.5 7.1.8 7.1h.7c26.7 0 48.7 22 48.7 48.7v.7c-.1 4.3 6.2 5.1 7.1.8.7-3.8 1.1-7.7.9-11.8-1.1-25-21.4-45.3-46.4-46.4z" opacity="1" data-original="#485143"></path><path fill="#c4c1ab" d="M419 271.4c-1.3-.1-2.6-.1-3.9 0-2.5.2-2.4 3.8.1 4h.3c11.2 1.1 20.3 10.2 21.4 21.4v.3c.2 2.5 3.8 2.5 4 .1.1-1.3.1-2.6 0-3.9-.9-11.6-10.3-21-21.9-21.9z" opacity="1" data-original="#c4c1ab"></path><path fill="#485143" d="M425.3 308c-11-1.2-19.8-10-21-21v-.3c-.5-4.7-6.8-5.9-8.9-1.7-1.7 3.6-2.5 7.7-2.2 12 .8 11.7 10.4 21.3 22.1 22.1 4.3.3 8.4-.5 11.9-2.2 4.3-2 3-8.4-1.7-8.9h-.2z" opacity="1" data-original="#485143"></path><path fill="#e67368" d="M256 230h75l31 2h87.5c-14.4-5-29.8-8-45.3-8H362l-31-2h-75L88.4 196.2 5 205.5v8.6l83.5-6.8z" opacity="1" data-original="#e67368"></path><g fill="#747e6c"><path d="M208.6 231.3h-17.9l-58-57.6h17.9zM262.7 231.3h-37.4l-58-57.6h37.3z" clip-path="url(#a)" fill="#747e6c" opacity="1" data-original="#747e6c"></path></g><path fill="#323d2c" d="m195.2 212.7-20.4-3.2V182h20.4z" opacity="1" data-original="#323d2c"></path><path fill="#485143" d="M5 205.5h20.8" opacity="1" data-original="#485143"></path></g></svg>