<svg xmlns="http://www.w3.org/2000/svg" version="1.1" xmlns:xlink="http://www.w3.org/1999/xlink" width="512" height="512" x="0" y="0" viewBox="0 0 468 468" style="enable-background:new 0 0 512 512" xml:space="preserve" class=""><g><path fill="#e6edef" d="M267.747 255.179H12.518V77.282c0-11.046 8.954-20 20-20h215.229c11.046 0 20 8.954 20 20z" opacity="1" data-original="#e6edef" class=""></path><path fill="#ffffff" d="M22.781 255.179V77.551c0-5.523 4.477-10 10-10h214.703c5.523 0 10 4.477 10 10v177.627H22.781z" opacity="1" data-original="#ffffff" class=""></path><path fill="#b0bec5" d="M280.265 255.179H0v15.57c0 16.569 13.431 30 30 30h220.265c16.569 0 30-13.431 30-30z" opacity="1" data-original="#b0bec5"></path><path fill="#97a9af" d="M11.289 269.942v-14.763H0v14.763c0 17.014 13.785 30.807 30.789 30.807h11.289c-17.004 0-30.789-13.793-30.789-30.807z" opacity="1" data-original="#97a9af"></path><path fill="#333333" d="M140.132 5C108.155 5 81.635 28.377 76.71 58.983c-2.955 18.362-7.144 36.482-11.773 54.486-4.816 19.43 9.877 38.223 29.884 38.223h90.623c20.007 0 34.7-18.793 29.884-38.223-4.63-18.007-8.818-36.12-11.773-54.486C198.63 28.377 172.11 5 140.132 5z" opacity="1" data-original="#333333" class=""></path><path fill="#ff4d96" d="M222.773 255.179H57.492V213.28c0-45.667 36.999-82.688 82.64-82.688s82.64 37.021 82.64 82.688v41.899z" opacity="1" data-original="#ff4d96"></path><path fill="#e0177c" d="M145.632 130.795c-1.82-.12-3.65-.203-5.5-.203-45.641 0-82.64 37.021-82.64 82.688v41.898h11V213.28c0-43.815 34.067-79.65 77.14-82.485z" opacity="1" data-original="#e0177c"></path><path fill="#ffaa99" d="M140.632 174.799h-1c-10.493 0-19-8.507-19-19v-55.337h39v55.337c0 10.493-8.506 19-19 19z" opacity="1" data-original="#ffaa99"></path><path fill="#e0177c" d="M183.627 212.026a6.16 6.16 0 0 0-6.158 6.161v36.992h12.316v-36.992a6.16 6.16 0 0 0-6.158-6.161zM96.637 212.026a6.16 6.16 0 0 0-6.158 6.161v36.992h12.316v-36.992a6.16 6.16 0 0 0-6.158-6.161z" opacity="1" data-original="#e0177c"></path><path fill="#ffc3b3" d="M143.707 46.401c0 16.368-13.261 29.637-29.62 29.637a29.478 29.478 0 0 1-17.715-5.883v31.459c0 24.27 19.592 43.945 43.76 43.945s43.76-19.675 43.76-43.945V71.047c0-13.611-11.028-24.646-24.632-24.646z" opacity="1" data-original="#ffc3b3" class=""></path><path fill="#e6edef" d="M455.888 418.844H208.925V247.087c0-11.046 8.954-20 20-20h206.963c11.046 0 20 8.954 20 20z" opacity="1" data-original="#e6edef" class=""></path><path fill="#ffffff" d="M219.189 418.844V247.356c0-5.523 4.477-10 10-10h206.436c5.523 0 10 4.477 10 10v171.488z" opacity="1" data-original="#ffffff" class=""></path><path fill="#b0bec5" d="M468 418.844H196.813V433c0 16.569 13.431 30 30 30H438c16.569 0 30-13.431 30-30z" opacity="1" data-original="#b0bec5"></path><path fill="#97a9af" d="M206.049 432.193v-13.349h-9.237v13.349c0 17.014 13.785 30.807 30.789 30.807h9.237c-17.003 0-30.789-13.793-30.789-30.807z" opacity="1" data-original="#97a9af"></path><path fill="#333333" d="M406.091 239.738c0-7.753-4.239-14.505-10.521-18.119 9.683-12.146 1.231-32.318-14.377-33.821 0-15.932-17.442-25.735-30.874-18.547-7.158-15.672-29.874-16.132-37.733-.896-13.188-5.429-29.08 4.37-28.968 19.443-15.607 1.504-24.06 21.676-14.377 33.821-6.282 3.614-10.521 10.367-10.521 18.119 0 8.856 5.525 16.409 13.318 19.463-4.755 12.399 5.884 28.383 19.58 28.383h81.573c13.696 0 24.335-15.984 19.58-28.383 7.795-3.053 13.32-10.607 13.32-19.463z" opacity="1" data-original="#333333" class=""></path><path fill="#923eff" d="M412.37 418.844H252.443v-40.711c0-44.188 35.801-80.01 79.964-80.01s79.964 35.821 79.964 80.01v40.711z" opacity="1" data-original="#923eff"></path><path fill="#6d19f2" d="M337.906 298.333a80.724 80.724 0 0 0-5.5-.209c-44.163 0-79.964 35.821-79.964 80.01v40.711h11v-40.711c.001-42.338 32.87-76.971 74.464-79.801z" opacity="1" data-original="#6d19f2"></path><path fill="#ffaa99" d="M332.906 340.957h-1c-10.493 0-19-8.507-19-19v-53.031h39v53.031c0 10.494-8.506 19-19 19z" opacity="1" data-original="#ffaa99"></path><path fill="#ffc3b3" d="M358.837 216.786c-5.137-.024-12.681-6.969-12.681-6.969s-8.188 10.66-13.749 10.66c-5.402 0-13.468-11.084-13.468-11.084s-8.256 7.37-13.802 7.397c-8.336.04-15.072 6.812-15.072 15.153v38.42c0 23.517 18.957 42.582 42.342 42.582s42.342-19.064 42.342-42.582v-38.42c0-8.341-6.736-15.113-15.072-15.153z" opacity="1" data-original="#ffc3b3" class=""></path><path fill="#6d19f2" d="M374.492 376.839a6.16 6.16 0 0 0-6.158 6.161v35.844h12.316V383a6.16 6.16 0 0 0-6.158-6.161zM290.32 376.839a6.16 6.16 0 0 0-6.158 6.161v35.844h12.316V383a6.16 6.16 0 0 0-6.158-6.161z" opacity="1" data-original="#6d19f2"></path><path fill="#7af4c2" d="M338.718 13.215h116.966c6.802 0 12.316 5.517 12.316 12.323v49.281c0 6.806-5.514 12.323-12.316 12.323h-156l26.718-28.259V25.538c0-6.806 5.514-12.323 12.316-12.323z" opacity="1" data-original="#7af4c2"></path><path fill="#29cc6e" d="M338.718 13.215h116.966c6.802 0 12.316 5.517 12.316 12.323v49.281c0 6.806-5.514 12.323-12.316 12.323h-156l26.718-28.259V25.538c0-6.806 5.514-12.323 12.316-12.323z" opacity="1" data-original="#29cc6e"></path><path fill="#22af49" d="M455.684 13.215h-8.211c6.802 0 12.316 5.517 12.316 12.323v49.281c0 6.806-5.514 12.323-12.316 12.323h8.211c6.802 0 12.316-5.517 12.316-12.323V25.538c0-6.806-5.514-12.323-12.316-12.323z" opacity="1" data-original="#22af49"></path><path fill="#ffffff" d="M433.891 56.678h-73.679a6 6 0 0 1 0-12h73.679a6 6 0 0 1 0 12z" opacity="1" data-original="#ffffff" class=""></path><path fill="#7af4c2" d="M129.282 444.516H12.316C5.514 444.516 0 438.999 0 432.193v-49.281c0-6.806 5.514-12.323 12.316-12.323h156l-26.718 28.259v33.345c0 6.806-5.514 12.323-12.316 12.323z" opacity="1" data-original="#7af4c2"></path><path fill="#29cc6e" d="M129.282 444.516H12.316C5.514 444.516 0 438.999 0 432.193v-49.281c0-6.806 5.514-12.323 12.316-12.323h156l-26.718 28.259v33.345c0 6.806-5.514 12.323-12.316 12.323z" opacity="1" data-original="#29cc6e"></path><path fill="#22af49" d="M12.316 444.516h10.263c-6.802 0-12.316-5.517-12.316-12.323v-49.281c0-6.806 5.514-12.323 12.316-12.323H12.316C5.514 370.589 0 376.106 0 382.912v49.281c0 6.806 5.514 12.323 12.316 12.323z" opacity="1" data-original="#22af49"></path><path fill="#ffffff" d="M107.788 413.053H34.109a6 6 0 0 1 0-12h73.679a6 6 0 0 1 0 12z" opacity="1" data-original="#ffffff" class=""></path></g></svg>