<svg xmlns="http://www.w3.org/2000/svg" version="1.1" xmlns:xlink="http://www.w3.org/1999/xlink" width="512" height="512" x="0" y="0" viewBox="0 0 58 58" style="enable-background:new 0 0 512 512" xml:space="preserve" class=""><g><g fill="none" fill-rule="evenodd"><rect width="40" height="16" x="9" y="42" fill="#4fb96f" rx="8" opacity="1" data-original="#4fb96f"></rect><rect width="58" height="16" y="21" fill="#3b96d2" rx="4" opacity="1" data-original="#3b96d2" class=""></rect><rect width="58" height="16" fill="#3b96d2" rx="4" opacity="1" data-original="#3b96d2" class=""></rect><path fill="#efc319" d="M16 27v4a2.006 2.006 0 0 1-2 2H6a2.006 2.006 0 0 1-2-2v-4a1.961 1.961 0 0 1 .68-1.49l4.11 3.09c.72.53 1.7.53 2.42 0l4.11-3.09c.433.374.682.918.68 1.49z" opacity="1" data-original="#efc319"></path><path fill="#f2d45b" d="m15.32 25.51-4.11 3.09c-.72.53-1.7.53-2.42 0l-4.11-3.09A1.94 1.94 0 0 1 6 25h8c.489-.002.96.18 1.32.51z" opacity="1" data-original="#f2d45b"></path><circle cx="10" cy="6" r="2" fill="#fcd6ac" opacity="1" data-original="#fcd6ac"></circle><path fill="#285680" d="M13 11a1 1 0 0 1-1 1H8a1 1 0 0 1-1-1 3 3 0 0 1 6 0z" opacity="1" data-original="#285680"></path><g fill="#fff"><path d="M26 28h-5a1 1 0 0 1 0-2h5a1 1 0 0 1 0 2zM52 32H21a1 1 0 0 1 0-2h31a1 1 0 0 1 0 2zM26 7h-5a1 1 0 0 1 0-2h5a1 1 0 0 1 0 2zM52 11H21a1 1 0 0 1 0-2h31a1 1 0 0 1 0 2zM26 54a1 1 0 0 1-.707-.293l-2-2a1 1 0 0 1 1.414-1.414l1.387 1.387L33.4 46.2a1 1 0 0 1 1.2 1.6l-8 6a.993.993 0 0 1-.6.2z" fill="#ffffff" opacity="1" data-original="#ffffff"></path></g></g></g></svg>