<svg xmlns="http://www.w3.org/2000/svg" version="1.1" xmlns:xlink="http://www.w3.org/1999/xlink" width="512" height="512" x="0" y="0" viewBox="0 0 512 512" style="enable-background:new 0 0 512 512" xml:space="preserve" class=""><g><g fill-rule="evenodd" clip-rule="evenodd"><path fill="#ffe177" d="M171.278 61.57a7.988 7.988 0 0 1 10.687-11.875l28.376 25.551a7.988 7.988 0 0 1-10.687 11.875zm158.76-11.875a7.988 7.988 0 0 1 10.687 11.875l-28.542 25.7a7.988 7.988 0 0 1-10.687-11.875zm-66.036-6.649a8 8 0 0 1-16 0V13.687a8 8 0 0 1 16 0zM259.142 74.929l16.122 42.464a3.298 3.298 0 0 0 2.977 2.163l45.367 2.211a3.306 3.306 0 0 1 3.031 2.317 3.306 3.306 0 0 1-1.09 3.656l-35.403 28.455a3.298 3.298 0 0 0-1.137 3.499l11.916 43.83c.373 1.373-.116 2.762-1.267 3.598s-2.623.872-3.814.093l-38.003-24.877a3.296 3.296 0 0 0-3.679 0l-38.002 24.877a3.305 3.305 0 0 1-3.813-.093 3.305 3.305 0 0 1-1.267-3.598l11.916-43.83a3.298 3.298 0 0 0-1.137-3.499l-35.403-28.455a3.304 3.304 0 0 1-1.09-3.656 3.306 3.306 0 0 1 3.031-2.317l45.367-2.211a3.295 3.295 0 0 0 2.976-2.163l16.122-42.464c.505-1.33 1.717-2.166 3.14-2.166s2.635.836 3.14 2.166z" opacity="1" data-original="#ffe177"></path><path fill="#ffd064" d="m259.142 74.929 16.122 42.464-4.124-.201a3.298 3.298 0 0 1-2.977-2.163L252.901 74.83c.526-1.273 1.696-2.068 3.101-2.068a3.324 3.324 0 0 1 3.14 2.167zm52.142 46.237 12.324.601a3.306 3.306 0 0 1 3.031 2.317 3.306 3.306 0 0 1-1.09 3.656l-35.403 28.455a3.298 3.298 0 0 0-1.137 3.499l11.916 43.83c.373 1.373-.116 2.762-1.267 3.598s-2.623.872-3.814.093l-38.003-24.877a3.296 3.296 0 0 0-3.679 0l-38.002 24.877a3.305 3.305 0 0 1-3.813-.093 3.305 3.305 0 0 1-1.267-3.598l3.152-11.593 29.93-19.593a3.296 3.296 0 0 1 3.679 0l38.003 24.877c1.191.779 2.663.743 3.814-.093s1.64-2.226 1.266-3.598l-11.916-43.83a3.298 3.298 0 0 1 1.137-3.499zm-98.186 27.987c.126-1.132-.321-2.221-1.24-2.959l-26.644-21.415c-.125 1.124.321 2.221 1.241 2.96z" opacity="1" data-original="#ffd064"></path><path fill="#ffe177" d="m435.805 74.929 16.122 42.464a3.298 3.298 0 0 0 2.977 2.163l45.367 2.211a3.306 3.306 0 0 1 3.031 2.317 3.306 3.306 0 0 1-1.09 3.656l-35.403 28.455a3.298 3.298 0 0 0-1.137 3.499l11.916 43.83c.373 1.373-.116 2.762-1.267 3.598s-2.623.872-3.814.093l-38.003-24.877a3.296 3.296 0 0 0-3.679 0l-38.002 24.877a3.305 3.305 0 0 1-3.813-.093 3.305 3.305 0 0 1-1.267-3.598l11.916-43.83a3.298 3.298 0 0 0-1.137-3.499l-35.403-28.455a3.304 3.304 0 0 1-1.09-3.656 3.306 3.306 0 0 1 3.031-2.317l45.367-2.211a3.295 3.295 0 0 0 2.976-2.163l16.122-42.464c.505-1.33 1.717-2.166 3.14-2.166s2.635.836 3.14 2.166z" opacity="1" data-original="#ffe177"></path><path fill="#ffd064" d="m435.805 74.929 16.122 42.464-4.124-.201a3.297 3.297 0 0 1-2.977-2.163L429.565 74.83c.526-1.273 1.696-2.068 3.101-2.068a3.324 3.324 0 0 1 3.139 2.167zm52.142 46.237 12.324.601a3.306 3.306 0 0 1 3.031 2.317 3.306 3.306 0 0 1-1.09 3.656l-35.403 28.455a3.298 3.298 0 0 0-1.137 3.499l11.916 43.83c.373 1.373-.116 2.762-1.267 3.598s-2.623.872-3.814.093l-38.003-24.877a3.296 3.296 0 0 0-3.679 0l-38.002 24.877a3.305 3.305 0 0 1-3.813-.093 3.305 3.305 0 0 1-1.267-3.598l3.152-11.593 29.931-19.593a3.296 3.296 0 0 1 3.679 0l38.003 24.877c1.19.779 2.663.743 3.814-.093s1.64-2.226 1.267-3.598l-11.916-43.83a3.298 3.298 0 0 1 1.137-3.499zm-98.186 27.987c.125-1.132-.321-2.221-1.24-2.959l-26.644-21.415c-.125 1.124.321 2.221 1.241 2.96z" opacity="1" data-original="#ffd064"></path><path fill="#ffe177" d="m81.949 74.929 16.122 42.464a3.298 3.298 0 0 0 2.977 2.163l45.367 2.211a3.306 3.306 0 0 1 3.031 2.317 3.306 3.306 0 0 1-1.09 3.656l-35.403 28.455a3.298 3.298 0 0 0-1.137 3.499l11.916 43.83c.373 1.373-.116 2.762-1.267 3.598s-2.623.872-3.814.093l-38.003-24.877a3.296 3.296 0 0 0-3.679 0l-38.002 24.877a3.305 3.305 0 0 1-3.813-.093 3.305 3.305 0 0 1-1.267-3.598l11.916-43.83a3.298 3.298 0 0 0-1.137-3.499L9.263 127.739a3.304 3.304 0 0 1-1.09-3.656 3.306 3.306 0 0 1 3.031-2.317l45.367-2.211a3.295 3.295 0 0 0 2.976-2.163L75.67 74.929c.505-1.33 1.717-2.166 3.14-2.166s2.634.836 3.139 2.166z" opacity="1" data-original="#ffe177"></path><path fill="#ffd064" d="m81.949 74.929 16.122 42.464-4.124-.201a3.297 3.297 0 0 1-2.977-2.163L75.709 74.83c.526-1.273 1.696-2.068 3.101-2.068s2.635.837 3.139 2.167zm52.143 46.237 12.324.601a3.306 3.306 0 0 1 3.031 2.317 3.306 3.306 0 0 1-1.09 3.656l-35.403 28.455a3.298 3.298 0 0 0-1.137 3.499l11.916 43.83c.373 1.373-.116 2.762-1.267 3.598s-2.623.872-3.814.093l-38.003-24.877a3.296 3.296 0 0 0-3.679 0l-38.002 24.877a3.305 3.305 0 0 1-3.813-.093 3.305 3.305 0 0 1-1.267-3.598l3.152-11.593 29.931-19.593a3.296 3.296 0 0 1 3.679 0l38.003 24.877c1.191.779 2.663.743 3.814-.093s1.64-2.226 1.266-3.598l-11.916-43.83a3.298 3.298 0 0 1 1.137-3.499zm-98.187 27.987c.126-1.132-.321-2.221-1.24-2.959L8.022 124.779c-.125 1.124.321 2.221 1.241 2.96z" opacity="1" data-original="#ffd064"></path><path fill="#6cf5c2" d="M88.253 368.843c37.305 0 68.865 24.595 79.349 58.454 1.842 5.949.841 11.867-2.854 16.88s-9.053 7.719-15.28 7.719H27.038c-6.227 0-11.585-2.707-15.28-7.719s-4.696-10.931-2.854-16.88c10.485-33.859 42.046-58.454 79.349-58.454z" opacity="1" data-original="#6cf5c2"></path><path fill="#00e499" d="M88.254 368.843c37.304 0 68.865 24.595 79.349 58.454 1.842 5.949.841 11.867-2.854 16.88s-9.053 7.719-15.28 7.719h-22.432c6.228 0 11.585-2.706 15.28-7.719 3.695-5.012 4.697-10.931 2.854-16.88-9.416-30.406-35.828-53.337-68.133-57.698a83.654 83.654 0 0 1 11.216-.756z" opacity="1" data-original="#00e499"></path><circle cx="88.254" cy="315.635" r="41.991" fill="#f6dccd" opacity="1" data-original="#f6dccd"></circle><path fill="#f1cbbc" d="M88.254 273.644c23.191 0 41.991 18.801 41.991 41.991s-18.8 41.991-41.991 41.991c-1.902 0-3.773-.129-5.608-.374 20.539-2.741 36.383-20.329 36.383-41.618s-15.844-38.876-36.383-41.618a42.679 42.679 0 0 1 5.608-.372z" opacity="1" data-original="#f1cbbc"></path><path fill="#6cf5c2" d="M423.749 368.843c37.305 0 68.865 24.595 79.349 58.454 1.842 5.949.841 11.867-2.854 16.88s-9.052 7.719-15.28 7.719H362.533c-6.227 0-11.585-2.707-15.28-7.719s-4.696-10.931-2.854-16.88c10.485-33.859 42.046-58.454 79.35-58.454z" opacity="1" data-original="#6cf5c2"></path><path fill="#00e499" d="M423.749 368.843c37.305 0 68.865 24.595 79.349 58.454 1.842 5.949.841 11.867-2.854 16.88s-9.052 7.719-15.28 7.719h-22.432c6.228 0 11.585-2.706 15.28-7.719 3.695-5.012 4.696-10.931 2.854-16.88-9.416-30.406-35.828-53.337-68.133-57.698a83.665 83.665 0 0 1 11.216-.756z" opacity="1" data-original="#00e499"></path><circle cx="423.75" cy="315.635" r="41.991" fill="#f6dccd" opacity="1" data-original="#f6dccd"></circle><path fill="#f1cbbc" d="M423.75 273.644c23.191 0 41.991 18.801 41.991 41.991s-18.8 41.991-41.991 41.991c-1.902 0-3.773-.129-5.608-.374 20.539-2.741 36.383-20.329 36.383-41.618s-15.844-38.876-36.383-41.618a42.679 42.679 0 0 1 5.608-.372z" opacity="1" data-original="#f1cbbc"></path><path fill="#8ac9fe" d="M366.374 454.208c-5.96-55.692-53.099-99.067-110.372-99.067-57.274 0-104.413 43.375-110.373 99.068v22.438c0 16.34 13.327 29.667 29.667 29.667h161.411c16.34 0 29.667-13.327 29.667-29.667z" opacity="1" data-original="#8ac9fe"></path><path fill="#60b7ff" d="M366.374 454.208c-5.96-55.692-53.099-99.067-110.372-99.067-4.57 0-9.075.279-13.5.815 51.033 6.188 91.388 47.004 96.873 98.252v22.438c0 16.34-13.327 29.667-29.667 29.667h27c16.34 0 29.667-13.327 29.667-29.667v-22.438z" opacity="1" data-original="#60b7ff"></path><circle cx="256.002" cy="289.012" r="56.129" fill="#f6dccd" transform="rotate(-85.93 255.89 288.863)" opacity="1" data-original="#f6dccd"></circle><path fill="#f1cbbc" d="M256.002 232.884c30.999 0 56.129 25.13 56.129 56.128 0 30.999-25.13 56.129-56.129 56.129-2.424 0-4.813-.154-7.156-.452 27.619-3.515 48.972-27.102 48.972-55.676s-21.353-52.161-48.972-55.676a56.518 56.518 0 0 1 7.156-.453z" opacity="1" data-original="#f1cbbc"></path></g></g></svg>