<svg width="20" height="20" viewBox="0 0 20 20" fill="none" xmlns="http://www.w3.org/2000/svg">
<path d="M12.6806 5H10.7337C10.7291 5 10.7247 5.00015 10.7204 5.00059C8.7547 5.00679 8.49798 6.37936 8.49695 7.57902C8.4943 7.59023 8.49282 7.60174 8.49282 7.61369V8.45585H7.14754C7.0661 8.45585 7 8.52195 7 8.60339V10.6803C7 10.7619 7.0661 10.8279 7.14754 10.8279H8.49282V15.3856C8.49282 15.4671 8.55892 15.5331 8.64036 15.5331H10.6037C10.6853 15.5331 10.7512 15.4671 10.7512 15.3856V10.828H12.6805C12.7621 10.828 12.828 10.7621 12.828 10.6805V8.60354C12.828 8.5221 12.7621 8.456 12.6805 8.456H10.6037V7.33956H12.6805C12.7621 7.33956 12.828 7.27346 12.828 7.19202V5.14754C12.8282 5.0661 12.7621 5 12.6806 5Z" fill="#FF3600"/>
<circle cx="10" cy="10" r="9.5" stroke="#FF3600"/>
</svg>
