<svg xmlns="http://www.w3.org/2000/svg" version="1.1" xmlns:xlink="http://www.w3.org/1999/xlink" width="512" height="512" x="0" y="0" viewBox="0 0 24 24" style="enable-background:new 0 0 512 512" xml:space="preserve" class=""><g><path fill="#3b5999" d="M21 0H3C1.345 0 0 1.345 0 3v18c0 1.654 1.345 3 3 3h18c1.654 0 3-1.346 3-3V3c0-1.655-1.346-3-3-3z" opacity="1" data-original="#3b5999" class=""></path><path fill="#ffffff" d="M16.5 12V9c0-.828.672-.75 1.5-.75h1.5V4.5h-3A4.5 4.5 0 0 0 12 9v3H9v3.75h3V24h4.5v-8.25h2.25l1.5-3.75z" opacity="1" data-original="#ffffff"></path></g></svg>