<svg width="197" height="101" viewBox="0 0 197 101" fill="none" xmlns="http://www.w3.org/2000/svg">
<path d="M195.614 47.7351C199.378 43.0557 182.557 49.8855 161.096 24.0456C139.629 -1.8287 126.343 0.0293019 107.097 0.0293019C87.8517 0.0293019 76.2674 20.8113 65.8764 36.5011C55.4855 52.1908 65.7051 47.1157 33.0025 57.2831C0.299866 67.4161 0.299866 100.654 0.299866 100.654C0.299866 100.654 8.79924 70.9944 44.4027 70.9944C80.0061 70.9944 174.781 73.6438 195.614 47.7351ZM66.5429 51.3478C70.0912 43.3653 84.3288 13.1213 97.3032 10.1795C112.264 6.79034 132.139 5.25922 143.831 18.4888C155.523 31.7185 157.18 47.3394 157.18 47.3394L66.8032 53.1886C66.435 53.223 66.2573 51.9844 66.5429 51.3478Z" fill="#FF3600"/>
<path d="M51.1374 78.4671C17.7556 70.5878 3.20703 100.66 3.20703 100.66C3.20703 100.66 22.8146 75.4736 51.7468 89.6667C80.6789 103.86 117.501 100.092 136.277 95.2751C172.566 85.9335 196.763 53.2637 196.763 53.2637C122.497 97.1503 84.5192 86.3636 51.1374 78.4671Z" fill="#FF3600"/>
<path d="M70.8593 50.3342H77.0175C77.7793 50.3342 78.4903 48.9233 78.611 46.8757C78.7697 44.2775 78.0332 42.0234 77.1 42.0234H73.4241C72.6623 42.0234 71.9322 42.8838 71.4053 44.3807L70.3831 47.3231C69.9895 48.4759 70.2815 50.3342 70.8593 50.3342Z" fill="#FF3600"/>
<path d="M193.703 61.8657C174.178 88.0153 154.653 92.5743 154.653 92.5743C186.048 92.1614 193.703 61.8657 193.703 61.8657Z" fill="#FF3600"/>
</svg>
