<?xml version="1.0" encoding="UTF-8"?>
<svg id="Layer_1" xmlns="http://www.w3.org/2000/svg" version="1.1" viewBox="0 0 60 60">
  <!-- Generator: Adobe Illustrator 29.3.1, SVG Export Plug-In . SVG Version: 2.1.0 Build 151)  -->
  <defs>
    <style>
      .st0 {
        fill: #fff;
        fill-rule: evenodd;
      }

      .st1 {
        fill: #ff3600;
      }
    </style>
  </defs>
  <path class="st1" d="M30,0h0c16.6,0,30,13.4,30,30h0c0,16.6-13.4,30-30,30h0C13.4,60,0,46.6,0,30h0C0,13.4,13.4,0,30,0Z"/>
  <g>
    <path class="st0" d="M24.9,33.6h6.9c.3,0,.5-.2.5-.5s-.2-.5-.5-.5h-6.9c-.3,0-.5.2-.5.5s.2.5.5.5Z"/>
    <path class="st0" d="M29.2,33.1v12.4c0,.3.2.5.5.5s.5-.2.5-.5v-12.4c0-.3-.2-.5-.5-.5s-.5.2-.5.5ZM18.2,14c-2,0-3.6,1.6-3.6,3.6s1.6,3.6,3.6,3.6,3.6-1.6,3.6-3.6-1.6-3.6-3.6-3.6ZM18.2,15c1.4,0,2.6,1.2,2.6,2.6s-1.2,2.6-2.6,2.6-2.6-1.2-2.6-2.6,1.2-2.6,2.6-2.6ZM41.8,14c-2,0-3.6,1.6-3.6,3.6s1.6,3.6,3.6,3.6,3.6-1.6,3.6-3.6-1.6-3.6-3.6-3.6ZM41.8,15c1.4,0,2.6,1.2,2.6,2.6s-1.2,2.6-2.6,2.6-2.6-1.2-2.6-2.6,1.2-2.6,2.6-2.6ZM21,28.6c0,.2.3.3.5.3h.2s4.7-1.9,4.7-1.9c.7-.3,1.6,0,1.8.8.3.7,0,1.6-.8,1.8l-6.2,2.5c-.6.2-1.3,0-1.7-.5-.1-.2-.4-.2-.6-.2-.2,0-.3.3-.3.5v2.6c0,.3.2.5.5.5l4.2.5c1,.1,1.7.9,1.7,1.9v8c0,.3.2.5.5.5s.5-.2.5-.5v-8c0-1.5-1.1-2.8-2.6-3l-3.7-.4v-1.1c.6.3,1.3.3,1.9,0l6.2-2.5c1.3-.5,1.9-1.9,1.4-3.2s-1.9-1.9-3.2-1.4l-4.3,1.7-2.5-4.1c-.4-.6-.9-1-1.6-1.1,0,0,0,0,0,0-.7-.1-1.4,0-2,.4-.6.4-.9,1.1-1,1.8-.3,4-.9,11.9-.9,11.9,0,0,0,0,0,0,0,1.5,1.1,2.8,2.6,3l3.7.5v5.3c0,.3.2.5.5.5s.5-.2.5-.5v-5.8c0-.3-.2-.5-.4-.5l-4.2-.5c-1-.1-1.7-.9-1.7-1.9,0,0,.9-11.9.9-11.9,0-.4.2-.8.6-1,.3-.2.7-.3,1.1-.3h0c.4,0,.7.3.9.7.8,1.3,2.4,3.8,2.7,4.4,0,0,0,0,0,0h0Z"/>
    <path class="st0" d="M17,29.4l1.7,2.7c.6,1,1.9,1.4,3,1,.3-.1.4-.4.3-.7-.1-.3-.4-.4-.7-.3-.6.3-1.4,0-1.7-.6l-1.7-2.7c-.1-.2-.5-.3-.7-.2-.2.1-.3.5-.2.7h0ZM37.8,28.5l-5,.7c-1.3.2-2.3,1.4-2.1,2.8.2,1.3,1.4,2.3,2.8,2.1l6.1-.9c.2,0,.5-.1.7-.2v1.1l-3.7.4c-1.5.2-2.6,1.4-2.6,3v8c0,.3.2.5.5.5s.5-.2.5-.5v-8c0-1,.7-1.8,1.7-1.9l4.2-.5h0c.3,0,.5-.2.5-.5v-2.6c0-.2-.1-.4-.3-.5-.2,0-.4,0-.6.2-.2.3-.6.5-.9.5l-6.1.9c-.8.1-1.5-.4-1.6-1.2-.1-.8.4-1.5,1.2-1.6l5.2-.7h0s.4-.2.4-.2l2.8-4.5c.4-.6,1-.9,1.7-.9h0c.9,0,1.6.8,1.7,1.7l.5,11.2c0,1-.7,1.8-1.7,1.9l-4.1.5c-.3,0-.5.2-.5.5v5.8c0,.3.1.5.4.5.3,0,.5-.2.5-.5v-5.4c0,0,3.7-.4,3.7-.4,1.5-.2,2.6-1.4,2.6-3s0,0,0,0l-.5-11.2c0-1.4-1.2-2.6-2.6-2.7,0,0,0,0,0,0-1.1,0-2.1.4-2.6,1.4l-2.7,4.3ZM34.9,15.5c0-.4-.2-.8-.5-1.1-.3-.3-.7-.5-1.1-.5h-7.2c-.9,0-1.5.7-1.5,1.5v6.5c0,.3.2.6.5.8.3.1.7,0,.9-.1.5-.4,1.2-1,1.6-1.4,0,0,.2-.1.3-.1h5.4c.4,0,.8-.2,1.1-.5.3-.3.5-.7.5-1.1v-4.1h0ZM25.6,21.7v-6.2c0-.3.2-.5.5-.5h7.2c.1,0,.3,0,.4.2,0,0,.2.2.2.4v4.1c0,.1,0,.3-.2.4,0,0-.2.2-.4.2h-5.4c-.4,0-.7.1-1,.4l-1.3,1.1Z"/>
    <path class="st0" d="M27.4,17.2h4.7c.3,0,.5-.2.5-.5s-.2-.5-.5-.5h-4.7c-.3,0-.5.2-.5.5s.2.5.5.5h0ZM27.4,19.1h2.3c.3,0,.5-.2.5-.5s-.2-.5-.5-.5h-2.3c-.3,0-.5.2-.5.5,0,.3.2.5.5.5ZM38.1,33.4l1.5-.2c.7-.1,1.4-.5,1.7-1.1l1.7-2.7c.1-.2,0-.6-.2-.7-.2-.1-.6,0-.7.2l-1.7,2.7c-.2.4-.6.6-1,.7l-1.5.2c-.3,0-.5.3-.4.6,0,.3.3.5.6.4h0Z"/>
  </g>
</svg>