<svg width="62" height="63" viewBox="0 0 62 63" fill="none" xmlns="http://www.w3.org/2000/svg">
<circle cx="31" cy="31.5" r="31" fill="#FF3600"/>
<g clip-path="url(#clip0_385_193)">
<path d="M37.6855 25.8911L31.4593 36.4311C31.3089 36.6797 30.9849 36.7697 30.7288 36.6194C30.6459 36.5668 30.5785 36.4988 30.5407 36.4236L24.3145 25.8911C24.307 25.8759 24.2993 25.8608 24.2919 25.8533C23.9907 25.2963 23.7498 24.7016 23.5917 24.0766C23.426 23.4593 23.3431 22.8194 23.3431 22.1566C23.3431 20.0409 24.2013 18.1287 25.5866 16.7435C26.9721 15.3582 28.8846 14.5 31 14.5C33.1157 14.5 35.0279 15.3582 36.4134 16.7435C37.7987 18.1287 38.6569 20.0412 38.6569 22.1566C38.6569 22.8191 38.5663 23.459 38.4083 24.0766C38.2425 24.7165 38.0016 25.3189 37.693 25.8759L37.6855 25.8911ZM31 35.1215L36.7673 25.3489H36.7747C37.0382 24.8671 37.2417 24.355 37.3846 23.8131C37.5203 23.2861 37.5952 22.7362 37.5952 22.1566C37.5952 20.3347 36.8576 18.6857 35.6604 17.4962C34.4709 16.2991 32.8219 15.5614 31 15.5614C29.1781 15.5614 27.5293 16.2991 26.3399 17.4962C25.1424 18.6857 24.4048 20.3347 24.4048 22.1566C24.4048 22.7362 24.4802 23.2858 24.6157 23.8131C24.7514 24.3475 24.9621 24.8594 25.2181 25.334L25.2256 25.3492L31 35.1215Z" fill="white"/>
<path d="M31 17.7523C32.2123 17.7523 33.3189 18.2493 34.1097 19.0398C34.9076 19.8377 35.4043 20.9372 35.4043 22.1566C35.4043 23.3687 34.9076 24.4753 34.1097 25.2735C33.3189 26.0643 32.2123 26.561 31 26.561C29.7803 26.561 28.6814 26.064 27.8832 25.2735C27.0852 24.4753 26.5957 23.3687 26.5957 22.1566C26.5957 20.9369 27.0852 19.8377 27.8832 19.0398C28.6814 18.2493 29.7803 17.7523 31 17.7523ZM31 20.2218C31.5347 20.2218 32.0165 20.4402 32.3701 20.7866C32.3775 20.8017 32.3852 20.8091 32.4001 20.8243C32.7316 21.1706 32.9348 21.6374 32.9348 22.1569C32.9348 22.6914 32.7167 23.1732 32.3627 23.5196L32.3701 23.527C32.0165 23.8734 31.5344 24.0915 31 24.0915C30.4656 24.0915 29.9837 23.8731 29.6373 23.527L29.6299 23.5196C29.2835 23.1732 29.0652 22.6839 29.0652 22.1569C29.0652 21.6222 29.2835 21.1406 29.6299 20.7943V20.7868H29.6373C29.9837 20.4402 30.4653 20.2218 31 20.2218ZM31.6176 21.5393C31.4593 21.381 31.2412 21.2835 31 21.2835C30.7591 21.2835 30.5407 21.3813 30.3827 21.5393C30.2246 21.6974 30.1269 21.9157 30.1269 22.1566C30.1269 22.3976 30.2246 22.6159 30.3827 22.774C30.541 22.932 30.7591 23.03 31 23.03C31.2412 23.03 31.4593 22.932 31.6176 22.774C31.7756 22.6159 31.8736 22.3976 31.8736 22.1566C31.8736 21.9232 31.7831 21.7125 31.6402 21.5619C31.6327 21.5545 31.6253 21.5468 31.6176 21.5393ZM33.3641 19.7926C32.7542 19.1901 31.9188 18.8138 31 18.8138C30.074 18.8138 29.2381 19.1901 28.6362 19.7926C28.0338 20.3948 27.6574 21.2307 27.6574 22.1566C27.6574 23.0826 28.0338 23.9108 28.6362 24.5207C29.2384 25.1231 30.074 25.4995 31 25.4995C31.9188 25.4995 32.7542 25.1231 33.3641 24.5207C33.9665 23.9108 34.3429 23.0826 34.3429 22.1566C34.3429 21.2307 33.9665 20.3948 33.3641 19.7926Z" fill="white"/>
<path d="M18.743 16.7586C18.8787 16.5026 19.2023 16.4046 19.4583 16.5477C19.7144 16.6832 19.8121 17.007 19.669 17.2628C19.4735 17.6243 19.3 18.0007 19.1422 18.3922C18.9839 18.7761 18.8562 19.1676 18.743 19.5894C18.4043 20.8317 18.2989 22.0889 18.4043 23.301C18.5175 24.5659 18.8487 25.7856 19.3832 26.9074C19.5037 27.1709 19.3906 27.4872 19.1274 27.6076C18.8639 27.7356 18.5475 27.6227 18.4197 27.3589C17.8396 26.1166 17.4709 24.7765 17.3506 23.3913C17.2303 22.0587 17.3432 20.6809 17.7195 19.3108C17.8399 18.8666 17.983 18.4299 18.1565 18.0007C18.3292 17.5714 18.5249 17.1576 18.743 16.7586ZM42.3236 17.2628C42.1879 17.007 42.2859 16.6832 42.5419 16.5477C42.7975 16.4046 43.1138 16.5026 43.2567 16.7586C43.4751 17.1576 43.6711 17.5717 43.844 18.0007C44.0172 18.4299 44.1601 18.8666 44.281 19.3108C44.6499 20.6809 44.7626 22.0587 44.6499 23.3913C44.5296 24.7765 44.1604 26.1166 43.5808 27.3589C43.453 27.6224 43.1367 27.7353 42.8732 27.6076C42.6099 27.487 42.4968 27.1709 42.6174 26.9074C43.1441 25.7856 43.483 24.5659 43.5882 23.301C43.6937 22.0889 43.5957 20.8317 43.257 19.5894C43.1441 19.1679 43.0084 18.7761 42.858 18.3922C42.7 18.0007 42.5268 17.6243 42.3236 17.2628ZM40.2754 19.2204C40.1625 18.9492 40.2831 18.6332 40.554 18.5203C40.8252 18.4074 41.1341 18.5277 41.2545 18.7986C41.3296 18.9867 41.4128 19.1827 41.4879 19.4011C41.5631 19.612 41.6234 19.8226 41.676 20.0184C41.9169 20.8918 42.0149 21.78 41.9849 22.6459C41.9621 23.5419 41.7966 24.4227 41.518 25.2509C41.4276 25.5293 41.1264 25.6799 40.848 25.5896C40.5694 25.4919 40.4188 25.1909 40.5165 24.9123C40.7652 24.1818 40.9083 23.4064 40.9309 22.6159C40.9535 21.8554 40.8632 21.0724 40.6523 20.297C40.5997 20.0936 40.5391 19.9132 40.4865 19.7474C40.426 19.5745 40.3582 19.4011 40.2754 19.2204ZM20.7458 18.7989C20.8587 18.528 21.1748 18.4074 21.446 18.5205C21.7095 18.6334 21.8375 18.9495 21.7246 19.2207C21.6415 19.4013 21.574 19.5748 21.5137 19.7477C21.4534 19.9135 21.4008 20.0938 21.348 20.2973C21.1373 21.0727 21.047 21.8557 21.0696 22.6162C21.0922 23.4067 21.2351 24.1821 21.4837 24.9125C21.574 25.1912 21.4234 25.4921 21.1525 25.5899C20.8738 25.6802 20.5726 25.5296 20.4826 25.2512C20.1965 24.423 20.0382 23.5422 20.0082 22.6462C19.9856 21.7803 20.0833 20.892 20.3243 20.0187C20.3769 19.8229 20.4374 19.6122 20.5126 19.4013C20.5878 19.1827 20.6632 18.987 20.7458 18.7989Z" fill="white"/>
<path d="M47.6765 41.769C47.94 41.8822 48.0677 42.1909 47.9551 42.4618C47.8419 42.733 47.5259 42.8608 47.2624 42.7404L42.4591 40.6999C42.3762 40.6699 42.2936 40.6547 42.2104 40.6547C42.1353 40.6622 42.0601 40.6925 41.9772 40.7379L39.4022 42.2886C39.199 42.4092 38.9807 42.4844 38.7624 42.507C38.5515 42.5295 38.3408 42.507 38.1225 42.4544L32.2729 40.926C31.9868 40.8508 31.821 40.5647 31.889 40.2784C31.9642 39.9997 32.258 39.8265 32.5364 39.902L38.3939 41.4227C38.4842 41.4527 38.5746 41.4604 38.65 41.4527C38.7177 41.4453 38.7855 41.4227 38.8532 41.3775L41.4282 39.8265C41.654 39.6911 41.8949 39.6159 42.1432 39.6008C42.3919 39.5853 42.6328 39.6233 42.8734 39.7285L47.6765 41.769ZM29.8105 38.5545C30.0589 38.6974 30.1492 39.0212 29.9986 39.2772C29.8557 39.5333 29.5319 39.6162 29.2758 39.473L25.7749 37.4479C25.6843 37.3953 25.594 37.3575 25.5037 37.3501C25.4282 37.3424 25.3454 37.3575 25.2702 37.3878L21.5889 38.9083C21.2954 39.0286 20.9867 39.0589 20.6858 39.006C20.3923 38.9457 20.1136 38.8028 19.8801 38.5845L15.0994 33.9692C14.8885 33.766 14.8811 33.4348 15.0843 33.2239C15.2875 33.013 15.6264 33.0055 15.8371 33.2087L20.6178 37.8165C20.6932 37.8917 20.7835 37.9446 20.8813 37.9597C20.9793 37.9823 21.0847 37.9672 21.1899 37.9297L24.8641 36.4085C25.105 36.3107 25.3533 36.273 25.5943 36.2956C25.8503 36.3182 26.0838 36.4008 26.3096 36.5291L29.8105 38.5545Z" fill="white"/>
<path d="M31 37.6285C31.5801 37.6285 32.0994 37.8617 32.4832 38.2458C32.8596 38.6219 33.0931 39.1489 33.0931 39.7213C33.0931 40.3012 32.8596 40.8282 32.4832 41.2043C32.0994 41.5884 31.5801 41.8216 31 41.8216C30.4201 41.8216 29.8934 41.5884 29.5167 41.2043C29.1404 40.8282 28.9071 40.3012 28.9071 39.7213C28.9071 39.1492 29.1404 38.6219 29.5167 38.2458C29.8934 37.8617 30.4201 37.6285 31 37.6285ZM31.7305 38.9909C31.5421 38.8102 31.2863 38.6897 31 38.6897C30.7139 38.6897 30.4579 38.8102 30.2698 38.9909C30.0815 39.1792 29.9686 39.4353 29.9686 39.7213C29.9686 40.0074 30.0815 40.2709 30.2698 40.4518C30.4579 40.6399 30.7139 40.7605 31 40.7605C31.2863 40.7605 31.5421 40.6399 31.7305 40.4518C31.9188 40.2709 32.0317 40.0074 32.0317 39.7213C32.0317 39.4353 31.9188 39.1792 31.7305 38.9909Z" fill="white"/>
<path d="M25.007 29.422C25.2856 29.5046 25.4439 29.8058 25.3608 30.0845C25.2779 30.3631 24.9844 30.5289 24.6983 30.4386L23.8627 30.1899C23.8249 30.1825 23.7952 30.1748 23.7575 30.1674V34.9932C23.7575 35.2867 23.524 35.5202 23.2305 35.5202C22.937 35.5202 22.6958 35.2867 22.6958 34.9932V30.2879C22.6806 30.2954 22.6658 30.3105 22.6432 30.318L15.7167 34.0521C15.551 34.1424 15.3929 34.3308 15.2723 34.5491C15.1446 34.7898 15.0617 35.0533 15.0617 35.3019V46.9187C15.0617 47.0316 15.0768 47.1219 15.1069 47.1745L15.1143 47.1899C15.1443 47.1822 15.1746 47.1745 15.212 47.1519L22.1459 43.4104C22.3268 43.3126 22.5072 43.2372 22.6955 43.1843V39.6387C22.6955 39.3452 22.9364 39.104 23.2302 39.104C23.524 39.104 23.7572 39.345 23.7572 39.6387V43.1171C23.8924 43.1322 24.0281 43.1623 24.1633 43.2074L38.1373 47.3631L38.1825 47.3783V43.9525C38.1825 43.6592 38.4234 43.4181 38.7172 43.4181C39.011 43.4181 39.2442 43.659 39.2442 43.9525V47.2879C39.2819 47.2728 39.3194 47.2579 39.3494 47.2428L46.2833 43.5009C46.4487 43.4106 46.6071 43.2297 46.7274 43.0042C46.8554 42.7707 46.9383 42.4998 46.9383 42.2586V30.6418C46.9383 30.4986 46.9157 30.3331 46.7502 30.4234L39.8541 34.1424C39.6583 34.2476 39.4551 34.3308 39.2442 34.3834V39.5556C39.2442 39.8491 39.0107 40.0826 38.7172 40.0826C38.4237 40.0826 38.1825 39.8491 38.1825 39.5556V34.4285C38.0696 34.4134 37.949 34.3834 37.8361 34.3533L35.2388 33.5777C34.9602 33.4948 34.8022 33.2013 34.885 32.9152C34.9679 32.6369 35.2614 32.4786 35.5475 32.5614L38.1373 33.3368C38.3557 33.3971 38.5589 33.4199 38.7547 33.3971C38.9581 33.3745 39.1539 33.3142 39.3494 33.209L46.2833 29.4672C46.4867 29.3543 46.6974 29.3017 46.8857 29.3017C47.0892 29.3017 47.2772 29.362 47.443 29.4672C47.6013 29.5652 47.7291 29.7006 47.8194 29.8813C47.9325 30.0845 48 30.3405 48 30.6418V42.2586C48 42.6727 47.8645 43.1245 47.6539 43.5084C47.443 43.9073 47.1343 44.246 46.7805 44.4343L39.8541 48.1762C39.5454 48.3419 39.071 48.5 38.7172 48.5C38.4011 48.5 38.1373 48.47 37.8364 48.3797L23.8627 44.2234C23.6672 44.1631 23.4865 44.1406 23.3056 44.1483C23.2831 44.1557 23.2605 44.1557 23.2379 44.1557C23.0421 44.1783 22.8387 44.2386 22.6432 44.3438L15.7167 48.0859C15.5133 48.1988 15.3024 48.2514 15.1069 48.2514C14.9111 48.2514 14.7228 48.1988 14.5573 48.0933C14.3992 47.9953 14.2712 47.8524 14.1735 47.6789C14.068 47.4686 14 47.2125 14 46.919V35.3019C14 34.8803 14.128 34.4285 14.3389 34.0447C14.557 33.6529 14.8657 33.3068 15.212 33.1184L22.1459 29.3843C22.7935 29.0305 23.4634 28.9627 24.1636 29.1736L25.007 29.422Z" fill="white"/>
</g>
<defs>
<clipPath id="clip0_385_193">
<rect width="34" height="34" fill="white" transform="translate(14 14.5)"/>
</clipPath>
</defs>
</svg>
