<?xml version="1.0" encoding="UTF-8"?>
<svg id="Layer_1" xmlns="http://www.w3.org/2000/svg" version="1.1" viewBox="0 0 60 60">
  <!-- Generator: Adobe Illustrator 29.3.1, SVG Export Plug-In . SVG Version: 2.1.0 Build 151)  -->
  <defs>
    <style>
      .st0 {
        fill: #ff3600;
      }

      .st1 {
        fill: #fff;
      }
    </style>
  </defs>
  <path class="st0" d="M30,0h0c16.6,0,30,13.4,30,30h0c0,16.6-13.4,30-30,30h0C13.4,60,0,46.6,0,30h0C0,13.4,13.4,0,30,0Z"/>
  <g>
    <path class="st1" d="M21.9,41.7c.2,0,.3,0,.4-.2l2.9-2.9c.2-.2.2-.6,0-.8-.2-.2-.6-.2-.8,0l-2.5,2.5-1-1c-.2-.2-.6-.2-.8,0-.2.2-.2.6,0,.8l1.4,1.4c.1.1.3.2.4.2ZM40.9,14h-17.1c-1.6,0-2.9,1.3-2.9,2.9v14.9c0,.3.3.6.6.6s.6-.3.6-.6v-14.9c0-.9.8-1.7,1.7-1.7h17.1c.9,0,1.7.8,1.7,1.7v1.1c0,.3.3.6.6.6s.6-.3.6-.6v-1.1c0-1.6-1.3-2.9-2.9-2.9ZM43.1,19.7c-.3,0-.6.3-.6.6v15.4c0,1.6-1.3,2.9-2.9,2.9h-1.7c-.3,0-.6.3-.6.6v1.7c0,1.6-1.3,2.9-2.9,2.9h-5.4c-.3,0-.6.3-.6.6s.3.6.6.6h6c4.7,0,8.6-3.8,8.6-8.6v-16c0-.3-.3-.6-.6-.6ZM37.8,43.2c.5-.7.8-1.5.8-2.4v-1.1h1.1c.8,0,1.7-.3,2.4-.8-.8,2-2.3,3.5-4.3,4.3h0Z"/>
    <path class="st1" d="M23.7,18.6h5.1c.3,0,.6-.3.6-.6s-.3-.6-.6-.6h-5.1c-.3,0-.6.3-.6.6s.3.6.6.6ZM23.7,21.3h5.1c.3,0,.6-.3.6-.6s-.3-.6-.6-.6h-5.1c-.3,0-.6.3-.6.6s.3.6.6.6ZM23.7,25.1h17.1c.3,0,.6-.3.6-.6s-.3-.6-.6-.6h-17.1c-.3,0-.6.3-.6.6s.3.6.6.6ZM23.7,28.4h17.1c.3,0,.6-.3.6-.6s-.3-.6-.6-.6h-17.1c-.3,0-.6.3-.6.6s.3.6.6.6ZM23.7,31.6h17.1c.3,0,.6-.3.6-.6s-.3-.6-.6-.6h-17.1c-.3,0-.6.3-.6.6s.3.6.6.6ZM41.4,34.3c0-.3-.3-.6-.6-.6h-12.4c-.3,0-.6.3-.6.6s.3.6.6.6h12.4c.3,0,.6-.3.6-.6ZM35.7,37h-5.4c-.3,0-.6.3-.6.6s.3.6.6.6h5.4c.3,0,.6-.3.6-.6s-.3-.6-.6-.6ZM35.7,40.3h-5.2c-.3,0-.6.3-.6.6s.3.6.6.6h5.2c.3,0,.6-.3.6-.6s-.3-.6-.6-.6ZM22.6,33.4c-1.2,0-2.4.4-3.5,1-.3.2-.3.5-.2.8s.5.3.8.2h0c2.4-1.6,5.6-.9,7.1,1.5,1.6,2.4.9,5.6-1.5,7.1-2.4,1.6-5.6.9-7.1-1.5-1.1-1.7-1.1-4,0-5.7.2-.3.1-.6-.2-.8-.3-.2-.6-.1-.8.2-1.9,2.9-1.1,6.8,1.8,8.7,2.9,1.9,6.8,1.1,8.7-1.8,1.9-2.9,1.1-6.8-1.8-8.7-1-.7-2.2-1-3.5-1Z"/>
  </g>
</svg>