<svg width="60" height="61" viewBox="0 0 60 61" fill="none" xmlns="http://www.w3.org/2000/svg">
<circle cx="30" cy="30.5" r="30" fill="#FF3600"/>
<path d="M17.5365 32.552C18.0993 38.4394 23.088 43.0449 29.1598 43.0449C35.6087 43.0449 40.8367 37.8497 40.8367 31.4411C40.8367 30.5543 40.7362 29.6909 40.5466 28.8611C40.4397 28.9906 40.2775 29.0732 40.0958 29.0732H38.2327C37.9107 29.0732 37.6498 28.8139 37.6498 28.4939V27.3371C37.6498 27.0907 37.4929 26.8709 37.2585 26.7906C37.0314 26.7129 36.8106 26.6216 36.5972 26.5179C36.3738 26.4093 36.1061 26.454 35.9302 26.6287L35.1065 27.4471C34.8789 27.6734 34.5098 27.6734 34.2821 27.4471L32.9647 26.138C32.7371 25.9118 32.7371 25.545 32.9647 25.3188L33.7884 24.5002C33.9642 24.3256 34.0092 24.0594 33.9 23.8375C33.7955 23.6253 33.7037 23.406 33.6255 23.1804C33.5447 22.9474 33.3235 22.7915 33.0755 22.7915H31.9114C31.5894 22.7915 31.3285 22.5321 31.3285 22.2122V20.3608C31.3285 20.2484 31.3612 20.1437 31.4171 20.0548C30.6866 19.9127 29.9321 19.8373 29.1599 19.8373C23.1475 19.8373 18.1973 24.3531 17.5544 30.1577" stroke="white" stroke-width="1.5" stroke-miterlimit="10" stroke-linecap="round" stroke-linejoin="round"/>
<path d="M32.8727 34.6739V28.2086L29.4417 33.036H33.4104" stroke="white" stroke-width="1.5" stroke-miterlimit="10" stroke-linecap="round" stroke-linejoin="round"/>
<path d="M24.9092 30.107V29.8633C24.9092 28.9494 25.6772 28.2086 26.6247 28.2086C27.5722 28.2086 28.3402 28.9494 28.3402 29.8633V30.468C28.3402 30.8865 28.1759 31.2894 27.8803 31.5956L24.9092 34.6739H28.3402" stroke="white" stroke-width="1.5" stroke-miterlimit="10" stroke-linecap="round" stroke-linejoin="round"/>
<path d="M29.1598 22.2477V22.9785" stroke="white" stroke-width="1.5" stroke-miterlimit="10" stroke-linecap="round" stroke-linejoin="round"/>
<path d="M29.1598 39.8568V40.6347" stroke="white" stroke-width="1.5" stroke-miterlimit="10" stroke-linecap="round" stroke-linejoin="round"/>
<path d="M19.9085 31.4412H20.6438" stroke="white" stroke-width="1.5" stroke-miterlimit="10" stroke-linecap="round" stroke-linejoin="round"/>
<path d="M37.6284 31.4412H38.4112" stroke="white" stroke-width="1.5" stroke-miterlimit="10" stroke-linecap="round" stroke-linejoin="round"/>
<path d="M22.6182 24.9404L23.1381 25.4571" stroke="white" stroke-width="1.5" stroke-miterlimit="10" stroke-linecap="round" stroke-linejoin="round"/>
<path d="M35.148 37.3919L35.7015 37.9419" stroke="white" stroke-width="1.5" stroke-miterlimit="10" stroke-linecap="round" stroke-linejoin="round"/>
<path d="M22.6182 37.9421L23.1381 37.4254" stroke="white" stroke-width="1.5" stroke-miterlimit="10" stroke-linecap="round" stroke-linejoin="round"/>
<path d="M19.3775 18.658C15.5016 21.5915 13 26.226 13 31.4413C13 40.3102 20.235 47.4999 29.1598 47.4999C33.4247 47.4999 37.3029 45.8573 40.1909 43.175" stroke="white" stroke-width="1.5" stroke-miterlimit="10" stroke-linecap="round" stroke-linejoin="round"/>
<path d="M41.8259 41.4136C44.0129 38.6743 45.3196 35.2096 45.3196 31.4413C45.3196 29.8454 45.0842 28.3043 44.648 26.8493L44.0463 27.4472C43.8186 27.6735 43.4495 27.6735 43.2218 27.4472L42.3982 26.6288C42.2224 26.4541 41.9545 26.4094 41.7312 26.5179C41.5177 26.6217 41.297 26.713 41.07 26.7907C40.8355 26.8709 40.6787 27.0907 40.6787 27.3372V28.494C40.6787 28.8139 40.4177 29.0733 40.0957 29.0733H38.2326C37.9107 29.0733 37.6497 28.8139 37.6497 28.494V27.3372C37.6497 27.0907 37.4928 26.8709 37.2584 26.7907C37.0313 26.713 36.8106 26.6216 36.5971 26.5179C36.3738 26.4094 36.106 26.454 35.9302 26.6288L35.1065 27.4472C34.8788 27.6735 34.5097 27.6735 34.282 27.4472L32.9647 26.1381C32.737 25.9119 32.737 25.5451 32.9647 25.3188L33.7884 24.5003C33.9641 24.3256 34.0091 24.0595 33.8999 23.8375C33.7954 23.6254 33.7036 23.4061 33.6254 23.1804C33.5447 22.9474 33.3235 22.7916 33.0754 22.7916H31.9113C31.5894 22.7916 31.3284 22.5322 31.3284 22.2123V20.3609C31.3284 20.0409 31.5894 19.7816 31.9113 19.7816H33.0754C33.3234 19.7816 33.5446 19.6258 33.6253 19.3927C33.7035 19.1671 33.7954 18.9477 33.8999 18.7356C34.0091 18.5137 33.9642 18.2476 33.7884 18.0728L32.9647 17.2543C32.737 17.0281 32.737 16.6612 32.9647 16.435L33.4476 15.9551C32.0819 15.5825 30.6444 15.3825 29.1597 15.3825" stroke="white" stroke-width="1.5" stroke-miterlimit="10" stroke-linecap="round" stroke-linejoin="round"/>
<path d="M19.3776 21.3206V18.658H16.6982" stroke="white" stroke-width="1.5" stroke-miterlimit="10" stroke-linecap="round" stroke-linejoin="round"/>
<path d="M47 22.2123V20.3609C47 20.041 46.739 19.7816 46.417 19.7816H45.2529C45.005 19.7816 44.7838 19.6258 44.703 19.3928C44.6248 19.1671 44.5329 18.9478 44.4286 18.7356C44.3193 18.5137 44.3643 18.2476 44.54 18.0729L45.3637 17.2543C45.5914 17.0281 45.5914 16.6613 45.3637 16.435L44.0463 15.1259C43.8186 14.8997 43.4495 14.8997 43.2218 15.1259L42.3981 15.9445C42.2224 16.1191 41.9545 16.1638 41.7312 16.0553C41.5177 15.9515 41.297 15.8602 41.07 15.7825C40.8355 15.7023 40.6787 15.4825 40.6787 15.2361V14.0792C40.6787 13.7593 40.4176 13.4999 40.0957 13.4999H38.2327C37.9107 13.4999 37.6497 13.7593 37.6497 14.0792V15.2361C37.6497 15.4825 37.4928 15.7023 37.2584 15.7825C37.0313 15.8602 36.8107 15.9516 36.5972 16.0553C36.3739 16.1639 36.1061 16.1192 35.9303 15.9445L35.1065 15.1259C34.8789 14.8997 34.5097 14.8997 34.2821 15.1259L32.9647 16.435C32.7371 16.6613 32.7371 17.0281 32.9647 17.2543L33.7884 18.0729C33.9642 18.2475 34.0091 18.5137 33.8999 18.7356C33.7955 18.9478 33.7037 19.1671 33.6254 19.3928C33.5446 19.6258 33.3235 19.7816 33.0755 19.7816H31.9114C31.5894 19.7816 31.3284 20.041 31.3284 20.3609V22.2123C31.3284 22.5323 31.5894 22.7916 31.9114 22.7916H33.0755C33.3235 22.7916 33.5446 22.9475 33.6254 23.1805C33.7036 23.4061 33.7955 23.6254 33.8999 23.8376C34.0091 24.0595 33.9642 24.3256 33.7883 24.5003L32.9647 25.3189C32.737 25.5451 32.737 25.9119 32.9647 26.1381L34.282 27.4473C34.5097 27.6735 34.8788 27.6735 35.1065 27.4473L35.9301 26.6288C36.1059 26.4541 36.3738 26.4095 36.5971 26.518C36.8106 26.6217 37.0313 26.713 37.2583 26.7907C37.4928 26.871 37.6496 27.0908 37.6496 27.3372V28.494C37.6496 28.814 37.9106 29.0733 38.2325 29.0733H40.0956C40.4176 29.0733 40.6786 28.814 40.6786 28.494V27.3372C40.6786 27.0908 40.8354 26.871 41.0698 26.7907C41.297 26.713 41.5177 26.6217 41.7311 26.5179C41.9544 26.4093 42.2222 26.454 42.398 26.6287L43.2217 27.4472C43.4494 27.6734 43.8185 27.6734 44.0461 27.4472L45.3635 26.1381C45.5912 25.9118 45.5912 25.545 45.3635 25.3188L44.5398 24.5003C44.3641 24.3256 44.3191 24.0594 44.4284 23.8375C44.5328 23.6253 44.6246 23.406 44.7028 23.1804C44.7836 22.9474 45.0048 22.7916 45.2527 22.7916H46.4168C46.739 22.7916 47 22.5322 47 22.2123Z" stroke="white" stroke-width="1.5" stroke-miterlimit="10" stroke-linecap="round" stroke-linejoin="round"/>
<path d="M36.7173 22.3589C37.1122 23.241 37.9785 23.8764 38.9904 23.94C40.6052 24.0414 41.9364 22.7184 41.8344 21.1138C41.7503 19.7905 40.6697 18.7167 39.3381 18.6331C38.2727 18.5662 37.331 19.1196 36.8427 19.9646" stroke="white" stroke-width="1.5" stroke-miterlimit="10" stroke-linecap="round" stroke-linejoin="round"/>
</svg>
