<svg width="108" height="109" viewBox="0 0 108 109" fill="none" xmlns="http://www.w3.org/2000/svg">
<path fill-rule="evenodd" clip-rule="evenodd" d="M86.5354 73.8402C89.4077 68.0522 89.6476 61.6231 90.5461 55.2359C91.5571 48.0486 95.1356 40.473 92.153 33.9057C89.1606 27.3171 81.5297 24.466 75.0947 21.2149C69.0219 18.1469 62.656 15.4093 55.8312 15.5553C49.12 15.6989 42.9938 18.8334 37.0492 22.029C31.0267 25.2665 25.0778 28.7687 20.9971 34.2807C16.6992 40.0861 12.7896 46.9514 13.284 54.1299C13.7709 61.201 19.8674 66.2056 23.6072 72.1804C27.1141 77.7832 29.6141 83.9663 34.6362 88.2425C40.1788 92.962 46.5094 97.7083 53.8055 97.8938C61.1163 98.0796 67.7386 93.5972 73.6743 89.235C79.1476 85.2126 83.5109 79.935 86.5354 73.8402Z" fill="#F6F6F6"/>
<path fill-rule="evenodd" clip-rule="evenodd" d="M71.7353 69.887L66.8155 64.9478L65.8935 64.0189C65.8489 63.9748 65.771 63.9723 65.7238 64.0189L63.6956 66.0564C63.6498 66.1013 63.6499 66.1783 63.6956 66.223L64.6223 67.1519L69.5422 72.0912C69.5859 72.1365 69.6635 72.1365 69.7072 72.0912L71.7353 70.0537C71.7838 70.0078 71.7838 69.9318 71.7353 69.887ZM64.8163 53.5952C64.8163 59.9796 59.6683 65.1449 53.3122 65.1449C50.2409 65.1449 47.3491 63.9433 45.1803 61.7625C40.6922 57.2592 40.6922 49.9312 45.1803 45.4283C47.4219 43.177 50.3671 42.0508 53.3122 42.0508C59.6153 42.0509 64.8163 47.1498 64.8163 53.5952ZM72.5505 70.8705L70.5223 72.9085C70.0277 73.4052 69.222 73.4054 68.727 72.9085L64.1613 68.3249C61.1385 70.5767 57.5529 71.813 53.7586 71.9046C49.8043 72.0001 46.0198 70.8467 42.8029 68.569C42.5457 68.3858 42.4826 68.0244 42.667 67.7638C42.8513 67.5032 43.2104 67.4409 43.4676 67.6249C49.4064 71.8349 57.485 71.7551 63.3365 67.4973C62.9103 67.0708 62.5116 66.7803 62.5116 66.1397C62.5116 65.7992 62.6426 65.4792 62.8803 65.239L63.4868 64.6282L61.8469 62.9794C56.8625 67.5535 49.1583 67.3944 44.3651 62.5799C39.4306 57.6261 39.4306 49.5645 44.3651 44.6107C49.2996 39.6573 57.3297 39.6573 62.2641 44.6107C67.0549 49.4235 67.2233 57.1494 62.662 62.1616L64.302 63.8118L64.9134 63.201C65.4094 62.7027 66.2115 62.7061 66.7038 63.201L67.1599 63.6574C71.1142 58.1784 71.4539 50.7588 68.0769 44.9486L67.7372 47.0028C67.6838 47.317 67.3879 47.5298 67.0724 47.4768C66.7571 47.4237 66.5484 47.1256 66.6018 46.8109L67.1889 43.2852C67.2132 43.1391 67.2957 43.0027 67.4218 42.9097C67.4218 42.9097 67.4218 42.9097 67.4218 42.9087C67.4267 42.9082 67.4267 42.9082 67.4267 42.9082C67.4267 42.9072 67.4267 42.9072 67.4267 42.9072C67.5539 42.8168 67.7352 42.7761 67.8779 42.8142V42.8147L71.3131 43.991C71.614 44.0952 71.774 44.4231 71.6722 44.7256C71.5703 45.0276 71.2453 45.1888 70.9396 45.0851L69.1297 44.4626C70.7989 47.3613 71.6334 50.6395 71.5509 54.041C71.4587 57.8496 70.2263 61.4493 67.9847 64.485L72.5504 69.0692C73.0454 69.5655 73.0454 70.3741 72.5505 70.8705ZM59.387 47.4967C56.0322 44.1255 50.5954 44.1285 47.2376 47.4967C43.8898 50.8592 43.8898 56.3313 47.2376 59.6938C50.5903 63.0563 56.0391 63.0563 59.387 59.6938C62.7349 56.3314 62.7349 50.8592 59.387 47.4967ZM60.2021 60.5107C56.3968 64.3251 50.2194 64.322 46.4224 60.5107C42.6281 56.6972 42.6281 50.4934 46.4224 46.6799C50.2324 42.8568 56.3964 42.8585 60.2021 46.6799C64.0012 50.4934 64.0012 56.6971 60.2021 60.5107ZM54.0595 48.0461C53.8075 47.759 53.5733 47.7417 53.2395 47.7417C52.6988 47.7417 52.2793 48.2066 52.3468 48.7539L53.0746 54.735C53.1083 55.0111 53.5218 55.0074 53.5549 54.735L54.2779 48.7539C54.3118 48.4826 54.239 48.2512 54.0595 48.0461ZM54.9231 47.2795C54.5204 46.8255 53.9916 46.5859 53.385 46.5859H53.2394C52.002 46.5859 51.0576 47.6619 51.2064 48.8932L51.9294 54.8744C52.0119 55.5705 52.6038 56.0961 53.3026 56.0961C54.0221 56.0961 54.6105 55.5787 54.6951 54.8744L55.4229 48.8932C55.4957 48.2911 55.321 47.7334 54.9231 47.2795ZM53.909 58.8497C53.909 58.52 53.6421 58.2515 53.3122 58.2515C52.9823 58.2515 52.7154 58.5199 52.7154 58.8497C52.7154 59.18 52.9823 59.4489 53.3122 59.4489C53.6422 59.4488 53.909 59.1799 53.909 58.8497ZM55.059 58.8497C55.059 57.8828 54.2779 57.0956 53.3123 57.0956C52.3516 57.0956 51.5656 57.8828 51.5656 58.8497C51.5656 59.8181 52.3516 60.6048 53.3123 60.6048C54.2779 60.6047 55.059 59.818 55.059 58.8497ZM40.0275 60.3797L39.4355 63.9063C39.4113 64.0495 39.3336 64.1844 39.2075 64.277V64.2794C39.2027 64.2813 39.1978 64.2848 39.193 64.2877V64.2887C39.0524 64.3821 38.903 64.4079 38.7465 64.3764C38.7465 64.3764 38.7465 64.3764 38.7465 64.3759L35.3113 63.1995C35.0105 63.0963 34.8504 62.767 34.9523 62.465C35.0542 62.163 35.3842 62.0017 35.685 62.106L37.4996 62.7285C33.3963 55.5836 34.581 46.4991 40.4108 40.6446C43.4724 37.5724 47.5287 35.6893 51.8372 35.3405C56.0924 34.9956 60.3525 36.1608 63.8217 38.6216C64.0788 38.8058 64.1419 39.1662 63.9575 39.4268C63.7779 39.6874 63.419 39.7498 63.1569 39.5657C56.3496 34.7404 47.1308 35.5378 41.2259 41.4625C35.6752 47.0369 34.6418 55.5646 38.5477 62.2448L38.8922 60.1888C38.9456 59.8731 39.2415 59.6612 39.552 59.7139C39.8674 59.7669 40.0809 60.0655 40.0275 60.3797Z" fill="#FF3600"/>
</svg>
