<?xml version="1.0" encoding="UTF-8"?>
<svg id="Layer_1" xmlns="http://www.w3.org/2000/svg" version="1.1" viewBox="0 0 60 60">
  <!-- Generator: Adobe Illustrator 29.3.1, SVG Export Plug-In . SVG Version: 2.1.0 Build 151)  -->
  <defs>
    <style>
      .st0 {
        fill: #ff3600;
      }

      .st1 {
        fill: #fff;
      }
    </style>
  </defs>
  <path class="st0" d="M30,0h0c16.6,0,30,13.4,30,30h0c0,16.6-13.4,30-30,30h0C13.4,60,0,46.6,0,30h0C0,13.4,13.4,0,30,0Z"/>
  <g>
    <path class="st1" d="M34.3,38H15.1v-5.9c0-.9.7-1.6,1.6-1.6h9.1v-1.1h-7.7l3.4-6.9c.2-.4.5-.6,1-.6h11.3v-1.1h-11.3c-.8,0-1.5.5-1.9,1.2l-3.7,7.4h-.2c-1.5,0-2.7,1.2-2.7,2.7v12.3c0,.9.7,1.6,1.6,1.6h4.3c.9,0,1.6-.7,1.6-1.6v-3.2h12.8v-1.1h-17.6c0,0-.2,0-.3,0,0,0,0,0,0,0,0,0-.1,0-.2,0,0,0,0,0,0,0,0,0-.1,0-.2,0,0,0,0,0,0,0,0,0-.1-.1-.2-.2,0,0,0,0,0,0,0,0-.1-.1-.1-.2,0,0,0,0,0,0,0,0,0-.1,0-.2,0,0,0,0,0,0,0,0,0,0,0,0h19.1v-1.1ZM19.3,41.2h1.1v3.2c0,.3-.2.5-.5.5h-.5v-3.7ZM17.2,41.2h1.1v3.7h-1.1v-3.7ZM15.3,40.8c0,0,.2.1.3.2,0,0,.1,0,.2,0,.1,0,.2,0,.3,0,0,0,0,0,.1,0v3.8h-.5c-.3,0-.5-.2-.5-.5v-3.7s0,0,0,0c0,0,0,0,.1,0Z"/>
    <path class="st1" d="M25.2,32.7h9.1v-1.1h-9.1c-.9,0-1.6.7-1.6,1.6v2.1c0,.9.7,1.6,1.6,1.6h9.1v-1.1h-9.1c-.3,0-.5-.2-.5-.5v-.5h9.6v-1.1h-9.6v-.5c0-.3.2-.5.5-.5ZM20.9,31.6h-3.2c-.9,0-1.6.7-1.6,1.6v2.1c0,.9.7,1.6,1.6,1.6h3.2c.9,0,1.6-.7,1.6-1.6v-2.1c0-.9-.7-1.6-1.6-1.6ZM21.5,35.3c0,.3-.2.5-.5.5h-3.2c-.3,0-.5-.2-.5-.5v-2.1c0-.3.2-.5.5-.5h3.2c.3,0,.5.2.5.5v2.1Z"/>
    <path class="st1" d="M46,28.9v-1.6c0-.3-.2-.5-.5-.5h-2.3l-.4-1.2c0-.2-.3-.4-.5-.4h-1.6v-.8c1.6-.7,2.7-2.2,2.7-4v-5.9c0-.3-.2-.5-.5-.5h-7.5c-.3,0-.5.2-.5.5v5.9c0,1.7,1.1,3.3,2.7,4v.8h-3.2v-.5h-1.1v.7l-1.8.9c-.2,0-.3.3-.3.5v1.1c0,.2.1.4.3.5l1.8.9v.7h1.1v-.5h3l-.6,2c-.1.4-.5.6-.8.6v1.1c.9,0,1.6-.6,1.9-1.4v-.2h1.9l1,4.8h-1.5v1.1h1.7l.4,2.2c0,.2.3.4.5.4h1.1v1.1c0,.3-.2.5-.5.5h-4.8c-1.2,0-2.1,1-2.1,2.1s1,2.1,2.1,2.1h8.5v-1.1h-8.5c-.6,0-1.1-.5-1.1-1.1s.5-1.1,1.1-1.1h4.8c.9,0,1.6-.7,1.6-1.6v-1.1h1.1c.3,0,.5-.2.5-.5,0,0,0,0,0,0l-1.5-9.2,1.8-.9c.2,0,.3-.3.3-.5ZM33.2,28.1l-1.1-.5v-.4l1.1-.5v1.5ZM35.9,15.1h6.4v1.1h-6.4v-1.1ZM35.9,20.4v-3.2h6.4v3.2c0,1.4-.9,2.7-2.3,3.1-.2,0-.4.3-.4.5v1.2h-1.1v-1.2c0-.2-.2-.4-.4-.5-1.4-.4-2.3-1.7-2.3-3.1ZM38.1,30.5l.3-1.1h.8l.2,1.1h-1.3ZM44.9,28.6l-1.8.9c-.2.1-.3.3-.3.6v.4c0,0-1.1,0-1.1,0v1.1h1.3l.2,1.1h-1v1.1h1.1l.2,1.1h-.8v1.1h1l.2,1.1h-.6v1.1h.8l.2,1.1h-2.1l-2-10.2c0-.2-.3-.4-.5-.4h-5.3v-2.1h7.6l.4,1.2c0,.2.3.4.5.4h2.1v.7ZM26.3,26.8h3.7v1.1h-3.7v-1.1ZM26.6,24.6l.5-1,3.2,1.6-.5,1-3.2-1.6ZM26.6,30.1l3.2-1.6.5,1-3.2,1.6-.5-1ZM24.1,26.8h1.1v1.1h-1.1v-1.1ZM24.7,23.1h1.1v1.1h-1.1v-1.1ZM23.1,24.7h1.1v1.1h-1.1v-1.1Z"/>
    <path class="st1" d="M38,20.4h-1.1c0,1.2,1,2.1,2.1,2.1v-1.1c-.6,0-1.1-.5-1.1-1.1ZM36.9,18.3h1.1v1.1h-1.1v-1.1Z"/>
  </g>
</svg>