<?xml version="1.0" encoding="UTF-8"?>
<svg id="Layer_1" xmlns="http://www.w3.org/2000/svg" version="1.1" viewBox="0 0 60 60">
  <!-- Generator: Adobe Illustrator 29.3.1, SVG Export Plug-In . SVG Version: 2.1.0 Build 151)  -->
  <defs>
    <style>
      .st0 {
        fill: #ff3600;
      }

      .st1 {
        fill: #fff;
      }
    </style>
  </defs>
  <path class="st0" d="M30,0h0c16.6,0,30,13.4,30,30h0c0,16.6-13.4,30-30,30h0C13.4,60,0,46.6,0,30h0C0,13.4,13.4,0,30,0Z"/>
  <g>
    <path class="st1" d="M48.1,16.8h-4.2c0-.8-.6-1.4-1.4-1.4h-.5c-1.4-1.7-3.9-1.9-5.6-.4-.2.1-.3.3-.4.4h-.5c-.8,0-1.4.6-1.4,1.4h-4.2c-1.3,0-2.4.9-2.7,2.1h-9.7c-1.2,0-2.3.8-2.6,1.9l-1.5,4.4c-.4-.5-1-.7-1.6-.7h-.7c-1.2,0-2.1,1-2.1,2.1,0,1,.7,1.8,1.7,2l-.7.4c-.6.4-1,1.1-1,1.8v9c0,.9.6,1.7,1.4,2v1.5c0,1.2.9,2.1,2.1,2.1h2.8c1.2,0,2.1-.9,2.1-2.1v-1.4h9.7v1.4c0,1.5,1.2,2.8,2.8,2.8h18.1c1.5,0,2.8-1.2,2.8-2.8v-23.7c0-1.5-1.2-2.8-2.8-2.8ZM35.6,16.8h.9c.3,0,.5-.2.6-.4.4-.7,1.2-1,2-1,.8,0,1.6.3,2,1,.1.2.4.4.6.4h.9v1.4h-7v-1.4ZM27.2,33.5h-8.3c0-.8.6-1.4,1.4-1.4h7v1.4ZM16.3,21.2c.2-.6.7-1,1.3-1h9.6v7h-12.9l2-6ZM10.5,26.5c0-.4.3-.7.7-.7h.7c.4,0,.7.3.7.7v.7h-1.4c-.4,0-.7-.3-.7-.7ZM16.1,43.2c0,.4-.3.7-.7.7h-2.8c-.4,0-.7-.3-.7-.7v-1.4h4.2v1.4ZM11.2,40.4c-.4,0-.7-.3-.7-.7v-9c0-.2.1-.5.3-.6l2.6-1.6h13.7v2.1h-7c-1.5,0-2.8,1.2-2.8,2.8s.6,1.4,1.4,1.4h8.3v2.1h-7.7c-.4,0-.7.3-.7.7s.3.7.7.7h7.7v2.1H11.2ZM49.5,43.2c0,.8-.6,1.4-1.4,1.4h-18.1c-.8,0-1.4-.6-1.4-1.4v-23.7c0-.8.6-1.4,1.4-1.4h4.2c0,.8.6,1.4,1.4,1.4h7c.8,0,1.4-.6,1.4-1.4h4.2c.8,0,1.4.6,1.4,1.4v23.7Z"/>
    <path class="st1" d="M14,30c-1.2,0-2.1.9-2.1,2.1v1.4c0,1.2.9,2.1,2.1,2.1s2.1-.9,2.1-2.1v-1.4c0-1.2-.9-2.1-2.1-2.1ZM14.7,33.5c0,.4-.3.7-.7.7s-.7-.3-.7-.7v-1.4c0-.4.3-.7.7-.7s.7.3.7.7v1.4ZM35.7,22l-2.3,3.5-.8-.8c-.3-.3-.7-.3-1,0-.3.3-.3.7,0,1l1.4,1.4c.1.1.3.2.5.2h0c.2,0,.4-.1.5-.3l2.8-4.2c.2-.3.1-.8-.2-1s-.8-.1-1,.2h0ZM45.3,23h-6.3c-.4,0-.7.3-.7.7s.3.7.7.7h6.3c.4,0,.7-.3.7-.7s-.3-.7-.7-.7ZM39,27.2h4c.4,0,.7-.3.7-.7s-.3-.7-.7-.7h-4c-.4,0-.7.3-.7.7s.3.7.7.7ZM35.7,28.9l-2.3,3.5-.8-.8c-.3-.3-.7-.3-1,0-.3.3-.3.7,0,1l1.4,1.4c.1.1.3.2.5.2,0,0,0,0,0,0,.2,0,.4-.1.5-.3l2.8-4.2c.2-.3.1-.8-.2-1s-.8-.1-1,.2h0ZM45.3,30h-6.3c-.4,0-.7.3-.7.7s.3.7.7.7h6.3c.4,0,.7-.3.7-.7s-.3-.7-.7-.7ZM39,34.2h4c.4,0,.7-.3.7-.7s-.3-.7-.7-.7h-4c-.4,0-.7.3-.7.7s.3.7.7.7ZM35.7,35.9l-2.3,3.5-.8-.8c-.3-.3-.7-.3-1,0-.3.3-.3.7,0,1l1.4,1.4c.1.1.3.2.5.2,0,0,0,0,0,0,.2,0,.4-.1.5-.3l2.8-4.2c.2-.3.1-.8-.2-1s-.8-.1-1,.2h0ZM45.3,37h-6.3c-.4,0-.7.3-.7.7s.3.7.7.7h6.3c.4,0,.7-.3.7-.7s-.3-.7-.7-.7ZM43.1,39.7h-4c-.4,0-.7.3-.7.7s.3.7.7.7h4c.4,0,.7-.3.7-.7s-.3-.7-.7-.7ZM14.7,37h-1.4c-.4,0-.7.3-.7.7s.3.7.7.7h1.4c.4,0,.7-.3.7-.7s-.3-.7-.7-.7Z"/>
  </g>
</svg>