<svg width="60" height="61" viewBox="0 0 60 61" fill="none" xmlns="http://www.w3.org/2000/svg">
<circle cx="30" cy="30.5" r="30" fill="#FF3600"/>
<path fill-rule="evenodd" clip-rule="evenodd" d="M25.9996 33.286H33.9998C34.2629 33.286 34.4758 33.4988 34.4758 33.762V47.024C34.4758 47.2872 34.2629 47.5 33.9998 47.5H25.9996C25.7364 47.5 25.5236 47.2872 25.5236 47.024V33.762C25.5236 33.4988 25.7371 33.286 25.9996 33.286ZM40.3353 16.1391V15.8508C40.3353 15.5876 40.5482 15.3748 40.8113 15.3748C41.0745 15.3748 41.2873 15.5876 41.2873 15.8508V16.1391C41.5124 16.2139 41.7144 16.3404 41.8789 16.5049C42.1523 16.7783 42.3209 17.1557 42.3209 17.5725C42.3209 17.8357 42.1081 18.0485 41.8449 18.0485C41.5818 18.0485 41.3689 17.8357 41.3689 17.5725C41.3689 17.4188 41.3064 17.2794 41.2057 17.1781C41.1051 17.0768 40.9657 17.0149 40.8113 17.0149C40.6576 17.0149 40.5182 17.0775 40.4169 17.1781C40.3163 17.2788 40.2537 17.4182 40.2537 17.5725C40.2537 17.9839 40.5876 18.0635 40.9208 18.143C41.6205 18.3096 42.3209 18.4762 42.3209 19.6397C42.3209 20.0566 42.1516 20.434 41.8789 20.7073C41.715 20.8712 41.5131 20.9977 41.2873 21.0732V21.3615C41.2873 21.6246 41.0745 21.8375 40.8113 21.8375C40.5482 21.8375 40.3353 21.6246 40.3353 21.3615V21.0732C40.1102 20.9984 39.9083 20.8719 39.7437 20.7073C39.4704 20.434 39.3017 20.0566 39.3017 19.6397C39.3017 19.3766 39.5146 19.1637 39.7777 19.1637C40.0409 19.1637 40.2537 19.3766 40.2537 19.6397C40.2537 19.7934 40.3163 19.9328 40.4169 20.0341C40.5176 20.1348 40.657 20.1973 40.8113 20.1973C40.965 20.1973 41.1044 20.1348 41.2057 20.0341C41.307 19.9335 41.3689 19.7941 41.3689 19.6397C41.3689 19.2283 41.035 19.1488 40.7018 19.0692C40.0021 18.9026 39.3017 18.736 39.3017 17.5725C39.3017 17.1557 39.4704 16.7783 39.7437 16.5049C39.9083 16.3404 40.1102 16.2139 40.3353 16.1391ZM40.8113 13.5C39.4017 13.5 38.1253 14.0712 37.2012 14.9953C36.2771 15.9194 35.7059 17.1958 35.7059 18.6054C35.7059 20.0151 36.2771 21.2914 37.2012 22.2156C38.1253 23.1397 39.4017 23.7109 40.8113 23.7109C42.221 23.7109 43.4973 23.1397 44.4214 22.2156C45.3456 21.2914 45.9168 20.0151 45.9168 18.6054C45.9168 17.1958 45.3456 15.9194 44.4214 14.9953C43.4973 14.0712 42.221 13.5 40.8113 13.5ZM43.7482 15.6685C42.9968 14.9171 41.9585 14.452 40.8113 14.452C39.6642 14.452 38.6258 14.9171 37.8744 15.6685C37.123 16.4199 36.6579 17.4583 36.6579 18.6054C36.6579 19.7526 37.123 20.791 37.8744 21.5424C38.6258 22.2938 39.6642 22.7589 40.8113 22.7589C41.9585 22.7589 42.9968 22.2938 43.7482 21.5424C44.4996 20.791 44.9648 19.7526 44.9648 18.6054C44.9648 17.4583 44.4996 16.4199 43.7482 15.6685ZM29.524 23.2573V22.969C29.524 22.7058 29.7368 22.493 30 22.493C30.2632 22.493 30.476 22.7058 30.476 22.969V23.2573C30.7011 23.3321 30.903 23.4586 31.0676 23.6232C31.341 23.8965 31.5096 24.2739 31.5096 24.6908C31.5096 24.9539 31.2968 25.1668 31.0336 25.1668C30.7704 25.1668 30.5576 24.9539 30.5576 24.6908C30.5576 24.5371 30.495 24.3977 30.3944 24.2964C30.2938 24.195 30.1544 24.1332 30 24.1332C29.8463 24.1332 29.7069 24.1957 29.6056 24.2964C29.505 24.397 29.4424 24.5364 29.4424 24.6908C29.4424 25.1022 29.7763 25.1817 30.1095 25.2613C30.8092 25.4279 31.5096 25.5945 31.5096 26.758C31.5096 27.1748 31.3403 27.5522 31.0676 27.8256C30.9037 27.9894 30.7018 28.1159 30.476 28.1914V28.4797C30.476 28.7429 30.2632 28.9557 30 28.9557C29.7368 28.9557 29.524 28.7429 29.524 28.4797V28.1914C29.2989 28.1166 29.097 27.9901 28.9324 27.8256C28.659 27.5522 28.4904 27.1748 28.4904 26.758C28.4904 26.4948 28.7032 26.282 28.9664 26.282C29.2296 26.282 29.4424 26.4948 29.4424 26.758C29.4424 26.9116 29.505 27.051 29.6056 27.1524C29.7062 27.253 29.8456 27.3156 30 27.3156C30.1544 27.3156 30.2931 27.253 30.3944 27.1524C30.495 27.0517 30.5576 26.9123 30.5576 26.758C30.5576 26.3466 30.2237 26.267 29.8905 26.1874C29.1908 26.0208 28.4904 25.8542 28.4904 24.6908C28.4904 24.2739 28.659 23.8965 28.9324 23.6232C29.097 23.4586 29.2989 23.3321 29.524 23.2573ZM30 20.6182C28.5904 20.6182 27.314 21.1894 26.3899 22.1136C25.4658 23.0377 24.8946 24.314 24.8946 25.7237C24.8946 27.1333 25.4658 28.4097 26.3899 29.3338C27.314 30.2579 28.5904 30.8291 30 30.8291C31.4096 30.8291 32.686 30.2579 33.6101 29.3338C34.5342 28.4097 35.1054 27.1333 35.1054 25.7237C35.1054 24.314 34.5342 23.0377 33.6101 22.1136C32.686 21.1901 31.4096 20.6182 30 20.6182ZM32.9369 22.7868C32.1855 22.0354 31.1472 21.5702 30 21.5702C28.8528 21.5702 27.8145 22.0354 27.0631 22.7868C26.3117 23.5382 25.8466 24.5765 25.8466 25.7237C25.8466 26.8708 26.3117 27.9092 27.0631 28.6606C27.8145 29.412 28.8528 29.8771 30 29.8771C31.1472 29.8771 32.1855 29.412 32.9369 28.6606C33.6883 27.9092 34.1534 26.8708 34.1534 25.7237C34.1534 24.5765 33.6883 23.5382 32.9369 22.7868ZM18.7127 17.9962V17.7078C18.7127 17.4447 18.9255 17.2318 19.1887 17.2318C19.4518 17.2318 19.6647 17.4447 19.6647 17.7078V17.9962C19.8898 18.071 20.0917 18.1974 20.2563 18.362C20.5296 18.6354 20.6983 19.0128 20.6983 19.4296C20.6983 19.6928 20.4854 19.9056 20.2223 19.9056C19.9591 19.9056 19.7463 19.6928 19.7463 19.4296C19.7463 19.2759 19.6837 19.1365 19.5831 19.0352C19.4824 18.9346 19.343 18.872 19.1887 18.872C19.035 18.872 18.8956 18.9346 18.7943 19.0352C18.6936 19.1358 18.6311 19.2752 18.6311 19.4296C18.6311 19.841 18.965 19.9206 19.2982 20.0001C19.9979 20.1667 20.6983 20.3333 20.6983 21.4968C20.6983 21.9136 20.529 22.291 20.2563 22.5644C20.0924 22.7283 19.8904 22.8548 19.6647 22.9302V23.2186C19.6647 23.4817 19.4518 23.6946 19.1887 23.6946C18.9255 23.6946 18.7127 23.4817 18.7127 23.2186V22.9302C18.4876 22.8554 18.2856 22.729 18.1211 22.5644C17.8477 22.291 17.6791 21.9136 17.6791 21.4968C17.6791 21.2336 17.8919 21.0208 18.1551 21.0208C18.4182 21.0208 18.6311 21.2336 18.6311 21.4968C18.6311 21.6505 18.6936 21.7899 18.7943 21.8912C18.8949 21.9918 19.0343 22.0544 19.1887 22.0544C19.3424 22.0544 19.4818 21.9918 19.5831 21.8912C19.6837 21.7906 19.7463 21.6512 19.7463 21.4968C19.7463 21.0854 19.4124 21.0058 19.0792 20.9263C18.3795 20.7597 17.6791 20.5931 17.6791 19.4296C17.6791 19.0128 17.8477 18.6354 18.1211 18.362C18.2856 18.1974 18.4869 18.071 18.7127 17.9962ZM19.1887 15.3571C17.779 15.3571 16.5027 15.9283 15.5786 16.8524C14.6544 17.7765 14.0832 19.0529 14.0832 20.4625C14.0832 21.8722 14.6544 23.1485 15.5786 24.0726C16.5027 24.9968 17.779 25.568 19.1887 25.568C20.5983 25.568 21.8747 24.9968 22.7988 24.0726C23.7229 23.1485 24.2941 21.8722 24.2941 20.4625C24.2941 19.0529 23.7229 17.7765 22.7988 16.8524C21.8747 15.9283 20.5983 15.3571 19.1887 15.3571ZM22.1256 17.5256C21.3742 16.7742 20.3358 16.3091 19.1887 16.3091C18.0415 16.3091 17.0032 16.7735 16.2518 17.5256C15.5004 18.2777 15.0352 19.3154 15.0352 20.4625C15.0352 21.6097 15.5004 22.648 16.2518 23.3994C17.0032 24.1508 18.0415 24.616 19.1887 24.616C20.3358 24.616 21.3742 24.1508 22.1256 23.3994C22.877 22.648 23.3421 21.6097 23.3421 20.4625C23.3414 19.3154 22.877 18.277 22.1256 17.5256ZM15.1882 27.9255H23.1884C23.4516 27.9255 23.6644 28.1384 23.6644 28.4015V47.024C23.6644 47.2872 23.4516 47.5 23.1884 47.5H15.1882C14.9251 47.5 14.7122 47.2872 14.7122 47.024V28.4015C14.7122 28.1384 14.9258 27.9255 15.1882 27.9255ZM22.7131 28.8775H15.6642V46.548H22.7124V28.8775H22.7131ZM44.8118 47.5H36.8109C36.5477 47.5 36.3349 47.2872 36.3349 47.024V27.1306C36.3349 26.8674 36.5477 26.6546 36.8109 26.6546H44.8111C45.0742 26.6546 45.2871 26.8674 45.2871 27.1306V47.024C45.2878 47.2872 45.0742 47.5 44.8118 47.5ZM37.2869 46.548H44.3351V27.6066H37.2869V46.548ZM33.5244 34.238H26.4756V46.548H33.5238V34.238H33.5244Z" fill="white"/>
</svg>
