<svg width="62" height="63" viewBox="0 0 62 63" fill="none" xmlns="http://www.w3.org/2000/svg">
<circle cx="31" cy="31.5" r="31" fill="#FF3600"/>
<path d="M46.8862 38.1086C47.9133 37.1155 48.2567 35.7252 47.8048 34.3893C47.7435 34.2082 47.5893 34.0709 47.3976 34.0265C47.2057 33.9822 47.0041 34.0373 46.8646 34.172L44.8146 36.1541L43.8307 35.8991L43.567 34.9478L45.6171 32.9658C45.7565 32.831 45.8134 32.636 45.7676 32.4505C45.7218 32.2651 45.5797 32.116 45.3923 32.0568C44.0108 31.6199 42.5726 31.9519 41.5453 32.945C40.9803 33.4912 40.6224 34.1979 40.4964 34.9421C38.6516 33.2622 36.3914 32.0939 33.9475 31.5384C36.0559 30.5506 37.6275 28.6386 38.0704 26.3112H38.1766C39.0447 26.3112 39.751 25.6285 39.751 24.7891C39.751 24.0786 39.2448 23.4803 38.5628 23.3134C38.563 23.296 38.563 23.2788 38.563 23.2615C38.563 20.065 36.5319 17.2429 33.4693 16.1207C33.4234 15.8581 33.3105 15.617 33.1335 15.4083C32.579 14.7544 31.5042 14.5542 30.7001 14.5012C30.6744 14.4996 30.6487 14.4996 30.623 14.5012C29.819 14.5542 28.7442 14.7545 28.1896 15.4083C28.0125 15.6171 27.8997 15.8581 27.8538 16.1207C24.7913 17.2429 22.7601 20.0651 22.7601 23.2615C22.7601 23.2788 22.7602 23.296 22.7603 23.3134C22.0783 23.4803 21.5722 24.0786 21.5722 24.7891C21.5722 25.6284 22.2784 26.3112 23.1465 26.3112H23.2527C23.6953 28.6371 25.2653 30.5483 27.3717 31.5365C25.9491 31.8593 24.5841 32.392 23.319 33.1223L23.2692 32.997C23.185 32.7854 22.9746 32.6457 22.7399 32.6457H20.7915C20.5568 32.6457 20.3465 32.7854 20.2622 32.997L19.9074 33.8883C19.4168 34.024 18.9448 34.2133 18.498 34.4533L17.5947 34.0653C17.3802 33.9733 17.1294 34.0184 16.9634 34.1787L15.5856 35.5108C15.4197 35.6712 15.3731 35.9138 15.4683 36.1211L15.8695 36.9944C15.6213 37.4264 15.4255 37.8829 15.2851 38.3571L14.3634 38.7001C14.1445 38.7816 14 38.985 14 39.2119V41.0956C14 41.3225 14.1445 41.5259 14.3634 41.6074L15.285 41.9504C15.4254 42.4249 15.6212 42.8814 15.8694 43.3135L15.4683 44.1865C15.3731 44.3938 15.4197 44.6364 15.5857 44.7968L16.9635 46.1288C17.1294 46.2892 17.3803 46.3342 17.5947 46.2422L18.498 45.8543C18.9448 46.0942 19.4168 46.2835 19.9074 46.4192L20.2622 47.3105C20.3464 47.5221 20.5568 47.6618 20.7915 47.6618H22.7399C22.9746 47.6618 23.1849 47.5221 23.2692 47.3105L23.624 46.4195C24.1148 46.2837 24.5869 46.0944 25.0337 45.8545L25.9368 46.2422C26.1513 46.3343 26.4022 46.2892 26.5681 46.1288L27.9458 44.7967C28.1117 44.6363 28.1583 44.3937 28.0631 44.1864L28.0492 44.1562H30.8653C30.7468 44.7527 30.7826 45.3799 30.9871 45.9842C31.0484 46.1654 31.2026 46.3027 31.3943 46.347C31.5862 46.3914 31.7878 46.3363 31.9273 46.2015L33.9773 44.2195L34.9613 44.4744L35.225 45.4258L33.175 47.4077C33.0355 47.5426 32.9785 47.7376 33.0243 47.923C33.0701 48.1084 33.2123 48.2575 33.3996 48.3167C33.7894 48.44 34.1882 48.5 34.5829 48.5C35.5667 48.5 36.5244 48.1268 37.2465 47.4286C38.1461 46.5588 38.5206 45.3317 38.2853 44.1563H44.3633C44.5243 44.1563 44.6776 44.0902 44.7852 43.9745C44.8927 43.8588 44.9444 43.7043 44.9272 43.5496C44.7565 42.0073 44.3255 40.5258 43.6455 39.1336C44.8127 39.2993 46.0368 38.9296 46.8862 38.1086ZM27.9324 17.2742L28.3474 20.3636C28.3877 20.6639 28.6715 20.8757 28.9829 20.8368C29.2935 20.7978 29.5126 20.5227 29.4723 20.2224L28.971 16.4896C28.9429 16.2809 29.0075 16.1737 29.0668 16.1037C29.2887 15.8422 29.8833 15.6541 30.6616 15.5981C31.44 15.6541 32.0346 15.8422 32.2564 16.1037C32.3158 16.1737 32.3803 16.2808 32.3523 16.4896L31.851 20.2224C31.8107 20.5227 32.0298 20.7978 32.3404 20.8368C32.3652 20.8399 32.3898 20.8414 32.4141 20.8414C32.6949 20.8414 32.9387 20.6399 32.9759 20.3636L33.3909 17.2742C35.8315 18.31 37.4288 20.6384 37.4288 23.2615C37.4288 23.2634 37.4288 23.2653 37.4288 23.2671H35.0318V19.7888C35.0318 19.486 34.7779 19.2405 34.4647 19.2405C34.1514 19.2405 33.8975 19.486 33.8975 19.7888V23.2671H27.4259V19.7888C27.4259 19.486 27.172 19.2405 26.8588 19.2405C26.5455 19.2405 26.2916 19.486 26.2916 19.7888V23.2671H23.8947C23.8947 23.2653 23.8946 23.2634 23.8946 23.2615C23.8944 20.6384 25.4917 18.31 27.9324 17.2742ZM22.7065 24.7892C22.7065 24.5546 22.9039 24.3638 23.1465 24.3638H23.3495H37.9735H38.1765C38.4192 24.3638 38.6166 24.5546 38.6166 24.7892C38.6166 25.0238 38.4192 25.2146 38.1765 25.2146H23.7341C23.7339 25.2146 23.7336 25.2146 23.7334 25.2146H23.1465C22.9039 25.2146 22.7065 25.0238 22.7065 24.7892ZM24.4101 26.3113H36.913C36.2794 29.12 33.6966 31.1692 30.6616 31.1692C27.6265 31.1692 25.0437 29.12 24.4101 26.3113ZM26.0413 45.0871L25.2285 44.7381C25.0577 44.6647 24.8603 44.6776 24.7009 44.7724C24.1945 45.0739 23.645 45.2941 23.0677 45.427C22.8858 45.4688 22.7368 45.5947 22.6697 45.7634L22.3505 46.5651H21.1809L20.8616 45.7632C20.7945 45.5945 20.6455 45.4686 20.4637 45.4267C19.8866 45.2939 19.3372 45.0737 18.8309 44.7722C18.6715 44.6772 18.4741 44.6647 18.3033 44.7379L17.4901 45.0871L16.6631 44.2876L17.0241 43.5018C17.0999 43.3366 17.0868 43.1457 16.9886 42.9917C16.6768 42.5021 16.449 41.9708 16.3115 41.4126C16.2683 41.2368 16.1381 41.0928 15.9635 41.0278L15.1343 40.7192V39.5885L15.9637 39.2798C16.1382 39.2149 16.2684 39.0709 16.3116 38.8951C16.449 38.3371 16.6768 37.806 16.9887 37.3163C17.0868 37.1623 17.1 36.9715 17.0242 36.8062L16.6631 36.0201L17.4901 35.2206L18.3032 35.5697C18.4741 35.6431 18.6714 35.6304 18.8308 35.5354C19.3372 35.234 19.8866 35.0138 20.4636 34.8809C20.6455 34.8391 20.7944 34.7132 20.8616 34.5445L21.1809 33.7425H22.3504L22.6697 34.5445C22.7368 34.7132 22.8858 34.8391 23.0676 34.8809C23.6447 35.0138 24.1941 35.2339 24.7005 35.5354C24.8598 35.6304 25.0573 35.6429 25.2281 35.5697L26.0412 35.2206L26.8682 36.0201L26.5072 36.8058C26.4313 36.9711 26.4445 37.1619 26.5426 37.3159C26.8545 37.8057 27.0824 38.337 27.2198 38.8951C27.263 39.071 27.3932 39.215 27.5677 39.2799L28.3969 39.5885V40.7192L27.5674 41.0279C27.393 41.0928 27.2627 41.2368 27.2195 41.4126C27.0821 41.9706 26.8544 42.5017 26.5425 42.9913C26.4444 43.1453 26.4312 43.3361 26.507 43.5014L26.8682 44.2875L26.0413 45.0871ZM31.9057 42.2649C31.6569 42.5055 31.4482 42.7732 31.2813 43.0595H27.7992C27.983 42.7037 28.1328 42.333 28.246 41.9504L29.1679 41.6074C29.3868 41.526 29.5313 41.3225 29.5313 41.0956V39.2119C29.5313 38.985 29.3868 38.7816 29.1679 38.7001L28.2463 38.3572C28.106 37.8827 27.9101 37.4262 27.6619 36.9941L28.063 36.121C28.1582 35.9137 28.1116 35.6712 27.9457 35.5107L26.5679 34.1787C26.402 34.0183 26.1511 33.9734 25.9367 34.0653L25.0333 34.4533C24.7027 34.2757 24.3583 34.1261 24.0028 34.0052C26.0188 32.8652 28.305 32.2658 30.6615 32.2658C34.4556 32.2658 38.0519 33.8379 40.5631 36.5844L35.6413 41.3429C34.3236 40.9678 32.8924 41.3111 31.9057 42.2649ZM37.0223 43.8797C37.4257 44.8349 37.1988 45.9235 36.4443 46.6531C35.9911 47.0912 35.4057 47.3464 34.793 47.3943L36.2586 45.9774C36.4019 45.8388 36.4578 45.6369 36.4054 45.4476L35.9722 43.8846C35.9197 43.6954 35.7669 43.5476 35.5711 43.4969L33.9546 43.0781C33.906 43.0655 33.8567 43.0595 33.8078 43.0595C33.6593 43.0595 33.5145 43.1159 33.4067 43.2201L31.9412 44.6371C31.9908 44.0447 32.2548 43.4786 32.7078 43.0404C33.4625 42.3109 34.5881 42.0918 35.5764 42.4817C35.7878 42.5651 36.0303 42.5179 36.1919 42.3618L41.6456 37.089C41.807 36.9329 41.8559 36.6984 41.7696 36.494C41.3724 35.5533 41.6047 34.4388 42.3475 33.7206C42.8099 33.2736 43.3911 33.018 44.0045 32.9739L42.5334 34.3962C42.3901 34.5347 42.3341 34.7366 42.3866 34.9259L42.8198 36.4888C42.8722 36.6781 43.0251 36.8259 43.2208 36.8766L44.8373 37.2954C45.033 37.3462 45.2419 37.292 45.3852 37.1535L46.8563 35.7312C46.8107 36.3241 46.5464 36.8862 46.0841 37.333C45.3411 38.0513 44.1884 38.2761 43.2156 37.8919C43.0041 37.8084 42.7616 37.8557 42.6001 38.0117L37.1463 43.2846C36.9849 43.4408 36.936 43.6753 37.0223 43.8797ZM38.9834 43.0595L42.6008 39.5621C43.1473 40.6715 43.5218 41.843 43.7172 43.0595H38.9834ZM21.7657 36.3202C19.5793 36.3202 17.8005 38.04 17.8005 40.1538C17.8005 42.2677 19.5793 43.9875 21.7657 43.9875C23.9521 43.9875 25.7309 42.2677 25.7309 40.1538C25.7308 38.04 23.952 36.3202 21.7657 36.3202ZM21.7657 42.8907C20.2048 42.8907 18.9349 41.663 18.9349 40.1538C18.9349 38.6446 20.2048 37.4169 21.7657 37.4169C23.3266 37.4169 24.5965 38.6446 24.5965 40.1538C24.5964 41.663 23.3266 42.8907 21.7657 42.8907Z" fill="white"/>
</svg>
