<?xml version="1.0" encoding="UTF-8"?>
<svg id="Layer_1" xmlns="http://www.w3.org/2000/svg" version="1.1" viewBox="0 0 60 60">
  <!-- Generator: Adobe Illustrator 29.3.1, SVG Export Plug-In . SVG Version: 2.1.0 Build 151)  -->
  <defs>
    <style>
      .st0 {
        fill: #ff3600;
      }

      .st1 {
        fill: none;
        stroke: #fff;
        stroke-linecap: round;
        stroke-miterlimit: 40;
      }
    </style>
  </defs>
  <path class="st0" d="M30,0h0c16.6,0,30,13.4,30,30h0c0,16.6-13.4,30-30,30h0C13.4,60,0,46.6,0,30h0C0,13.4,13.4,0,30,0Z"/>
  <g>
    <path class="st1" d="M24.7,21.9h10.7v17.5h-10.7v-17.5ZM24.7,29.7h10.7M23.1,39.4h13.9v6.6h-13.9v-6.6Z"/>
    <path class="st1" d="M20.8,37.7c0-.4-.3-2.4,0-3.9,0-.2.2-.9.4-1.7.1-.4.2-.7.2-.8.4-1.2.7-3.1.5-6.1-.1-1.8,1-3.4,2.5-3.4h11.9c1.4,0,2.6,1.6,2.5,3.4-.2,3.6,0,5.5.2,6.6,0,0,0,.2.1.4,0,.4.1.7.2,1,0,.5,0,.9.1,1,0,.5.1,1.5.4,3.7M34,19.6h-7.8c-.6,0-1.1-.4-1-.9l.9-4.1c0-.4.5-.6,1-.6h6c.5,0,.9.3,1,.6l.9,4.1c.1.5-.4.9-.9.9h0ZM27.5,19.6v2.2M32.7,19.6v2.2"/>
    <path class="st1" d="M37,39.7c.6-1.2,1.7-2,2.7-1.8,1.4.2,2,2.2,1.8,3.5-.1.8-.6,1.4-1.2,2.1-1,1.2-2.1,2-3,2.4M23.2,39.7c-.6-1.3-1.9-2-3-1.8-1.5.3-2,2.3-1.8,3.5.1.8.6,1.4,1.2,2.1,1,1.2,2.1,2,3,2.4"/>
  </g>
</svg>