<svg width="108" height="109" viewBox="0 0 108 109" fill="none" xmlns="http://www.w3.org/2000/svg">
<path fill-rule="evenodd" clip-rule="evenodd" d="M86.5355 73.8402C89.4078 68.0522 89.6477 61.6231 90.5462 55.2359C91.5572 48.0486 95.1358 40.473 92.1531 33.9057C89.1607 27.3171 81.5298 24.466 75.0948 21.2149C69.022 18.1469 62.6561 15.4093 55.8314 15.5553C49.1202 15.6989 42.994 18.8334 37.0494 22.029C31.0268 25.2665 25.0779 28.7687 20.9972 34.2807C16.6993 40.0861 12.7897 46.9514 13.2841 54.1299C13.771 61.201 19.8675 66.2056 23.6073 72.1804C27.1143 77.7832 29.6142 83.9663 34.6363 88.2425C40.1789 92.962 46.5096 97.7083 53.8056 97.8938C61.1164 98.0796 67.7387 93.5972 73.6744 89.235C79.1478 85.2126 83.511 79.935 86.5355 73.8402Z" fill="#F6F6F6"/>
<g clip-path="url(#clip0_715_114)">
<path d="M70.1225 62.9082L59.4547 66.4346C59.4211 66.4447 59.3869 66.4435 59.3546 66.4314L54.5894 64.6676C54.5001 64.6347 54.4494 64.5441 54.4684 64.4504L54.7433 63.0513C54.7572 62.9785 54.8104 62.9228 54.8681 62.9107L58.929 62.1944C60.0095 61.95 60.7131 60.8568 60.4978 59.7567C60.2989 58.7415 59.3768 58.0195 58.3571 58.0841L51.0465 58.5477C50.2979 58.5927 49.5633 58.8238 48.9382 59.2057L35.5609 66.8494C35.167 67.0736 34.9219 67.4954 34.9219 67.9489V72.0149C34.9219 72.7135 35.49 73.2816 36.1885 73.2816H44.7651C45.1033 73.2816 45.4213 73.1498 45.6607 72.9104L47.6531 70.918L57.758 73.1467C58.8625 73.4203 60.0259 73.2759 61.0386 72.7388L71.7648 66.9286C72.7483 66.408 73.1796 65.2281 72.7692 64.1856C72.3576 63.1368 71.2005 62.5744 70.1232 62.9076L70.1225 62.9082ZM71.1656 65.8127L60.4395 71.6229C59.7074 72.0098 58.8619 72.1156 58.0455 71.9136L47.5866 69.6063C47.3726 69.5614 47.1547 69.6247 47.0021 69.7773L44.7645 72.0149H36.1885V67.9489L49.5816 60.2976C50.0465 60.0139 50.5791 59.846 51.1244 59.8131L58.435 59.3495C58.4496 59.3495 58.4654 59.3482 58.48 59.3482C58.8511 59.3482 59.1792 59.6218 59.2539 60.0012C59.3394 60.435 59.0677 60.8644 58.6788 60.9537L54.6363 61.6662C54.0599 61.7783 53.6134 62.2274 53.4994 62.8088L53.2246 64.2059C53.0852 64.9114 53.4741 65.6056 54.1492 65.8551L58.9151 67.6189C59.2083 67.7272 59.5351 67.7361 59.8416 67.6398L70.5082 64.1141C70.9478 63.9785 71.4158 64.2065 71.5893 64.6492C71.7635 65.0919 71.5836 65.591 71.1656 65.8127Z" fill="#FF3600"/>
<path d="M42.5219 54.7981V56.1813C42.5219 57.2288 43.3744 58.0813 44.4219 58.0813H46.9552C48.0028 58.0813 48.8552 57.2288 48.8552 56.1813V54.9146H65.3219V56.1813C65.3219 57.2288 66.1744 58.0813 67.2219 58.0813H69.7552C70.8028 58.0813 71.6552 57.2288 71.6552 56.1813V54.7981C72.3905 54.5359 72.9219 53.8392 72.9219 53.0146V46.5888C72.9219 45.623 72.3848 44.7547 71.5216 44.3227L71.146 44.1353C72.1347 44.07 72.9219 43.253 72.9219 42.2479C72.9219 41.2004 72.0694 40.3479 71.0219 40.3479H69.7552C69.1808 40.3479 68.671 40.6095 68.3226 41.0142L66.8451 36.5809C66.5854 35.8031 65.8615 35.2812 65.0426 35.2812H49.1352C48.3156 35.2812 47.5917 35.8031 47.3327 36.5802L45.8551 41.0136C45.5062 40.6095 44.997 40.3473 44.4225 40.3473H43.1559C42.1083 40.3473 41.2559 41.1998 41.2559 42.2473C41.2559 43.2524 42.0425 44.0694 43.0317 44.1346L42.6562 44.3221C41.7929 44.754 41.2559 45.6223 41.2559 46.5882V53.014C41.2559 53.8386 41.7872 54.5352 42.5225 54.7974L42.5219 54.7981ZM47.5886 56.1813C47.5886 56.5309 47.3048 56.8146 46.9552 56.8146H44.4219C44.0723 56.8146 43.7886 56.5309 43.7886 56.1813V54.9146H47.5886V56.1813ZM63.4219 53.6479H50.7552V52.3813H63.4219V53.6479ZM69.7552 56.8146H67.2219C66.8723 56.8146 66.5886 56.5309 66.5886 56.1813V54.9146H70.3886V56.1813C70.3886 56.5309 70.1048 56.8146 69.7552 56.8146ZM69.1219 42.2479C69.1219 41.899 69.4056 41.6146 69.7552 41.6146H71.0219C71.3715 41.6146 71.6552 41.899 71.6552 42.2479C71.6552 42.5969 71.3715 42.8813 71.0219 42.8813H69.1219V42.2479ZM48.5335 36.9811C48.6203 36.7221 48.8622 36.5479 49.1345 36.5479H65.042C65.3149 36.5479 65.5562 36.7221 65.643 36.9811L67.6095 42.8813H46.567L48.5335 36.9811ZM42.5219 42.2479C42.5219 41.899 42.8056 41.6146 43.1552 41.6146H44.4219C44.7715 41.6146 45.0552 41.899 45.0552 42.2479V42.8813H43.1552C42.8056 42.8813 42.5219 42.5969 42.5219 42.2479ZM42.5219 46.5888C42.5219 46.1062 42.7904 45.6717 43.2217 45.4558L45.838 44.1479H68.3385L70.9548 45.4558C71.3867 45.6717 71.6546 46.1056 71.6546 46.5888V53.0146C71.6546 53.3636 71.3709 53.6479 71.0213 53.6479H64.6879V52.3813C64.6879 51.6827 64.1198 51.1146 63.4213 51.1146H50.7546C50.056 51.1146 49.4879 51.6827 49.4879 52.3813V53.6479H43.1546C42.805 53.6479 42.5213 53.3636 42.5213 53.0146V46.5888H42.5219Z" fill="#FF3600"/>
<path d="M67.8556 47.9482C66.4585 47.9482 65.3223 49.0844 65.3223 50.4816C65.3223 51.1801 65.8904 51.7482 66.5889 51.7482H67.8556C69.2527 51.7482 70.3889 50.612 70.3889 49.2149C70.3889 48.5163 69.8208 47.9482 69.1223 47.9482H67.8556ZM67.8556 50.4816H66.5889C66.5889 49.783 67.157 49.2149 67.8556 49.2149H69.1223C69.1223 49.9135 68.5542 50.4816 67.8556 50.4816Z" fill="#FF3600"/>
<path d="M46.3214 51.7482H47.5881C48.2867 51.7482 48.8548 51.1801 48.8548 50.4816C48.8548 49.0844 47.7186 47.9482 46.3214 47.9482H45.0548C44.3562 47.9482 43.7881 48.5163 43.7881 49.2149C43.7881 50.612 44.9243 51.7482 46.3214 51.7482ZM46.3214 49.2149C47.02 49.2149 47.5881 49.783 47.5881 50.4816H46.3214C45.6229 50.4816 45.0548 49.9135 45.0548 49.2149H46.3214Z" fill="#FF3600"/>
<path d="M45.0552 46.6817H69.1219C69.4721 46.6817 69.7552 46.398 69.7552 46.0484C69.7552 45.6988 69.4721 45.415 69.1219 45.415H45.0552C44.705 45.415 44.4219 45.6988 44.4219 46.0484C44.4219 46.398 44.705 46.6817 45.0552 46.6817Z" fill="#FF3600"/>
<path d="M62.7882 48.5811H51.3882C51.038 48.5811 50.7549 48.8648 50.7549 49.2144C50.7549 49.564 51.038 49.8477 51.3882 49.8477H62.7882C63.1384 49.8477 63.4215 49.564 63.4215 49.2144C63.4215 48.8648 63.1384 48.5811 62.7882 48.5811Z" fill="#FF3600"/>
</g>
<defs>
<clipPath id="clip0_715_114">
<rect width="38" height="38" fill="white" transform="translate(34.9219 35.2812)"/>
</clipPath>
</defs>
</svg>
