<svg width="20" height="20" viewBox="0 0 20 20" fill="none" xmlns="http://www.w3.org/2000/svg">
<path d="M5.53333 9.28271H6.61041V13.7025H5.53333V9.28271Z" fill="white" stroke="white"/>
<path d="M6.60246 6.95902C6.60246 7.17031 6.39986 7.41803 6.05123 7.41803C5.7026 7.41803 5.5 7.17031 5.5 6.95902C5.5 6.74772 5.7026 6.5 6.05123 6.5C6.39986 6.5 6.60246 6.74772 6.60246 6.95902Z" fill="white" stroke="white"/>
<path d="M9.87164 9.6655V11.0876L10.1002 10.8027C10.0363 11.0483 10.0145 11.3219 10.0145 11.5996V13.7024H8.93738V9.28262H9.87164V9.6655ZM11.3616 9.78812C11.1705 9.78812 10.9912 9.82493 10.8284 9.89736C11.0644 9.61818 11.2834 9.43898 11.481 9.3355C11.6891 9.22683 11.9655 9.16016 12.3314 9.16016C12.8016 9.16016 13.1084 9.29603 13.3183 9.51721L13.3186 9.51746C13.5191 9.72851 13.6686 10.107 13.6686 10.7577V13.7024H12.5812V11.2222C12.5812 10.8477 12.5176 10.4495 12.2656 10.1671C12.0255 9.89812 11.7005 9.78812 11.3616 9.78812Z" fill="white" stroke="white"/>
<circle cx="10" cy="10" r="9.5" stroke="white"/>
</svg>
