<svg width="20" height="20" viewBox="0 0 20 20" fill="none" xmlns="http://www.w3.org/2000/svg">
<path d="M5.03333 8.78271H7.11041V14.2025H5.03333V8.78271Z" fill="#FF3600"/>
<path d="M6.05123 7.91803C6.63181 7.91803 7.10246 7.48867 7.10246 6.95902C7.10246 6.42937 6.63181 6 6.05123 6C5.47065 6 5 6.42937 5 6.95902C5 7.48867 5.47065 7.91803 6.05123 7.91803Z" fill="#FF3600"/>
<path d="M12.3314 8.66016C11.9061 8.66016 11.5456 8.73762 11.2494 8.89239C10.9534 9.0473 10.661 9.30491 10.3716 9.6655V8.78262H8.43738V14.2024H10.5145V11.5996C10.5145 11.1062 10.5928 10.7645 10.7493 10.5739C10.9059 10.3834 11.1098 10.2881 11.3616 10.2881C11.5896 10.2881 11.7665 10.3588 11.8925 10.5C12.0185 10.6412 12.0812 10.8818 12.0812 11.2222V14.2024H14.1686V10.7577C14.1686 10.0432 14.006 9.51501 13.681 9.17301C13.3564 8.83101 12.9062 8.66016 12.3314 8.66016Z" fill="#FF3600"/>
<circle cx="10" cy="10" r="9.5" stroke="#FF3600"/>
</svg>
