<svg width="184" height="95" viewBox="0 0 184 95" fill="none" xmlns="http://www.w3.org/2000/svg">
<path opacity="0.3" d="M183.179 31.8355C183.317 31.301 182.997 30.755 182.462 30.616L173.752 28.3511C173.217 28.2121 172.672 28.5327 172.533 29.0672C172.394 29.6018 172.714 30.1477 173.249 30.2867L180.991 32.3L178.978 40.0425C178.839 40.577 179.16 41.123 179.694 41.262C180.229 41.401 180.775 41.0804 180.914 40.5458L183.179 31.8355ZM97.8395 41.1349L97.5495 42.0919L97.8395 41.1349ZM38.1245 75.1961L39.0338 74.7799L38.1245 75.1961ZM62.1473 27.1772L62.6033 26.2872L62.1473 27.1772ZM0.848475 0.565879C0.301797 0.644374 -0.0777387 1.15118 0.000757845 1.69786C0.079255 2.24453 0.586059 2.62407 1.13274 2.54557L0.848475 0.565879ZM181.704 30.7215C169.644 37.804 161.093 42.7368 154.355 45.9635C147.626 49.1859 142.786 50.6656 138.149 50.9016C133.508 51.1379 128.974 50.134 122.825 48.2104C119.75 47.2484 116.303 46.0675 112.247 44.7086C108.198 43.3518 103.56 41.8238 98.1296 40.1779L97.5495 42.0919C102.953 43.7298 107.571 45.2508 111.612 46.605C115.647 47.9571 119.127 49.1493 122.228 50.1191C128.429 52.0592 133.242 53.154 138.251 52.8991C143.265 52.6438 148.38 51.042 155.219 47.7674C162.048 44.497 170.676 39.5172 182.717 32.4461L181.704 30.7215ZM98.1296 40.1779C70.8812 31.9185 54.238 37.6208 45.0836 47.1336C40.5353 51.86 37.8958 57.4717 36.722 62.6261C35.5558 67.747 35.8104 72.543 37.2153 75.6123L39.0338 74.7799C37.8764 72.2512 37.5622 67.9438 38.6721 63.0702C39.7743 58.2302 42.2558 52.9565 46.5247 48.5204C55.0049 39.7083 70.7814 33.9781 97.5495 42.0919L98.1296 40.1779ZM37.2153 75.6123C39.7561 81.1635 46.2254 88.6722 61.4231 92.8265L61.9505 90.8972C47.2491 86.8787 41.2973 79.7251 39.0338 74.7799L37.2153 75.6123ZM61.4231 92.8265C68.9469 94.8831 75.3463 95.5217 80.617 93.5588C85.9532 91.5715 89.9033 87.0117 92.7323 79.2342L90.8528 78.5505C88.1411 86.0055 84.5131 89.9737 79.919 91.6846C75.2594 93.4199 69.3762 92.9271 61.9505 90.8972L61.4231 92.8265ZM92.7323 79.2342C98.4973 63.3847 90.6568 40.6606 62.6033 26.2872L61.6913 28.0672C89.1476 42.1346 96.169 63.935 90.8528 78.5505L92.7323 79.2342ZM62.6033 26.2872C51.5009 20.5989 38.1957 13.8944 26.6574 8.75497C20.8899 6.18595 15.5438 3.99893 11.1244 2.52477C8.91504 1.78782 6.91954 1.223 5.2078 0.878961C3.5147 0.538668 2.02086 0.397536 0.848475 0.565879L1.13274 2.54557C1.96571 2.42597 3.19316 2.51404 4.8137 2.83975C6.4156 3.16171 8.3261 3.6997 10.4915 4.422C14.8216 5.86635 20.1002 8.02363 25.8436 10.5819C37.3273 15.6971 50.5897 22.3793 61.6913 28.0672L62.6033 26.2872Z" fill="white"/>
</svg>
