<svg width="207" height="50" viewBox="0 0 207 50" fill="none" xmlns="http://www.w3.org/2000/svg">
<path d="M74.9409 36L71.9169 15.35H76.3829L78.5809 35.062L77.9509 35.034L81.4509 15.35H86.8689L90.3549 35.034L89.7249 35.062L91.9229 15.35H96.3889L93.3649 36H86.7009L83.9429 18.36H84.3909L81.6049 36H74.9409ZM96.3436 36L101.496 15.322H108.37L113.494 36H109.042L104.926 17.968H104.954L100.796 36H96.3436ZM100.04 31.212V27.824H109.84V31.212H100.04ZM121.781 24.03L121.753 27.544L115.061 15.35H119.947L124.413 24.646H122.691L127.115 15.35H132.001L125.379 27.544L125.351 24.03L132.211 36H127.311L122.621 26.928H124.469L119.779 36H114.893L121.781 24.03ZM142.265 25.976L142.391 22.658L150.651 36H145.891L139.969 25.99L141.915 26.242L138.527 30.792L138.905 28.062V36H134.551V15.35H138.905V26.074L138.093 25.626L145.639 15.35H150.231L142.265 25.976ZM153.036 36V15.35H157.32V36H153.036ZM164.988 36H160.746V15.35H167.494L174.41 34.432L173.682 34.614V15.35H177.91V36H171.12L164.204 16.974L164.988 16.792V36ZM189.61 36.336C187.977 36.336 186.488 35.93 185.144 35.118C183.81 34.2967 182.746 33.102 181.952 31.534C181.168 29.9567 180.776 28.02 180.776 25.724C180.776 23.4373 181.192 21.5007 182.022 19.914C182.853 18.3273 183.968 17.1187 185.368 16.288C186.778 15.4573 188.35 15.042 190.086 15.042C191.533 15.042 192.756 15.2753 193.754 15.742C194.762 16.2087 195.579 16.806 196.204 17.534C196.839 18.262 197.301 19.032 197.59 19.844C197.88 20.6467 198.024 21.3887 198.024 22.07C198.024 22.098 198.024 22.126 198.024 22.154C198.024 22.182 198.024 22.21 198.024 22.238H193.796C193.796 22.21 193.796 22.182 193.796 22.154C193.796 22.126 193.796 22.098 193.796 22.07C193.796 21.6407 193.717 21.216 193.558 20.796C193.4 20.3667 193.162 19.984 192.844 19.648C192.536 19.312 192.149 19.0413 191.682 18.836C191.225 18.6307 190.693 18.528 190.086 18.528C189.265 18.528 188.481 18.7613 187.734 19.228C186.988 19.6947 186.376 20.4553 185.9 21.51C185.424 22.5553 185.186 23.96 185.186 25.724C185.186 27.068 185.317 28.1973 185.578 29.112C185.849 30.0267 186.208 30.7593 186.656 31.31C187.104 31.8513 187.613 32.2433 188.182 32.486C188.761 32.7287 189.358 32.85 189.974 32.85C190.824 32.85 191.533 32.71 192.102 32.43C192.681 32.1407 193.134 31.786 193.46 31.366C193.787 30.946 193.997 30.5307 194.09 30.12V28.776H190.002V25.64H197.94V36H195.658L195.266 33.718C195.192 33.8953 195.033 34.1287 194.79 34.418C194.548 34.7073 194.202 35.0013 193.754 35.3C193.316 35.5893 192.751 35.832 192.06 36.028C191.379 36.2333 190.562 36.336 189.61 36.336Z" fill="white"/>
<path d="M202.419 36.42C201.775 36.42 201.229 36.196 200.781 35.748C200.333 35.3 200.109 34.754 200.109 34.11C200.109 33.4753 200.333 32.934 200.781 32.486C201.229 32.038 201.775 31.814 202.419 31.814C203.054 31.814 203.595 32.038 204.043 32.486C204.491 32.934 204.715 33.4753 204.715 34.11C204.715 34.754 204.491 35.3 204.043 35.748C203.595 36.196 203.054 36.42 202.419 36.42Z" fill="#FF3600"/>
<circle cx="29.9369" cy="25" r="25" fill="#FF3600"/>
<path d="M56.7304 24.0806C54.9566 23.0181 53.1927 21.9379 51.4067 20.8985C51.1405 20.7318 50.8136 20.8279 50.5209 20.8069C47.3941 20.8179 44.2661 20.7969 41.1393 20.8058C40.9449 20.8234 40.7925 20.6788 40.6334 20.5937C37.3972 18.631 34.2317 16.549 30.9735 14.6228C26.9597 14.6846 22.9437 14.6106 18.93 14.6658C17.8608 15.2678 16.7585 15.8068 15.6762 16.3833C13.8559 17.3685 12.0202 18.3239 10.1978 19.3069C10.0388 19.4086 9.8444 19.3854 9.66656 19.3909C7.44101 19.3666 5.21543 19.3931 2.98988 19.3931C1.97042 21.6496 1.00841 23.9326 0 26.1946C1.53636 28.2114 3.01861 30.268 4.54721 32.2903C5.31153 32.2826 6.07695 32.2981 6.84235 32.276C5.18782 30.2227 3.67908 28.0568 2.05877 25.9759C2.78331 24.3832 3.4405 22.7574 4.19707 21.1801C6.97599 21.1846 9.75491 21.1956 12.5327 21.1868C13.8968 21.2166 15.2686 21.1503 16.6282 21.2265C17.2721 22.2095 17.8476 23.2367 18.4573 24.2429C19.702 26.3205 20.9556 28.3925 22.2037 30.469C21.2848 31.0687 20.3636 31.664 19.4557 32.2803C20.5326 32.256 21.6106 32.2737 22.6875 32.2682C25.4134 32.2803 28.1404 32.213 30.8663 32.2583C33.6265 32.2318 36.3877 32.2483 39.1479 32.2329C39.678 32.2251 40.2115 32.2638 40.7395 32.1953C35.0922 31.325 29.4316 30.5165 23.7799 29.6737C23.2265 28.704 22.6257 27.7608 22.0657 26.7954C21.1059 25.1276 20.0522 23.5151 19.1498 21.8141C19.9605 22.0659 20.7723 22.3123 21.5874 22.5519C22.0281 22.6083 22.4766 22.5619 22.9205 22.5818C32.0846 22.5884 41.2486 22.563 50.4126 22.5983C50.8301 22.5531 51.1571 22.8579 51.5094 23.0302C53.5218 24.2264 55.5408 25.4115 57.54 26.6298C56.8121 27.9994 56.1914 29.4242 55.4713 30.7948C54.6771 31.2554 53.7527 31.558 53.1363 32.2749C54.3469 32.308 55.5585 32.2539 56.769 32.2903C57.8062 30.1807 58.8356 28.0667 59.8738 25.9572C58.7991 25.3784 57.7852 24.6947 56.7304 24.0806ZM22.3617 20.8091C22.1221 20.8113 21.8779 20.8146 21.6493 20.7329C20.4962 20.3684 19.3343 20.0348 18.1713 19.7035C17.6599 19.5842 17.1639 19.3567 16.6272 19.4097C15.6718 19.4495 14.7076 19.3423 13.7599 19.4616C14.7407 18.8795 15.7866 18.4179 16.7807 17.859C17.4975 17.4569 18.232 17.088 18.9521 16.6937C19.1984 16.5778 19.4304 16.3867 19.7198 16.4154C23.3293 16.4154 26.9399 16.4043 30.5494 16.4165C32.8997 17.8269 35.2214 19.2926 37.5077 20.8047C32.4591 20.8223 27.4104 20.798 22.3617 20.8091Z" fill="white"/>
<path d="M17.9459 31.9247C18.7478 30.4491 18.7986 28.5969 18.1061 27.0705C17.0833 24.6185 14.1685 23.1705 11.5973 23.8398C9.85989 24.2463 8.36329 25.5242 7.67519 27.1688C7.23117 28.2125 7.14834 29.3943 7.37918 30.4999C7.7779 32.4184 9.26236 34.052 11.1124 34.6793C12.229 35.0394 13.455 35.0527 14.5783 34.7169C16.002 34.2663 17.2589 33.259 17.9459 31.9247ZM11.9816 33.0867C11.0075 32.8216 10.0996 32.2263 9.57934 31.3482C8.86141 30.2117 8.80841 28.6919 9.45563 27.5123C9.9405 26.59 10.8142 25.882 11.8204 25.607C13.6406 25.0437 15.7203 26.0444 16.5123 27.752C17.08 28.989 16.8812 30.5165 16.0881 31.6111C15.1836 32.8658 13.4816 33.5064 11.9816 33.0867Z" fill="white"/>
<path d="M52.3842 31.6972C52.9199 30.5342 53.0514 29.1845 52.7476 27.9397C52.3666 26.3923 51.2587 25.0625 49.8428 24.349C48.6289 23.6951 47.1732 23.5074 45.8345 23.8409C44.6273 24.1347 43.5328 24.8549 42.7762 25.8379C41.8031 27.0351 41.3933 28.6521 41.6231 30.1719C41.8429 31.6796 42.7298 33.0547 43.9602 33.9416C45.1608 34.7567 46.6717 35.1599 48.1131 34.887C49.9366 34.5965 51.6056 33.3805 52.3842 31.6972ZM48.2158 33.09C46.1372 33.6699 43.757 32.2009 43.4024 30.0604C42.964 28.1518 44.2629 26.0753 46.1527 25.5971C47.2638 25.2945 48.5097 25.4811 49.4595 26.1416C50.4116 26.7988 51.1074 27.879 51.1549 29.052C51.2963 30.8699 49.9786 32.6526 48.2158 33.09Z" fill="white"/>
</svg>
