<?xml version="1.0" encoding="UTF-8"?>
<svg id="Layer_1" xmlns="http://www.w3.org/2000/svg" xmlns:xlink="http://www.w3.org/1999/xlink" version="1.1" viewBox="0 0 208 85">
  <!-- Generator: Adobe Illustrator 29.3.1, SVG Export Plug-In . SVG Version: 2.1.0 Build 151)  -->
  <defs>
    <style>
      .st0 {
        fill: #ff3600;
      }

      .st1 {
        font-family: Poppins-Medium, Poppins;
        font-size: 34.3px;
        font-weight: 500;
      }
    </style>
    <image id="image" width="2350" height="698" xlink:href="../../../logo.png"/>
  </defs>
  <g>
    <path class="st0" d="M282.4,198.1h-9.2l-1.6,4.5h-3.8l7.9-22h4.2l7.9,22h-3.8l-1.6-4.5ZM281.4,195.1l-3.6-10.2-3.6,10.2h7.2Z"/>
    <path class="st0" d="M294.8,180.6v14c0,1.7.4,2.9,1.3,3.8s2.1,1.3,3.7,1.3,2.8-.4,3.7-1.3,1.3-2.1,1.3-3.8v-14h3.6v13.9c0,1.8-.4,3.3-1.2,4.6-.8,1.2-1.8,2.2-3.1,2.8-1.3.6-2.8.9-4.3.9s-3-.3-4.3-.9-2.3-1.5-3.1-2.8c-.8-1.2-1.1-2.8-1.1-4.6v-13.9h3.6Z"/>
    <path class="st0" d="M327.2,180.6v2.9h-5.8v19h-3.6v-19h-5.9v-2.9h15.3Z"/>
    <path class="st0" d="M335.2,201.3c-1.7-1-3.1-2.3-4.1-4s-1.5-3.7-1.5-5.8.5-4.1,1.5-5.8,2.4-3,4.1-4,3.6-1.4,5.6-1.4,4,.5,5.7,1.4,3.1,2.3,4.1,4c1,1.7,1.5,3.6,1.5,5.8s-.5,4.1-1.5,5.8c-1,1.7-2.3,3.1-4.1,4s-3.6,1.4-5.7,1.4-3.9-.5-5.6-1.4ZM344.7,198.7c1.1-.7,2-1.6,2.7-2.8.6-1.2,1-2.7,1-4.3s-.3-3-1-4.3c-.6-1.2-1.5-2.2-2.7-2.8-1.1-.7-2.4-1-3.9-1s-2.8.3-3.9,1c-1.1.7-2,1.6-2.7,2.8-.6,1.2-1,2.6-1,4.3s.3,3.1,1,4.3c.6,1.2,1.5,2.2,2.7,2.8,1.1.7,2.4,1,3.9,1s2.8-.3,3.9-1Z"/>
    <path d="M371.5,186.9c-.6-1.1-1.4-1.9-2.4-2.5s-2.2-.8-3.5-.8-2.8.3-3.9,1c-1.1.7-2,1.6-2.7,2.8-.6,1.2-1,2.6-1,4.2s.3,3,1,4.2c.6,1.2,1.5,2.1,2.7,2.8,1.1.7,2.4,1,3.9,1s3.6-.5,4.8-1.6c1.2-1.1,2-2.6,2.2-4.5h-8.2v-2.9h12.1v2.8c-.2,1.7-.8,3.3-1.8,4.7-1,1.4-2.3,2.6-3.8,3.4-1.6.9-3.3,1.3-5.2,1.3s-4-.5-5.7-1.4c-1.7-1-3.1-2.3-4.1-4s-1.5-3.6-1.5-5.8.5-4.1,1.5-5.8,2.4-3,4.1-4,3.6-1.4,5.6-1.4,4.4.6,6.2,1.7c1.8,1.1,3.1,2.8,4,4.9h-4.3Z"/>
    <path d="M383.7,183.5v6.4h7.6v2.9h-7.6v6.7h8.5v2.9h-12.1v-22h12.1v2.9h-8.5Z"/>
    <path d="M414.7,202.6h-3.6l-10.8-16.4v16.4h-3.6v-22h3.6l10.8,16.4v-16.4h3.6v22Z"/>
    <path d="M423,180.6v22h-3.6v-22h3.6Z"/>
    <path d="M431.3,180.6v14c0,1.7.4,2.9,1.3,3.8.9.8,2.1,1.3,3.7,1.3s2.8-.4,3.7-1.3c.9-.8,1.3-2.1,1.3-3.8v-14h3.6v13.9c0,1.8-.4,3.3-1.2,4.6-.8,1.2-1.8,2.2-3.1,2.8s-2.8.9-4.3.9-3-.3-4.3-.9c-1.3-.6-2.3-1.5-3.1-2.8-.8-1.2-1.1-2.8-1.1-4.6v-13.9h3.6Z"/>
    <path d="M452.8,202c-1.2-.5-2.1-1.2-2.8-2.2s-1-2.1-1-3.3h3.9c0,.9.5,1.7,1.1,2.3.7.6,1.6.9,2.8.9s2.2-.3,2.9-.9,1-1.4,1-2.3-.2-1.3-.6-1.8c-.4-.5-1-.8-1.6-1.1-.6-.3-1.5-.5-2.7-.8-1.4-.4-2.6-.8-3.5-1.2-.9-.4-1.7-1-2.3-1.8-.6-.8-.9-1.9-.9-3.3s.3-2.4.9-3.3c.6-.9,1.5-1.7,2.7-2.2s2.5-.8,4-.8c2.1,0,3.9.5,5.2,1.6,1.4,1.1,2.1,2.5,2.3,4.4h-4c0-.8-.4-1.5-1.1-2.1s-1.6-.9-2.8-.9-1.9.3-2.5.8c-.7.5-1,1.3-1,2.3s.2,1.2.6,1.7c.4.4.9.8,1.6,1,.6.3,1.5.5,2.6.8,1.5.4,2.6.8,3.6,1.2s1.7,1,2.3,1.8c.6.8,1,1.9,1,3.3s-.3,2.2-.9,3.2c-.6,1-1.5,1.8-2.6,2.4s-2.5.9-4.1.9-2.8-.3-4-.8Z"/>
  </g>
  <use transform="translate(287 129.2) scale(0)" xlink:href="#image"/>
  <use transform="translate(24.9 3.6) scale(0)" xlink:href="#image"/>
  <g>
    <path class="st0" d="M20.6,78h-10l-1.7,4.9h-4.1l8.6-23.9h4.5l8.6,23.9h-4.1l-1.7-4.9ZM19.5,74.8l-3.9-11.1-3.9,11.1h7.8Z"/>
    <path class="st0" d="M47.3,64v18.9h-3.9v-2.2c-.6.8-1.4,1.4-2.4,1.8-1,.4-2.1.7-3.2.7s-2.8-.3-4-.9c-1.2-.6-2.1-1.5-2.8-2.7s-1-2.7-1-4.4v-11.1h3.9v10.5c0,1.7.4,3,1.3,3.9s2,1.4,3.5,1.4,2.6-.5,3.5-1.4c.9-.9,1.3-2.2,1.3-3.9v-10.5h3.9Z"/>
    <path class="st0" d="M57,67.2v10.5c0,.7.2,1.2.5,1.5.3.3.9.5,1.7.5h2.4v3.3h-3.1c-1.8,0-3.1-.4-4.1-1.2s-1.4-2.2-1.4-4v-10.5h-2.2v-3.2h2.2v-4.7h4v4.7h4.6v3.2h-4.6Z"/>
    <path class="st0" d="M68.6,82c-1.4-.8-2.6-2-3.4-3.4-.8-1.5-1.2-3.2-1.2-5.1s.4-3.6,1.3-5.1c.8-1.5,2-2.6,3.5-3.4,1.5-.8,3.1-1.2,4.9-1.2s3.4.4,4.9,1.2c1.5.8,2.6,1.9,3.5,3.4.8,1.5,1.3,3.2,1.3,5.1s-.4,3.6-1.3,5.1c-.9,1.5-2.1,2.6-3.6,3.5-1.5.8-3.2,1.2-5,1.2s-3.4-.4-4.8-1.2ZM76.3,79.1c.9-.5,1.6-1.2,2.1-2.2s.8-2.1.8-3.5-.3-2.5-.8-3.5-1.2-1.7-2.1-2.1c-.9-.5-1.8-.7-2.8-.7s-1.9.2-2.8.7c-.9.5-1.5,1.2-2,2.1-.5,1-.8,2.1-.8,3.5,0,2,.5,3.6,1.6,4.7,1,1.1,2.4,1.7,3.9,1.7s2-.2,2.8-.7Z"/>
    <path d="M104.4,65.9c-.6-1.2-1.5-2.1-2.6-2.7-1.1-.6-2.4-.9-3.8-.9s-3,.4-4.2,1.1c-1.2.7-2.2,1.7-2.9,3-.7,1.3-1,2.8-1,4.5s.3,3.2,1,4.6c.7,1.3,1.7,2.3,2.9,3,1.2.7,2.6,1.1,4.2,1.1s3.9-.6,5.2-1.8c1.3-1.2,2.1-2.8,2.4-4.8h-9v-3.1h13.2v3.1c-.3,1.9-.9,3.6-2,5.1-1.1,1.6-2.5,2.8-4.2,3.7-1.7.9-3.6,1.4-5.7,1.4s-4.3-.5-6.1-1.6c-1.9-1-3.3-2.5-4.4-4.3-1.1-1.9-1.6-4-1.6-6.3s.5-4.4,1.6-6.3c1.1-1.9,2.6-3.3,4.4-4.3,1.9-1,3.9-1.6,6.1-1.6s4.8.6,6.8,1.9c2,1.2,3.4,3,4.3,5.3h-4.7Z"/>
    <path d="M130.9,74.9h-14.5c.1,1.5.7,2.7,1.7,3.6s2.2,1.4,3.7,1.4c2.1,0,3.6-.9,4.5-2.6h4.2c-.6,1.7-1.6,3.2-3.1,4.3-1.5,1.1-3.4,1.7-5.6,1.7s-3.4-.4-4.9-1.2c-1.4-.8-2.6-2-3.4-3.4-.8-1.5-1.2-3.2-1.2-5.1s.4-3.7,1.2-5.1c.8-1.5,1.9-2.6,3.3-3.4,1.4-.8,3.1-1.2,4.9-1.2s3.4.4,4.8,1.2,2.5,1.9,3.3,3.3c.8,1.4,1.2,3,1.2,4.9s0,1.4-.1,1.9ZM127,71.7c0-1.4-.5-2.6-1.5-3.5-1-.9-2.3-1.3-3.7-1.3s-2.5.4-3.5,1.3c-1,.9-1.5,2-1.7,3.5h10.5Z"/>
    <path d="M148.5,64.6c1.2.6,2.1,1.5,2.8,2.7s1,2.7,1,4.4v11.2h-3.9v-10.6c0-1.7-.4-3-1.3-3.9-.8-.9-2-1.4-3.5-1.4s-2.6.5-3.5,1.4c-.9.9-1.3,2.2-1.3,3.9v10.6h-3.9v-18.9h3.9v2.2c.6-.8,1.5-1.4,2.5-1.8,1-.4,2.1-.7,3.2-.7s2.8.3,4,.9Z"/>
    <path d="M157.4,60.8c-.5-.5-.7-1.1-.7-1.8s.2-1.3.7-1.8c.5-.5,1.1-.7,1.8-.7s1.3.2,1.8.7c.5.5.7,1.1.7,1.8s-.2,1.3-.7,1.8-1.1.7-1.8.7-1.3-.2-1.8-.7ZM161.1,64v18.9h-3.9v-18.9h3.9Z"/>
    <path d="M183.4,64v18.9h-3.9v-2.2c-.6.8-1.4,1.4-2.4,1.8-1,.4-2.1.7-3.2.7s-2.8-.3-4-.9c-1.2-.6-2.1-1.5-2.8-2.7-.7-1.2-1-2.7-1-4.4v-11.1h3.9v10.5c0,1.7.4,3,1.3,3.9.8.9,2,1.4,3.5,1.4s2.6-.5,3.5-1.4c.9-.9,1.3-2.2,1.3-3.9v-10.5h3.9Z"/>
    <path d="M191.4,82.4c-1.2-.5-2.1-1.3-2.8-2.2-.7-.9-1.1-2-1.1-3.1h4.1c0,.8.5,1.5,1.2,2,.7.5,1.6.8,2.6.8s2-.2,2.6-.6c.6-.4.9-1,.9-1.6s-.3-1.2-1-1.6c-.7-.3-1.7-.7-3.2-1.1-1.4-.4-2.6-.8-3.5-1.1-.9-.4-1.7-.9-2.3-1.7-.7-.8-1-1.8-1-3s.3-1.9.9-2.8c.6-.8,1.4-1.5,2.6-2,1.1-.5,2.4-.7,3.8-.7,2.2,0,3.9.5,5.2,1.6,1.3,1.1,2,2.6,2.1,4.4h-3.9c0-.8-.4-1.5-1-2-.6-.5-1.5-.8-2.5-.8s-1.8.2-2.4.6c-.5.4-.8.9-.8,1.5s.2.9.5,1.3.8.6,1.3.8c.5.2,1.3.4,2.3.7,1.4.4,2.5.7,3.4,1.1s1.6.9,2.3,1.7c.6.7,1,1.7,1,2.9,0,1.1-.3,2-.9,2.9-.6.8-1.4,1.5-2.5,2-1.1.5-2.4.7-3.8.7s-2.8-.3-4-.8Z"/>
  </g>
  <text class="st1" transform="translate(16 217.9)"><tspan class="st0" x="0" y="0">Auto</tspan><tspan x="80.9" y="0">Genius</tspan></text>
</svg>