<svg xmlns="http://www.w3.org/2000/svg" version="1.1" xmlns:xlink="http://www.w3.org/1999/xlink" width="512" height="512" x="0" y="0" viewBox="0 0 24 24" style="enable-background:new 0 0 512 512" xml:space="preserve" class=""><g><path fill="#2196f3" d="M24 8.65v1.59l-11.07 5.78c-.58.3-1.28.3-1.86 0L0 10.24V8.65c0-.83.46-1.59 1.19-1.98l9.75-5.21c.66-.35 1.46-.35 2.12 0l9.75 5.21c.73.39 1.19 1.15 1.19 1.98z" opacity="1" data-original="#2196f3"></path><path fill="#eceff1" d="M21 2.75A2.75 2.75 0 0 0 18.25 0H5.75A2.75 2.75 0 0 0 3 2.75v17.32c0 .414.336.75.75.75h16.5a.75.75 0 0 0 .75-.75z" opacity="1" data-original="#eceff1" class=""></path><path fill="#64b5f6" d="M24 10.24v10.51c0 1.24-1.01 2.25-2.25 2.25H2.25C1.01 23 0 21.99 0 20.75V10.24l11.07 5.78c.58.3 1.28.3 1.86 0z" opacity="1" data-original="#64b5f6"></path><g fill="#90a4ae"><path d="M16 10H8a1 1 0 0 1 0-2h8a1 1 0 0 1 0 2zM12 6H8a1 1 0 0 1 0-2h4a1 1 0 0 1 0 2z" fill="#90a4ae" opacity="1" data-original="#90a4ae"></path></g></g></svg>