<svg xmlns="http://www.w3.org/2000/svg" version="1.1" xmlns:xlink="http://www.w3.org/1999/xlink" width="512" height="512" x="0" y="0" viewBox="0 0 70 70" style="enable-background:new 0 0 512 512" xml:space="preserve" class=""><g><circle cx="11.42" cy="58.26" r="1.75" fill="#ffffff" opacity="1" data-original="#ffffff" class=""></circle><path fill="#2cb02c" d="M11.42 60.51c-1.24 0-2.25-1.01-2.25-2.25s1.01-2.25 2.25-2.25 2.25 1.01 2.25 2.25-1 2.25-2.25 2.25zm0-3.5a1.25 1.25 0 1 0 0 2.5 1.25 1.25 0 0 0 0-2.5z" opacity="1" data-original="#000100" class=""></path><path fill="#4acdff" d="M15.55 42.07v18.72a2.2 2.2 0 0 1-2.2 2.2H5.7a2.2 2.2 0 0 1-2.2-2.2V42.07c0-1.22.98-2.2 2.2-2.2h7.65c1.22-.01 2.2.97 2.2 2.2z" opacity="1" data-original="#495e66" class=""></path><path fill="#ffc6cd" d="M66.5 48.93c0 1.15-.62 2.21-1.62 2.78 0 0-20.88 14.82-29.25 15.29-5.44.31-20.07-8.49-20.07-8.49V42.83s4.7-.14 10.24 0c4 .09 8.32 2.12 11.65 5.12h7.45c1.8 0 3.26 1.45 3.26 3.25 0 .65-.19 1.25-.52 1.76.01 0 .01 0 .02-.01l1.62-.78 12.65-6.11c2.11-1.02 4.57.52 4.57 2.87z" opacity="1" data-original="#ffc6cd"></path><circle cx="11.42" cy="58.26" r="1.75" fill="#ffffff" opacity="1" data-original="#ffffff" class=""></circle><path fill="#fbe063" d="m58.41 35.31 5.09-18.55c-9.95 2.9-15.89-2.72-19-11.03-3.11 8.31-9.04 13.93-19 11.03l5.09 18.55z" opacity="1" data-original="#fbe063"></path><circle cx="25.5" cy="16.76" r="2.73" fill="#f9a41a" opacity="1" data-original="#f9a41a"></circle><circle cx="44.5" cy="5.73" r="2.73" fill="#f9a41a" opacity="1" data-original="#f9a41a"></circle><circle cx="63.5" cy="16.76" r="2.73" fill="#f9a41a" opacity="1" data-original="#f9a41a"></circle><path fill="#f9a41a" d="M61.73 35.88c0 .94-.39 1.8-.99 2.41-.62.61-1.48 1-2.41 1H30.68a3.414 3.414 0 0 1-2.42-5.82c.62-.61 1.48-.99 2.41-.99h27.64c1.9-.01 3.42 1.52 3.42 3.4zM45.87 18.55l3.3 4.21c.49.63.49 1.51 0 2.14l-3.3 4.21c-.7.89-2.04.89-2.73 0l-3.3-4.21c-.49-.63-.49-1.51 0-2.14l3.3-4.21a1.73 1.73 0 0 1 2.73 0z" opacity="1" data-original="#f9a41a"></path><path fill="#ffaecd" d="M44.23 69.23c-.49 1.5-1.9 2.58-3.57 2.58h-14.4c-.27 0-.5-.22-.5-.5 0-.27.23-.5.5-.5h14.4c.75 0 1.43-.3 1.93-.79.01 0 .01 0 .02-.01z" opacity="1" data-original="#ffaecd" class=""></path></g></svg>