<svg xmlns="http://www.w3.org/2000/svg" version="1.1" xmlns:xlink="http://www.w3.org/1999/xlink" width="512" height="512" x="0" y="0" viewBox="0 0 476.475 476.475" style="enable-background:new 0 0 512 512" xml:space="preserve"><g><path d="M458.283 298.32c9.198 11.165 7.807 27.63-3.135 37.094l-74.188 61.649a145.764 145.764 0 0 1-99.788 33.959l-107.624-5.224a167.182 167.182 0 0 0-36.049 2.09l-44.931 8.359h-3.135V303.544h2.09l46.498-22.465a154.13 154.13 0 0 1 76.278-17.241l71.053 3.135h1.567c13.287-.096 24.528 9.797 26.122 22.988 1.62 13.856-7.722 26.616-21.42 29.257l-52.767 9.927c-8.501 1.634-14.067 9.849-12.434 18.35a15.687 15.687 0 0 0 1.985 5.16l5.747 9.927a14.104 14.104 0 0 0 13.584 7.314l51.2-1.567a87.246 87.246 0 0 0 52.767-19.331l68.441-55.38c11.692-9.356 28.75-7.487 38.139 4.18v.522z" style="" fill="#edb288" data-original="#edb288"></path><path d="M320.356.001c66.941-.289 121.441 53.744 121.729 120.685S388.341 242.127 321.4 242.416s-121.44-53.745-121.728-120.685l-.001-.521C199.382 54.557 253.181.291 319.833.002l.523-.001z" style="" fill="#fedb41" data-original="#fedb41"></path><path d="M94.659 436.246v19.331c0 11.542-9.356 20.898-20.898 20.898H33.01c-11.542 0-20.898-9.356-20.898-20.898V303.022c0-11.542 9.356-20.898 20.898-20.898h40.751c11.542 0 20.898 9.356 20.898 20.898v133.224z" style="" fill="#00acea" data-original="#00acea"></path><path d="M359.54 91.952h-13.061a63.189 63.189 0 0 0-5.747-15.673h18.808c5.771 0 10.449-4.678 10.449-10.449s-4.678-10.449-10.449-10.449h-78.367c-5.771 0-10.449 4.678-10.449 10.449s4.678 10.449 10.449 10.449h22.465a21.422 21.422 0 0 1 20.376 15.673h-42.841c-5.771 0-10.449 4.678-10.449 10.449s4.678 10.449 10.449 10.449h42.841c-1.045 0-2.09 3.135-4.18 4.702a21.943 21.943 0 0 1-16.196 5.747h-22.465a10.973 10.973 0 0 0-9.927 6.269 10.448 10.448 0 0 0 2.612 11.494l55.902 52.767a10.45 10.45 0 0 0 7.314 3.135 12.017 12.017 0 0 0 7.837-3.657c3.841-4.204 3.609-10.709-.522-14.629l-37.094-35.004a42.834 42.834 0 0 0 27.167-11.494 52.764 52.764 0 0 0 12.016-19.331h13.061c5.771 0 10.449-4.678 10.449-10.449.001-5.77-4.677-10.448-10.448-10.448z" style="" fill="#3bb54a" data-original="#3bb54a"></path></g></svg>