<svg xmlns="http://www.w3.org/2000/svg" version="1.1" xmlns:xlink="http://www.w3.org/1999/xlink" width="512" height="512" x="0" y="0" viewBox="0 0 520 520" style="enable-background:new 0 0 512 512" xml:space="preserve" class=""><g><path fill="#ecf0f1" d="M442.005 115.5h-374c-17.193 0-31.303 13.14-32.853 29.928-.285 2.853-.083-10.37-.147 230.072h440v-227c0-18.087-14.647-33-33-33z" opacity="1" data-original="#ecf0f1"></path><path fill="#74829c" d="M260.005 35.5c8.28 0 15 6.72 15 15s-6.72 15-15 15c-8.279 0-15-6.72-15-15s6.721-15 15-15zM95.005 65.5c11.05 0 20 8.95 20 20s-8.95 20-20 20-20-8.95-20-20 8.95-20 20-20z" opacity="1" data-original="#74829c"></path><path fill="#313a52" d="M195.005 165.5v120h-.24c-2.52-28.029-26.069-50-54.76-50 11.05 0 20-8.95 20-20s-8.95-20-20-20-20 8.95-20 20 8.95 20 20 20c-28.689 0-52.24 21.971-54.76 50h-.24v-120z" opacity="1" data-original="#313a52"></path><path fill="#65b2fe" d="M140.005 235.5c28.69 0 52.24 21.971 54.76 50H85.245c2.52-28.029 26.07-50 54.76-50z" opacity="1" data-original="#65b2fe"></path><path fill="#ffd8a8" d="M140.005 195.5c11.05 0 20 8.95 20 20s-8.95 20-20 20-20-8.95-20-20 8.95-20 20-20z" opacity="1" data-original="#ffd8a8"></path><path fill="#80af52" d="M474.445 142.47c-12.351 19.83-34.351 33.03-59.44 33.03-35.26 0-64.44-26.08-69.28-60-.479-3.27-.72-6.6-.72-10 0-38.66 31.34-70 70-70s70 31.34 70 70c0 13.57-3.87 26.24-10.56 36.97z" opacity="1" data-original="#80af52"></path><path fill="#74829c" d="M182.075 48.43c1.81 1.81 2.93 4.31 2.93 7.07s-1.12 5.26-2.93 7.07a9.972 9.972 0 0 1-7.07 2.93c-5.52 0-10-4.48-10-10 0-2.76 1.12-5.26 2.931-7.07 1.81-1.81 4.31-2.93 7.069-2.93s5.26 1.12 7.07 2.93z" opacity="1" data-original="#74829c"></path><g fill="#b3b3b3"><path d="M325.005 195.5h-90c-5.522 0-10-4.477-10-10s4.478-10 10-10h90c5.522 0 10 4.477 10 10s-4.478 10-10 10zM355.005 225.5h-120c-5.522 0-10-4.477-10-10s4.478-10 10-10h120c5.522 0 10 4.477 10 10s-4.478 10-10 10zM385.005 255.5h-150c-5.522 0-10-4.477-10-10s4.478-10 10-10h150c5.522 0 10 4.477 10 10s-4.478 10-10 10zM385.005 285.5h-150c-5.522 0-10-4.478-10-10s4.478-10 10-10h150c5.522 0 10 4.478 10 10s-4.478 10-10 10z" fill="#b3b3b3" opacity="1" data-original="#b3b3b3"></path></g><path fill="#ffffff" d="M405.505 145.5a9.966 9.966 0 0 1-7.071-2.929l-21.21-21.21c-3.905-3.905-3.905-10.237 0-14.143 3.906-3.905 10.236-3.905 14.143 0l14.139 14.139 42.429-42.429c3.906-3.905 10.236-3.905 14.143 0 3.905 3.905 3.905 10.237 0 14.143l-49.5 49.5a9.976 9.976 0 0 1-7.073 2.929z" opacity="1" data-original="#ffffff"></path><path fill="#414a56" d="M305.005 478.5h-100c-5.522 0-10-4.478-10-10v-44c0-5.522 4.478-10 10-10 5.523 0 10 4.478 10 10v34h80v-34c0-5.522 4.478-10 10-10s10 4.478 10 10v44c0 5.522-4.478 10-10 10z" opacity="1" data-original="#414a56"></path><path fill="#57606f" d="M340.005 454.5c8.28 0 15 6.72 15 15 0 4.14-1.68 7.89-4.4 10.6a14.912 14.912 0 0 1-10.6 4.4h-170c-8.279 0-15-6.72-15-15 0-4.14 1.681-7.89 4.4-10.6 2.71-2.721 6.46-4.4 10.6-4.4h135zM475.005 374.5v17c0 18.23-14.77 33-33 33h-374c-18.229 0-33-14.77-33-33v-17z" opacity="1" data-original="#57606f"></path><path fill="#74829c" d="M412.075 457.43c1.81 1.811 2.93 4.311 2.93 7.07s-1.12 5.26-2.93 7.07a9.972 9.972 0 0 1-7.07 2.93c-5.52 0-10-4.48-10-10 0-2.76 1.12-5.26 2.93-7.07 1.811-1.81 4.311-2.93 7.07-2.93s5.26 1.12 7.07 2.93zM92.075 457.43c1.81 1.811 2.93 4.311 2.93 7.07s-1.12 5.26-2.93 7.07a9.972 9.972 0 0 1-7.07 2.93c-5.52 0-10-4.48-10-10 0-2.76 1.12-5.26 2.931-7.07 1.81-1.81 4.31-2.93 7.069-2.93s5.26 1.12 7.07 2.93z" opacity="1" data-original="#74829c"></path></g></svg>