<svg width="1029" height="195" viewBox="0 0 1029 195" fill="none" xmlns="http://www.w3.org/2000/svg">
<path d="M1028.5 99C1028.5 105.397 1025.01 111.709 1018.21 117.876C1011.41 124.042 1001.36 130.013 988.367 135.715C962.383 147.118 924.753 157.399 878.215 166.037C785.147 183.312 656.554 194 514.5 194C372.446 194 243.853 183.312 150.785 166.037C104.247 157.399 66.6166 147.118 40.6329 135.715C27.6392 130.013 17.5859 124.042 10.7887 117.876C3.99027 111.709 0.5 105.397 0.5 99C0.5 92.6033 3.99027 86.2906 10.7887 80.1238C17.5859 73.9581 27.6392 67.9872 40.6329 62.2849C66.6166 50.882 104.247 40.6012 150.785 31.9629C243.853 14.6879 372.446 4 514.5 4C656.554 4 785.147 14.6879 878.215 31.9629C924.753 40.6012 962.383 50.882 988.367 62.2849C1001.36 67.9872 1011.41 73.9581 1018.21 80.1238C1025.01 86.2906 1028.5 92.6033 1028.5 99Z" stroke="#555555" stroke-opacity="0.2"/>
<path d="M994.5 84.5C994.5 90.09 991.251 95.6253 984.883 101.048C978.52 106.468 969.104 111.719 956.932 116.734C932.59 126.764 897.338 135.806 853.74 143.404C766.551 158.599 646.081 168 513 168C379.919 168 259.449 158.599 172.26 143.404C128.662 135.806 93.4096 126.764 69.0684 116.734C56.8956 111.719 47.4804 106.468 41.1167 101.048C34.7491 95.6253 31.5 90.09 31.5 84.5C31.5 78.91 34.7491 73.3747 41.1167 67.9517C47.4804 62.532 56.8956 57.2813 69.0684 52.2657C93.4096 42.2364 128.662 33.1937 172.26 25.5956C259.449 10.4009 379.919 1 513 1C646.081 1 766.551 10.4009 853.74 25.5956C897.338 33.1937 932.59 42.2364 956.932 52.2657C969.104 57.2813 978.52 62.532 984.883 67.9517C991.251 73.3747 994.5 78.91 994.5 84.5Z" stroke="#555555" stroke-opacity="0.2"/>
</svg>
