<svg width="116" height="506" viewBox="0 0 116 506" fill="none" xmlns="http://www.w3.org/2000/svg">
<g opacity="0.2">
<path d="M41.6535 139.22C19.2013 139.22 0.999997 121.02 0.999998 98.567C0.999999 76.1159 19.2013 57.9146 41.6535 57.9146C64.1056 57.9146 82.3069 76.1159 82.3069 98.567C82.3069 121.02 64.1056 139.22 41.6535 139.22Z" stroke="#555555" stroke-width="1.5" stroke-miterlimit="10" stroke-linecap="round" stroke-linejoin="round"/>
<path d="M25.3923 139.22L25.3923 375.009" stroke="#555555" stroke-width="1.5" stroke-miterlimit="10" stroke-linecap="round" stroke-linejoin="round"/>
<path d="M47.4037 104.317L35.9058 92.8188" stroke="#555555" stroke-width="1.5" stroke-miterlimit="10" stroke-linecap="round" stroke-linejoin="round"/>
<path d="M41.6535 456.314C19.2013 456.314 0.999997 438.114 0.999998 415.661C0.999999 393.21 19.2013 375.009 41.6535 375.009C64.1056 375.009 82.3069 393.21 82.3069 415.661C82.3069 438.114 64.1056 456.314 41.6535 456.314Z" stroke="#555555" stroke-width="1.5" stroke-miterlimit="10" stroke-linecap="round" stroke-linejoin="round"/>
<path d="M47.4037 409.913L35.9058 421.411" stroke="#555555" stroke-width="1.5" stroke-miterlimit="10" stroke-linecap="round" stroke-linejoin="round"/>
<path d="M33.5228 57.9144L44.7296 18.6911C47.7217 8.21966 57.2925 1 68.1828 1L116.736 1C124.936 1 131.853 7.107 132.871 15.2446L136.63 45.316C138.345 59.0352 142.38 72.3639 148.564 84.73L167.856 123.316C175.76 139.122 179.874 156.551 179.874 174.222L179.874 246.661C179.874 266.764 174.141 286.448 163.349 303.408L122.959 366.878C122.959 366.878 122.959 440.581 101.606 486.561C96.318 497.948 84.7643 505.098 72.2085 505.098L45.2164 505.098C32.6302 505.098 25.3923 497.818 25.3923 488.837" stroke="#555555" stroke-width="1.5" stroke-miterlimit="10" stroke-linecap="round" stroke-linejoin="round"/>
<path d="M57.9146 171.743L57.9146 342.486" stroke="#555555" stroke-width="1.5" stroke-miterlimit="10" stroke-linecap="round" stroke-linejoin="round"/>
<path d="M98.5691 1.00049L98.5691 17.2615" stroke="#555555" stroke-width="1.5" stroke-miterlimit="10" stroke-linecap="round" stroke-linejoin="round"/>
<path d="M82.3069 480.707L82.3069 500.355" stroke="#555555" stroke-width="1.5" stroke-miterlimit="10" stroke-linecap="round" stroke-linejoin="round"/>
</g>
</svg>
