<svg width="197" height="181" viewBox="0 0 197 181" fill="none" xmlns="http://www.w3.org/2000/svg">
<g opacity="0.2">
<path d="M-169.78 155.481L66.0087 155.481" stroke="#555555" stroke-width="1.5" stroke-miterlimit="10" stroke-linecap="round" stroke-linejoin="round"/>
<path d="M147.314 139.22C147.314 161.672 129.114 179.874 106.661 179.874C84.2098 179.874 66.0085 161.672 66.0085 139.22C66.0085 116.768 84.2098 98.5669 106.661 98.5669C129.114 98.5669 147.314 116.768 147.314 139.22Z" stroke="#555555" stroke-width="1.5" stroke-miterlimit="10" stroke-linecap="round" stroke-linejoin="round"/>
<path d="M100.913 133.47L112.411 144.968" stroke="#555555" stroke-width="1.5" stroke-miterlimit="10" stroke-linecap="round" stroke-linejoin="round"/>
<path d="M-251.086 147.351L-290.309 136.144C-300.78 133.152 -308 123.581 -308 112.691V64.1382C-308 55.9377 -301.893 49.0203 -293.755 48.003L-263.684 44.2441C-249.965 42.5289 -236.636 38.4941 -224.27 32.31L-185.684 13.0173C-169.878 5.11404 -152.449 1.00012 -134.778 1.00012H-62.3388C-42.2357 1.00012 -22.5515 6.73284 -5.59169 17.5248L57.8781 57.9146C57.8781 57.9146 131.581 57.9146 177.561 79.2672C188.948 84.5557 196.098 96.1094 196.098 108.665V135.657C196.098 148.244 188.818 155.481 179.837 155.481" stroke="#555555" stroke-width="1.5" stroke-miterlimit="10" stroke-linecap="round" stroke-linejoin="round"/>
<path d="M57.8778 57.9146L-120.995 57.9146" stroke="#555555" stroke-width="1.5" stroke-miterlimit="10" stroke-linecap="round" stroke-linejoin="round"/>
<path d="M-137.257 122.959L33.4857 122.959" stroke="#555555" stroke-width="1.5" stroke-miterlimit="10" stroke-linecap="round" stroke-linejoin="round"/>
<path d="M171.707 98.5669H191.355" stroke="#555555" stroke-width="1.5" stroke-miterlimit="10" stroke-linecap="round" stroke-linejoin="round"/>
</g>
</svg>
