<svg xmlns="http://www.w3.org/2000/svg" version="1.1" xmlns:xlink="http://www.w3.org/1999/xlink" width="512" height="512" x="0" y="0" viewBox="0 0 256 256" style="enable-background:new 0 0 512 512" xml:space="preserve" class=""><g><path fill="#ffa91a" d="m123.808 10.74-44.31 20.713c-3.767 1.76-6.08 5.774-5.807 10.066.77 12.056 3.691 36.77 14.751 55.206 13.951 23.255 31.274 29.341 37.338 30.814a9.44 9.44 0 0 0 4.44 0c6.063-1.473 23.387-7.559 37.338-30.814 11.061-18.435 13.981-43.151 14.751-55.206.273-4.292-2.042-8.306-5.807-10.066l-44.31-20.713a9.855 9.855 0 0 0-8.384 0z" opacity="1" data-original="#ffa91a"></path><path fill="#ffc91d" d="M105.136 110.481c-.506 0-1.012-.19-1.401-.572-4.389-4.308-8.38-9.437-11.863-15.242-7.788-12.98-11.314-29.289-12.901-40.686a2 2 0 0 1 1.705-2.256 1.992 1.992 0 0 1 2.257 1.705c1.536 11.027 4.928 26.775 12.369 39.178 3.309 5.516 7.089 10.376 11.235 14.445a2 2 0 0 1-1.401 3.428zM80.035 47.756a2 2 0 0 1-1.989-1.817l-.058-.645a2 2 0 0 1 1.821-2.164c1.093-.11 2.069.72 2.164 1.82l.056.623a2 2 0 0 1-1.994 2.183z" opacity="1" data-original="#ffc91d"></path><path fill="#f79219" d="m176.502 31.453-17.236-8.057c2.079 2.066 3.24 5.019 3.043 8.123-.771 12.055-3.69 36.771-14.751 55.206-13.951 23.255-31.274 29.341-37.338 30.814a9.415 9.415 0 0 1-3.76.122c8.343 6.56 15.766 9.015 19.32 9.878a9.44 9.44 0 0 0 4.44 0c6.063-1.473 23.387-7.56 37.338-30.814 11.061-18.436 13.981-43.151 14.751-55.206.273-4.292-2.042-8.306-5.807-10.066z" opacity="1" data-original="#f79219"></path><path fill="#ef7816" d="m176.502 31.453-7.977-3.729c2.544 2.064 4.005 5.339 3.785 8.795-.771 12.055-3.69 36.771-14.751 55.206-13.951 23.255-31.274 29.341-37.338 30.814a9.44 9.44 0 0 1-4.44 0 39.805 39.805 0 0 1-4.329-1.335c6.234 3.959 11.504 5.649 14.329 6.335a9.44 9.44 0 0 0 4.44 0c6.063-1.473 23.387-7.56 37.338-30.814 11.061-18.436 13.981-43.151 14.751-55.206.272-4.292-2.043-8.306-5.808-10.066z" opacity="1" data-original="#ef7816"></path><path fill="#f1f2f2" d="M125.05 27.935 93.862 42.514c-2.652 1.239-4.279 4.064-4.088 7.085.542 8.486 2.598 25.881 10.383 38.857 9.82 16.368 22.012 20.652 26.28 21.689a6.63 6.63 0 0 0 3.125 0c4.268-1.037 16.461-5.321 26.28-21.689 7.785-12.976 9.84-30.372 10.383-38.857.192-3.021-1.437-5.846-4.088-7.085L130.95 27.935a6.944 6.944 0 0 0-5.9 0z" opacity="1" data-original="#f1f2f2"></path><path fill="#e6e7e8" d="m162.138 42.514-17.762-8.303a7.403 7.403 0 0 1 1.849 5.388c-.542 8.485-2.597 25.881-10.383 38.857-9.82 16.368-22.012 20.652-26.28 21.688-.061.015-.123.02-.184.033 7.214 6.923 14.074 9.242 17.058 9.967a6.63 6.63 0 0 0 3.125 0c4.268-1.037 16.461-5.321 26.28-21.688 7.785-12.976 9.84-30.372 10.383-38.857.193-3.02-1.436-5.846-4.086-7.085z" opacity="1" data-original="#e6e7e8"></path><path fill="#414042" d="M125.94 88.811a5 5 0 0 1-3.368-1.305L108.226 74.43a4.999 4.999 0 0 1-.327-7.063 4.998 4.998 0 0 1 7.063-.327l10.302 9.39 17.157-22.615a5.001 5.001 0 0 1 7.967 6.045l-20.465 26.975a5.003 5.003 0 0 1-3.983 1.976z" opacity="1" data-original="#414042"></path><path fill="#fcc4ae" d="M151.155 171.554a7.961 7.961 0 0 0 4.18-3.511l5.543-9.601a1 1 0 0 0-.366-1.366l-40.797-23.554c-4.783-2.761-10.899-1.123-13.66 3.66l-3.609 6.25z" opacity="1" data-original="#fcc4ae"></path><path fill="#f2ad97" d="m179.551 128.422-77.254 44.603 34.434 59.642 33.082-19.1a41.234 41.234 0 0 0 15.303-15.462l25.999-15.01z" opacity="1" data-original="#f2ad97"></path><path fill="#e59076" d="m182.242 193.13 25.998-15.01 2.87 4.97-25.998 15.01z" opacity="1" data-original="#e59076"></path><path fill="#377de2" d="M222.528 186.859 248 172.153l-40.532-70.203-25.472 14.706a8 8 0 0 0-2.928 10.928l32.532 56.347a8 8 0 0 0 10.928 2.928z" opacity="1" data-original="#377de2"></path><path fill="#2266d3" d="m181.996 116.656.527-.304 28.184 48.817a5.74 5.74 0 0 0 7.84 2.101l19.975-11.533L248 172.153l-25.472 14.706a8 8 0 0 1-10.928-2.928l-32.532-56.347a8 8 0 0 1 2.928-10.928z" opacity="1" data-original="#2266d3"></path><path fill="#e59076" d="m182.248 193.134 2.87 4.97a41.234 41.234 0 0 1-15.303 15.462l-33.082 19.1-2.87-4.97 33.082-19.1a41.234 41.234 0 0 0 15.303-15.462z" opacity="1" data-original="#e59076"></path><path fill="#fcc4ae" d="m192.532 195.442-116.083-67.02-31.565 54.671 25.999 15.01a41.234 41.234 0 0 0 15.303 15.462l26.559 15.334 27.957 16.141a8.61 8.61 0 0 0 8.609-14.91l14.91 8.608a8.608 8.608 0 0 0 11.759-3.151 8.608 8.608 0 0 0-3.151-11.759l7.455 4.304a8.61 8.61 0 0 0 8.608-14.911l-4.97-2.869a8.609 8.609 0 0 0 11.759-3.151 8.606 8.606 0 0 0-3.149-11.759z" opacity="1" data-original="#fcc4ae"></path><path fill="#377de2" d="M33.472 186.859 8 172.153l40.532-70.203 25.472 14.706a8 8 0 0 1 2.928 10.928L44.4 183.931a8 8 0 0 1-10.928 2.928z" opacity="1" data-original="#377de2"></path><path fill="#2266d3" d="m74.004 116.656-.527-.304-28.184 48.817a5.74 5.74 0 0 1-7.84 2.101l-19.975-11.533L8 172.153l25.472 14.706a8 8 0 0 0 10.928-2.928l32.532-56.347a8 8 0 0 0-2.928-10.928z" opacity="1" data-original="#2266d3"></path><g fill="#f2ad97"><path d="M176.989 232.706c-2.692 2.221-6.568 2.684-9.768.837l-32.927-19.01-3 5.196 32.927 19.01a8.61 8.61 0 0 0 11.76-3.151 8.549 8.549 0 0 0 1.008-2.882zM193.053 222.1c-2.692 2.221-6.568 2.684-9.768.837l-40.382-23.315-3 5.196 40.382 23.315a8.608 8.608 0 0 0 11.759-3.151c.53-.918.843-1.895 1.009-2.882zM196.691 204.32c-2.692 2.221-6.568 2.684-9.768.837l-35.412-20.445-3 5.196 35.412 20.445a8.609 8.609 0 0 0 11.759-3.151 8.53 8.53 0 0 0 1.009-2.882zM44.88 183.095l2.869-4.97 25.998 15.01-2.87 4.97zM143.702 239.845l-54.646-31.249a41.234 41.234 0 0 1-15.303-15.462l-2.87 4.97a41.234 41.234 0 0 0 15.303 15.462l54.516 31.475a8.61 8.61 0 0 0 11.76-3.151c.53-.917.843-1.895 1.008-2.882-2.692 2.221-6.569 2.684-9.768.837z" fill="#f2ad97" opacity="1" data-original="#f2ad97"></path></g><path fill="#f2ad97" d="m115.298 245.041 13.047-7.532a8.609 8.609 0 0 0-8.608-14.91l-13.047 7.532a8.609 8.609 0 0 0 8.608 14.91z" opacity="1" data-original="#f2ad97"></path><path fill="#e59076" d="m125.475 232.539-13.047 7.532c-3.241 1.871-7.173 1.366-9.868-.929.173.94.472 1.873.978 2.749a8.609 8.609 0 0 0 11.759 3.151l13.047-7.532a8.609 8.609 0 0 0 3.151-11.759c-.506-.876-1.163-1.602-1.891-2.221.641 3.479-.887 7.137-4.129 9.009z" opacity="1" data-original="#e59076"></path><path fill="#f2ad97" d="m91.779 238.739 25.472-14.706a8.609 8.609 0 0 0-8.608-14.91l-25.472 14.706a8.609 8.609 0 0 0 8.608 14.91z" opacity="1" data-original="#f2ad97"></path><path fill="#e59076" d="M114.382 219.063 88.91 233.769c-3.241 1.871-7.173 1.366-9.868-.929.173.94.472 1.873.978 2.749a8.609 8.609 0 0 0 11.759 3.151l25.472-14.706a8.609 8.609 0 0 0 3.151-11.759c-.506-.876-1.163-1.602-1.891-2.221.641 3.479-.888 7.137-4.129 9.009z" opacity="1" data-original="#e59076"></path><path fill="#f2ad97" d="m75.715 228.133 30.442-17.576a8.609 8.609 0 0 0-8.608-14.91l-30.442 17.576a8.609 8.609 0 0 0 8.608 14.91z" opacity="1" data-original="#f2ad97"></path><path fill="#e59076" d="m103.288 205.587-30.442 17.576c-3.241 1.871-7.173 1.366-9.868-.93.173.94.472 1.873.978 2.749a8.609 8.609 0 0 0 11.759 3.151l30.442-17.576a8.609 8.609 0 0 0 3.151-11.759c-.506-.876-1.163-1.602-1.891-2.221.641 3.481-.888 7.139-4.129 9.01z" opacity="1" data-original="#e59076"></path><path fill="#f2ad97" d="m72.077 210.353 22.987-13.272a8.609 8.609 0 0 0-8.608-14.91l-22.987 13.272a8.609 8.609 0 0 0 8.608 14.91z" opacity="1" data-original="#f2ad97"></path><path fill="#e59076" d="m92.195 192.111-22.987 13.271c-3.241 1.871-7.173 1.366-9.868-.929.173.94.472 1.873.978 2.749a8.609 8.609 0 0 0 11.759 3.151l22.987-13.271a8.61 8.61 0 0 0 3.151-11.76c-.506-.876-1.163-1.602-1.891-2.221.64 3.481-.888 7.139-4.129 9.01z" opacity="1" data-original="#e59076"></path><g fill="#ffd2c0"><path d="m92.255 195.39 2.014-1.163a5 5 0 0 0 1.83-6.83l-.739-1.28a5 5 0 0 0-6.83-1.83l-2.014 1.163a2 2 0 0 0-.732 2.732l3.739 6.476a2 2 0 0 0 2.732.732zM103.349 208.865l2.014-1.163a5 5 0 0 0 1.83-6.83l-.739-1.28a5 5 0 0 0-6.83-1.83l-2.906 1.678a.97.97 0 0 0-.355 1.325l4.254 7.368a1.999 1.999 0 0 0 2.732.732zM114.442 222.341l2.014-1.163a5 5 0 0 0 1.83-6.83l-.739-1.28a5 5 0 0 0-6.83-1.83l-2.014 1.163a2 2 0 0 0-.732 2.732l3.739 6.476a2 2 0 0 0 2.732.732zM125.536 235.817l2.014-1.163a5 5 0 0 0 1.83-6.83l-.739-1.28a5 5 0 0 0-6.83-1.83l-2.014 1.163a2 2 0 0 0-.732 2.732l3.739 6.476a2 2 0 0 0 2.732.732z" fill="#ffd2c0" opacity="1" data-original="#ffd2c0"></path></g><path fill="#f2ad97" d="m119.387 166.471 35.6-20.554-5.043-8.735c-2.761-4.783-8.877-6.422-13.66-3.66l-40.797 23.554a1 1 0 0 0-.366 1.366l1.043 1.807c4.695 8.131 15.092 10.917 23.223 6.222z" opacity="1" data-original="#f2ad97"></path><path fill="#ffd2c0" d="m109.658 158.489 4.565-2.636a2.87 2.87 0 0 0 1.05-3.92l-2.72-4.711-12.962 7.484.741 1.284a6.828 6.828 0 0 0 9.326 2.499z" opacity="1" data-original="#ffd2c0"></path></g></svg>